<svg enable-background="new 0 0 103 56" height="233.016899" viewBox="0 0 103 56" width="429.153425" xmlns="http://www.w3.org/2000/svg"><g fill="#a18d66"><path d="m12.8 37.3h-5.3l-1 2.4h-1.8l4.6-10.5h1.8l4.6 10.5h-1.9zm-.7-1.5-2-4.6-2 4.6z"/><path d="m22.6 31.8v1.2l-4.6 5.3h4.7v1.4h-6.8v-1.2l4.5-5.4h-4.4v-1.4z"/><path d="m28.8 39.7v-1c-.7.7-1.6 1.1-2.6 1-1.4.1-2.6-.8-2.8-2.2 0-.1 0-.2 0-.2 0-1.5 1.1-2.4 3-2.4h2.4v-.2c0-1-.6-1.6-1.9-1.6-.8 0-1.7.3-2.3.8l-.7-1.2c1-.7 2.2-1 3.4-1 2 0 3.2 1 3.2 2.8v5.2zm0-2.8v-.7h-2.2c-1.1 0-1.6.3-1.6 1.1s.6 1.2 1.5 1.2c1.2-.1 2.1-.7 2.3-1.6z"/><path d="m39.9 28.6v11.1h-1.7v-1.4c-.6 1-1.7 1.5-2.8 1.4-2.1 0-3.8-1.6-3.8-3.7 0-.1 0-.3 0-.4-.2-2 1.4-3.8 3.4-4h.4c1.1-.1 2.2.5 2.8 1.5v-4.5zm-1.7 7.2c.1-1.3-.9-2.5-2.3-2.6-1.3-.1-2.5.9-2.6 2.3v.3c-.1 1.3.9 2.5 2.3 2.6 1.3.1 2.5-.9 2.6-2.3 0-.1 0-.2 0-.3z"/><path d="m44 29.5c0 .6-.4 1-1 1s-1-.4-1-1 .4-1 1-1 1 .4 1 1zm-.2 2.3v8h-1.7v-8z"/><path clip-rule="evenodd" d="m22.6 12.5 3.7 3.8.7 1.1.8 1.1-.9-.9-1-1z" fill-rule="evenodd"/><path clip-rule="evenodd" d="m24.3 11.4 2.5 4.6.5 1.2.5 1.3-.7-1.1-.7-1.2z" fill-rule="evenodd"/><path clip-rule="evenodd" d="m26.1 10.8 1.4 5.1.1 1.3.2 1.3-.4-1.3-.4-1.2z" fill-rule="evenodd"/><path clip-rule="evenodd" d="m28.1 10.7v5.2l-.1 1.3-.2 1.3-.1-1.3v-1.3z" fill-rule="evenodd"/><path clip-rule="evenodd" d="m30.1 11.1-1.3 5-.5 1.2-.5 1.2.3-1.3.2-1.2z" fill-rule="evenodd"/><path clip-rule="evenodd" d="m31.9 12.1-2.6 4.4-.7 1-.8 1 .6-1.1.6-1.2z" fill-rule="evenodd"/><path clip-rule="evenodd" d="m33.4 13.4-3.6 3.6-1 .7-1 .8.8-1 .9-.9z" fill-rule="evenodd"/><path clip-rule="evenodd" d="m34.5 15.2-4.4 2.4-1.1.4-1.2.5 1.1-.7 1-.6z" fill-rule="evenodd"/><path clip-rule="evenodd" d="m35.2 17.1-4.9 1.2-1.3.1-1.2.1 1.2-.4 1.2-.3z" fill-rule="evenodd"/><path clip-rule="evenodd" d="m35.4 19.1-5.1-.2-1.3-.2-1.2-.2h1.3 1.2z" fill-rule="evenodd"/><path clip-rule="evenodd" d="m35 21.1-4.9-1.5-1.1-.6-1.2-.5 1.2.3 1.3.3z" fill-rule="evenodd"/><path clip-rule="evenodd" d="m34.2 23-4.4-2.8-1-.9-1-.8 1.1.6 1.1.7z" fill-rule="evenodd"/><path clip-rule="evenodd" d="m32.9 24.5-3.6-3.9-.7-1.1-.8-1 .9.9 1 .9z" fill-rule="evenodd"/><path clip-rule="evenodd" d="m31.3 25.6-2.5-4.7-.5-1.2-.5-1.2.7 1.1.7 1.1z" fill-rule="evenodd"/><path clip-rule="evenodd" d="m29.5 26.2-1.4-5.1-.1-1.3-.2-1.3.4 1.2.4 1.3z" fill-rule="evenodd"/><path clip-rule="evenodd" d="m27.5 26.3-.1-5.3.2-1.2.2-1.3.1 1.3v1.3z" fill-rule="evenodd"/><path clip-rule="evenodd" d="m25.5 25.8 1.3-5 .5-1.1.5-1.2-.3 1.2-.2 1.3z" fill-rule="evenodd"/><path clip-rule="evenodd" d="m23.7 24.9 2.5-4.4.8-1 .8-1-.6 1.1-.6 1.2z" fill-rule="evenodd"/><path clip-rule="evenodd" d="m22.2 23.5 3.6-3.5 1-.8 1-.7-.9.9-.8.9z" fill-rule="evenodd"/><path clip-rule="evenodd" d="m21 21.8 4.4-2.4 1.2-.5 1.2-.4-1.1.6-1 .7z" fill-rule="evenodd"/><path clip-rule="evenodd" d="m20.4 19.9 4.9-1.2 1.2-.1 1.3-.1-1.2.3-1.2.4z" fill-rule="evenodd"/><path clip-rule="evenodd" d="m20.2 17.8 5.1.2 1.2.2 1.3.3h-1.3-1.2z" fill-rule="evenodd"/><path clip-rule="evenodd" d="m20.5 15.8 5 1.6 1.1.5 1.2.6-1.3-.4-1.2-.3z" fill-rule="evenodd"/><path clip-rule="evenodd" d="m21.4 14 4.4 2.8 1 .8 1 .9-1.1-.7-1.2-.6z" fill-rule="evenodd"/><path clip-rule="evenodd" d="m25.1 11.1c.2-.1.4 0 .5.2.1.2 0 .4-.2.5s-.4 0-.5-.2c0-.2 0-.4.2-.5z" fill-rule="evenodd"/><path clip-rule="evenodd" d="m27 10.7c.2 0 .4.1.5.3 0 .2-.1.4-.3.4s-.4-.1-.5-.3c0-.1.1-.4.3-.4z" fill-rule="evenodd"/><path clip-rule="evenodd" d="m29 10.9c.2 0 .4.2.4.4s-.2.4-.4.4c-.2 0-.4-.2-.4-.4 0-.3.2-.4.4-.4z" fill-rule="evenodd"/><path clip-rule="evenodd" d="m30.9 11.5c.2.1.3.3.2.5s-.3.3-.5.2-.3-.3-.2-.5c.1-.1.3-.2.5-.2z" fill-rule="evenodd"/><path clip-rule="evenodd" d="m32.6 12.7c.2.1.2.4.1.5-.1.2-.3.2-.5.1-.2-.1-.2-.3-.1-.5s.3-.2.5-.1z" fill-rule="evenodd"/><path clip-rule="evenodd" d="m34 14.2c.2.2.2.4 0 .6-.1.1-.4.2-.5 0-.1-.2-.1-.4 0-.6.1-.1.4-.1.5 0z" fill-rule="evenodd"/><path clip-rule="evenodd" d="m34.9 16c.1.2 0 .4-.2.5-.2.1-.4 0-.5-.2-.1-.2 0-.4.2-.5.2 0 .4.1.5.2z" fill-rule="evenodd"/><path clip-rule="evenodd" d="m35.3 18c0 .2-.1.4-.3.5-.2 0-.4-.1-.5-.3s.1-.4.3-.4c.3-.1.5 0 .5.2z" fill-rule="evenodd"/><path clip-rule="evenodd" d="m35.3 20.1c0 .2-.2.4-.4.4-.2 0-.4-.2-.4-.4s.2-.4.4-.4c.2 0 .4.2.4.4z" fill-rule="evenodd"/><path clip-rule="evenodd" d="m34.7 22c-.1.2-.3.3-.4.2-.2-.1-.3-.3-.2-.5s.3-.3.5-.2c0 .1.2.3.1.5z" fill-rule="evenodd"/><path clip-rule="evenodd" d="m33.6 23.7c-.1.2-.3.2-.5.1-.2-.1-.2-.4-.1-.5.1-.2.3-.2.5-.1.2.1.3.3.1.5z" fill-rule="evenodd"/><path clip-rule="evenodd" d="m32.2 25c-.2.1-.4.1-.5 0-.1-.2-.1-.4 0-.5.2-.1.4-.1.5 0 .1.1.1.3 0 .5z" fill-rule="evenodd"/><path clip-rule="evenodd" d="m30.5 25.9c-.2.1-.4 0-.5-.2s0-.4.2-.5c.2-.1.4 0 .5.3 0 .1-.1.3-.2.4z" fill-rule="evenodd"/><path clip-rule="evenodd" d="m28.5 26.2c-.2 0-.4-.1-.5-.3s.1-.4.3-.5c.2 0 .4.1.4.3.2.3.1.5-.2.5z" fill-rule="evenodd"/><path clip-rule="evenodd" d="m26.5 26.1c-.2 0-.4-.2-.4-.4s.2-.4.4-.4c.2 0 .4.2.4.4s-.1.4-.4.4c.1 0 .1 0 0 0z" fill-rule="evenodd"/><path clip-rule="evenodd" d="m27.1 17.7c.4-.3 1-.3 1.4.1s.3 1-.1 1.4c-.4.3-1 .3-1.4-.1-.3-.4-.3-1 .1-1.4z" fill-rule="evenodd"/><path clip-rule="evenodd" d="m33.6 13.3c-2.2-2.7-5.9-3.6-9.1-2.3v.7c3-1.4 6.6-.6 8.7 2 2.7 3.1 2.5 7.7-.4 10.6-2.3 2-5.6 2.3-8.2.8v.7c2.8 1.5 6.2 1.1 8.6-1 3.1-3.2 3.4-8.2.4-11.5z" fill-rule="evenodd"/><path d="m54.1 43.3-2.7-3.7-1.4 1.6v2.1h-1.4v-8.4h1.4v4.3l4-4.3h1.7l-3.3 3.6 3.5 4.8z"/><path d="m60.5 43.3v-.8c-.5.6-1.3.9-2.1.8-1.1.1-2.1-.7-2.2-1.8 0-.1 0-.2 0-.2 0-1.2.9-1.9 2.4-1.9h1.9v-.2c0-.8-.5-1.2-1.5-1.2-.7 0-1.3.2-1.9.6l-.6-1c.8-.5 1.8-.8 2.7-.8 1.6 0 2.5.8 2.6 2.2v4.2zm0-2.2v-.6h-1.7c-.9 0-1.3.2-1.3.8s.5 1 1.2 1c.9 0 1.7-.5 1.8-1.2z"/><path d="m37.8 45.5 3.4 7 3.4-7h2.1v10.5h-1.6v-7.8l-3.3 6.7h-1.2l-3.3-6.7v7.8h-1.7v-10.5z"/><path d="m53.8 55.9v-.9c-.7.7-1.6 1.1-2.6 1-1.4.1-2.6-.8-2.8-2.2 0-.1 0-.2 0-.2 0-1.5 1.1-2.4 3-2.4h2.4v-.2c0-1-.6-1.6-1.9-1.6-.8 0-1.7.3-2.3.8l-.7-1.2c1-.7 2.2-1 3.4-1 2 0 3.2 1 3.2 2.8v5.2zm0-2.8v-.7h-2.2c-1.1 0-1.6.3-1.6 1.1s.6 1.2 1.5 1.2c1.3-.1 2.2-.7 2.3-1.6z"/><path d="m65.1 51v5h-1.7v-4.5c.1-1-.6-1.8-1.6-1.9-.1 0-.2 0-.3 0-1.2 0-2.3 1-2.3 2.2v.2 3.9h-1.7v-11.1h1.7v4.7c.6-1.1 1.7-1.7 2.9-1.6 1.5-.1 2.9 1.1 3 2.6z"/><path d="m74.5 51.9c.1 2.3-1.7 4.2-4 4.3s-4.2-1.7-4.3-4 1.7-4.2 4-4.3h.1c2.2-.1 4 1.5 4.1 3.7.1.1.1.2.1.3zm-6.5.1c.1 1.3 1.2 2.3 2.6 2.3 1.3-.1 2.3-1.2 2.3-2.6-.1-1.3-1.1-2.3-2.4-2.3s-2.4 1-2.4 2.4c-.1.1-.1.1-.1.2z"/><path d="m80.4 55.4c-.6.4-1.3.6-2 .6-1.2.1-2.1-.8-2.2-1.9 0-.1 0-.3 0-.4v-4.1h-1.1v-1.3h1.1v-2.2h1.8v2.2h2.3v1.3h-2.3v3.8c0 .8.3 1.1.8 1.1.4 0 .8-.1 1.2-.4z"/><path d="m83.9 49.3c-.7 0-1.2.2-1.2.8 0 1.5 4.2.7 4.2 3.6 0 1.6-1.4 2.4-3 2.4-1.2 0-2.3-.4-3.2-1.1l.6-1.2c.7.6 1.7 1 2.7 1 .7 0 1.3-.2 1.3-.8 0-1.6-4.2-.7-4.2-3.6 0-1.6 1.4-2.3 2.9-2.3 1 0 1.9.3 2.8.8l-.7 1.1c-.6-.4-1.4-.7-2.2-.7z"/><path d="m93 55.9v-.9c-.7.7-1.6 1.1-2.6 1-1.4.2-2.6-.8-2.8-2.2 0-.1 0-.2 0-.3 0-1.5 1.1-2.4 3-2.4h2.4v-.2c0-1-.6-1.6-1.9-1.6-.8 0-1.7.3-2.3.8l-.7-1.2c1-.7 2.2-1 3.4-1 2 0 3.2 1 3.2 2.8v5.2zm0-2.8v-.7h-2.2c-1.1 0-1.6.3-1.6 1.1s.6 1.2 1.5 1.2c1.3-.1 2.2-.7 2.3-1.6z"/><path d="m96.9 48 2.2 6.3 2.2-6.3h1.7l-3 8h-1.8l-3.1-8z"/><path d="m6.5 49.8h-4.2l-.8 1.9h-1.5l3.7-8.4h1.4l3.7 8.4h-1.5zm-.6-1.3-1.6-3.7-1.6 3.7z"/><path d="m20.1 47.7v4h-1.4v-3.6c.1-.8-.5-1.5-1.2-1.6-.1 0-.2 0-.3 0-1 0-1.8.9-1.7 1.9v.1 3.1h-1.4v-3.6c.1-.8-.5-1.5-1.2-1.6-.1 0-.2 0-.2 0-1 0-1.8.9-1.8 1.9v.1 3.1h-1.4v-6.4h1.4v1.2c.4-.9 1.3-1.4 2.3-1.3 1-.1 1.9.6 2.2 1.5.4-1 1.3-1.6 2.4-1.5 1.2-.1 2.3.8 2.3 2.1z"/><path d="m25.2 45.3v1.3c-1.1-.1-2 .6-2.2 1.6v.1 3.3h-1.4v-6.4h1.4v1.3c.4-.7 1.3-1.3 2.2-1.2z"/><path d="m27.5 43.5c0 .4-.4.8-.8.8s-.8-.4-.8-.8.4-.8.8-.8.8.3.8.8zm-.1 1.8v6.4h-1.4v-6.4z"/><path d="m32.7 51.3c-.5.3-1 .5-1.6.5-.9.1-1.7-.6-1.8-1.6 0-.1 0-.2 0-.3v-3.3h-.9v-1h.9v-1.8h1.4v1.8h1.9v1h-1.9v3c0 .7.2.9.7.9.4 0 .7-.1 1-.3z"/></g><path clip-rule="evenodd" d="m83.2 8.9c-.4-.1-.8-.1-1.1.1-2.8 1.2-5.9 1.3-8.8.4-2.4-.8-4.9-1.3-7.4-1.6-4.5-.4-8.5 1.2-12.4 3.2-1.7 1-3.4 1.7-5.3 2.2-1.7.4-2.3-.3-2-2 .3-1.4-.1-2-1.4-2.5-.4-.1-.8-.2-1.1-.3-4.8-.5-9.7 0-14.3 1.3l-.4.2s5.3-.4 7.6 4.3c2.9-.4 5.9-.4 8.8.1 1.2.2 1.7.8 1.2 2-.2.5-.3 1-.3 1.5-.1 1.6.6 2.2 2.1 1.8.5-.1 1-.3 1.5-.5 2.1-1 4.2-2.1 6.2-3.4 2.1-1.4 4.5-2.3 7-2.6 3.4-.4 6.8-.1 10.2-.2 2.9-.1 5.8-.4 8.3-2.2.7-.3 1.3-1 1.6-1.8z" fill="#f6921e" fill-rule="evenodd"/><path clip-rule="evenodd" d="m83.2 19.6c-.4-.2-.8-.1-1.1.1-2.8 1.2-5.9 1.3-8.8.4-2.4-.8-4.9-1.3-7.4-1.5-4.5-.4-8.6 1.2-12.5 3.2-1.7 1-3.4 1.7-5.3 2.2-1.7.4-2.3-.3-2-2 .3-1.4-.1-2-1.4-2.5-.4-.1-.8-.2-1.1-.3-2-.2-4-.3-6-.1-.3 2.7-1.8 5.2-4.2 6.6l1.3-.3c3.5-.8 7.1-.8 10.6-.3 1.2.2 1.7.8 1.2 2-.2.5-.3 1-.3 1.5-.1 1.6.6 2.2 2.1 1.8.5-.1 1-.3 1.5-.5 2.1-1 4.2-2.1 6.2-3.4 2.1-1.4 4.4-2.4 6.9-2.6 3.4-.4 6.8-.1 10.2-.2 2.9-.1 5.8-.5 8.3-2.2.9-.3 1.5-1 1.8-1.9z" fill="#00a04e" fill-rule="evenodd"/><path clip-rule="evenodd" d="m5.4 0v2.3h13.6l-11.5 21.2 1.9 1.4 13.7-24.9z" fill="#a18d66" fill-rule="evenodd"/><path clip-rule="evenodd" d="m36.1 0h-10.6l-7.8 14.1 1.8.8 7.1-12.6h9.5z" fill="#a18d66" fill-rule="evenodd"/></svg>