<svg width="244" height="32" viewBox="0 0 244 32" fill="none" xmlns="http://www.w3.org/2000/svg">
<g clip-path="url(#clip0_1_172)">
<path d="M53.6097 14.4729C77.5924 12.262 101.621 10.3027 125.686 8.59562C149.838 6.88389 174.015 5.42492 198.204 4.21364C211.802 3.53488 225.415 2.93436 239.021 2.41886L240.566 1.13552C209.795 3.36346 179.024 5.58578 148.253 7.80809L55.9507 14.4857L3.7562 18.2542L2.24329 19.5076C29.5663 17.4209 56.9278 15.6482 84.305 14.1739C111.682 12.7052 139.087 11.54 166.486 10.6855C181.827 10.2089 197.162 9.82299 212.492 9.53895L213.499 8.31765C190.896 10.3207 168.289 12.245 145.668 14.1023C123.035 15.9546 100.377 17.7291 77.7251 19.43C64.9368 20.3881 52.1472 21.3237 39.3565 22.2367L38.3602 23.4462C61.0692 20.9464 83.9137 18.925 106.807 17.4091C129.689 15.8881 152.629 14.8609 175.541 14.3262C188.397 14.0251 201.25 13.8877 214.078 13.8985L215.085 12.6772C188.878 14.9934 162.667 17.2307 136.427 19.351C110.188 21.4713 84.2839 23.4612 58.1854 25.32C43.4151 26.3764 28.6312 27.3826 13.8449 28.3438L12.8381 29.5651C42.4089 26.9767 72.0574 24.8188 101.754 23.1553C131.34 21.4974 160.962 20.3007 190.553 19.5797C207.223 19.1746 223.889 18.8995 240.531 18.7951C241.359 18.7913 242.713 18.517 243.133 18.0999C243.595 17.6467 242.685 17.5532 242.022 17.5541C212.205 17.7506 182.345 18.4067 152.467 19.5604C122.766 20.7049 93.0777 22.3229 63.4366 24.4126C46.7187 25.5879 30.0084 26.9096 13.3397 28.3929C12.6256 28.4585 11.3821 28.7438 11.1269 29.1411C10.8717 29.5383 11.6839 29.6595 12.3329 29.6142C38.7143 27.8872 65.0774 26.0201 91.4224 24.0185C117.757 22.023 144.073 19.8987 170.363 17.6798C185.112 16.4383 199.849 15.1636 214.595 13.8601C216.024 13.7344 218.152 12.6406 215.602 12.6388C192.661 12.6161 169.648 13.094 146.627 14.069C123.529 15.0481 100.447 16.5344 77.4557 18.5013C64.5536 19.6065 51.6818 20.8682 38.8513 22.2858C38.1378 22.3627 36.9148 22.6187 36.6602 23.0272C36.4057 23.4357 37.206 23.5405 37.8549 23.4952C60.6978 21.8634 83.5261 20.1646 106.35 18.3814C129.064 16.6096 151.774 14.7645 174.458 12.8419C187.317 11.7559 200.164 10.6423 213.009 9.5062C213.723 9.44055 214.967 9.15522 215.222 8.75798C215.477 8.36075 214.656 8.27396 214.016 8.28491C186.643 8.79365 159.243 9.6087 131.847 10.734C104.452 11.8592 77.0614 13.2947 49.6984 15.0392C34.3721 16.0174 19.0618 17.0908 3.7565 18.2598C2.88797 18.3279 1.58351 18.5035 1.12183 18.9624C0.691415 19.3857 1.5396 19.5614 2.25459 19.5127L94.5464 12.8525C125.307 10.6308 156.078 8.40846 186.838 6.19235C204.236 4.93621 221.624 3.68627 239.022 2.43012C239.913 2.36649 241.25 2.17789 241.722 1.71281C242.194 1.24774 241.283 1.12053 240.567 1.15241C216.284 2.05809 191.993 3.23515 167.727 4.66496C143.46 6.1004 119.23 7.78802 95.0229 9.7284C81.3696 10.8222 67.7317 11.9998 54.1089 13.2557C53.3948 13.3213 51.8558 13.656 51.758 14.1071C51.6623 14.5976 52.9834 14.5283 53.5877 14.4741L53.6097 14.4729Z" fill="#98B79D"/>
</g>
<defs>
<clipPath id="clip0_1_172">
<rect width="242" height="18" fill="white" transform="translate(0.694763 13.3452) rotate(-3)"/>
</clipPath>
</defs>
</svg>
