<svg width="476" height="75" viewBox="0 0 476 75" fill="none" xmlns="http://www.w3.org/2000/svg">
<path d="M104.825 2.55C106.658 2.55 108.267 2.90833 109.65 3.625C111.05 4.34167 112.125 5.36667 112.875 6.7C113.642 8.01667 114.025 9.55 114.025 11.3C114.025 13.05 113.642 14.5833 112.875 15.9C112.125 17.2 111.05 18.2083 109.65 18.925C108.267 19.6417 106.658 20 104.825 20H98.725V2.55H104.825ZM104.7 17.025C106.533 17.025 107.95 16.525 108.95 15.525C109.95 14.525 110.45 13.1167 110.45 11.3C110.45 9.48333 109.95 8.06667 108.95 7.05C107.95 6.01667 106.533 5.5 104.7 5.5H102.225V17.025H104.7ZM120.145 2.55V20H116.645V2.55H120.145ZM129.628 20.175C128.411 20.175 127.311 19.9667 126.328 19.55C125.361 19.1333 124.595 18.5333 124.028 17.75C123.461 16.9667 123.17 16.0417 123.153 14.975H126.903C126.953 15.6917 127.203 16.2583 127.653 16.675C128.12 17.0917 128.753 17.3 129.553 17.3C130.37 17.3 131.011 17.1083 131.478 16.725C131.945 16.325 132.178 15.8083 132.178 15.175C132.178 14.6583 132.02 14.2333 131.703 13.9C131.386 13.5667 130.986 13.3083 130.503 13.125C130.036 12.925 129.386 12.7083 128.553 12.475C127.42 12.1417 126.495 11.8167 125.778 11.5C125.078 11.1667 124.47 10.675 123.953 10.025C123.453 9.35833 123.203 8.475 123.203 7.375C123.203 6.34167 123.461 5.44167 123.978 4.675C124.495 3.90833 125.22 3.325 126.153 2.925C127.086 2.50833 128.153 2.3 129.353 2.3C131.153 2.3 132.611 2.74167 133.728 3.625C134.861 4.49167 135.486 5.70833 135.603 7.275H131.753C131.72 6.675 131.461 6.18333 130.978 5.8C130.511 5.4 129.886 5.2 129.103 5.2C128.42 5.2 127.87 5.375 127.453 5.725C127.053 6.075 126.853 6.58333 126.853 7.25C126.853 7.71667 127.003 8.10833 127.303 8.425C127.62 8.725 128.003 8.975 128.453 9.175C128.92 9.35833 129.57 9.575 130.403 9.825C131.536 10.1583 132.461 10.4917 133.178 10.825C133.895 11.1583 134.511 11.6583 135.028 12.325C135.545 12.9917 135.803 13.8667 135.803 14.95C135.803 15.8833 135.561 16.75 135.078 17.55C134.595 18.35 133.886 18.9917 132.953 19.475C132.02 19.9417 130.911 20.175 129.628 20.175ZM150.712 2.55V5.375H146.062V20H142.562V5.375H137.912V2.55H150.712ZM162.266 20L158.416 13.2H156.766V20H153.266V2.55H159.816C161.166 2.55 162.316 2.79167 163.266 3.275C164.216 3.74167 164.924 4.38333 165.391 5.2C165.874 6 166.116 6.9 166.116 7.9C166.116 9.05 165.783 10.0917 165.116 11.025C164.449 11.9417 163.458 12.575 162.141 12.925L166.316 20H162.266ZM156.766 10.575H159.691C160.641 10.575 161.349 10.35 161.816 9.9C162.283 9.43333 162.516 8.79167 162.516 7.975C162.516 7.175 162.283 6.55833 161.816 6.125C161.349 5.675 160.641 5.45 159.691 5.45H156.766V10.575ZM172.782 2.55V20H169.282V2.55H172.782ZM175.39 11.25C175.39 9.53333 175.773 8 176.54 6.65C177.323 5.28333 178.381 4.225 179.715 3.475C181.065 2.70833 182.573 2.325 184.24 2.325C186.19 2.325 187.898 2.825 189.365 3.825C190.831 4.825 191.856 6.20833 192.44 7.975H188.415C188.015 7.14167 187.448 6.51667 186.715 6.1C185.998 5.68333 185.165 5.475 184.215 5.475C183.198 5.475 182.29 5.71667 181.49 6.2C180.706 6.66667 180.09 7.33333 179.64 8.2C179.206 9.06667 178.99 10.0833 178.99 11.25C178.99 12.4 179.206 13.4167 179.64 14.3C180.09 15.1667 180.706 15.8417 181.49 16.325C182.29 16.7917 183.198 17.025 184.215 17.025C185.165 17.025 185.998 16.8167 186.715 16.4C187.448 15.9667 188.015 15.3333 188.415 14.5H192.44C191.856 16.2833 190.831 17.675 189.365 18.675C187.915 19.6583 186.206 20.15 184.24 20.15C182.573 20.15 181.065 19.775 179.715 19.025C178.381 18.2583 177.323 17.2 176.54 15.85C175.773 14.5 175.39 12.9667 175.39 11.25ZM207.304 2.55V5.375H202.654V20H199.154V5.375H194.504V2.55H207.304ZM219.315 2.55V20H215.815V2.55H219.315ZM237.698 20H234.198L226.273 8.025V20H222.773V2.525H226.273L234.198 14.525V2.525H237.698V20ZM247.182 20.175C245.965 20.175 244.865 19.9667 243.882 19.55C242.915 19.1333 242.148 18.5333 241.582 17.75C241.015 16.9667 240.723 16.0417 240.707 14.975H244.457C244.507 15.6917 244.757 16.2583 245.207 16.675C245.673 17.0917 246.307 17.3 247.107 17.3C247.923 17.3 248.565 17.1083 249.032 16.725C249.498 16.325 249.732 15.8083 249.732 15.175C249.732 14.6583 249.573 14.2333 249.257 13.9C248.94 13.5667 248.54 13.3083 248.057 13.125C247.59 12.925 246.94 12.7083 246.107 12.475C244.973 12.1417 244.048 11.8167 243.332 11.5C242.632 11.1667 242.023 10.675 241.507 10.025C241.007 9.35833 240.757 8.475 240.757 7.375C240.757 6.34167 241.015 5.44167 241.532 4.675C242.048 3.90833 242.773 3.325 243.707 2.925C244.64 2.50833 245.707 2.3 246.907 2.3C248.707 2.3 250.165 2.74167 251.282 3.625C252.415 4.49167 253.04 5.70833 253.157 7.275H249.307C249.273 6.675 249.015 6.18333 248.532 5.8C248.065 5.4 247.44 5.2 246.657 5.2C245.973 5.2 245.423 5.375 245.007 5.725C244.607 6.075 244.407 6.58333 244.407 7.25C244.407 7.71667 244.557 8.10833 244.857 8.425C245.173 8.725 245.557 8.975 246.007 9.175C246.473 9.35833 247.123 9.575 247.957 9.825C249.09 10.1583 250.015 10.4917 250.732 10.825C251.448 11.1583 252.065 11.6583 252.582 12.325C253.098 12.9917 253.357 13.8667 253.357 14.95C253.357 15.8833 253.115 16.75 252.632 17.55C252.148 18.35 251.44 18.9917 250.507 19.475C249.573 19.9417 248.465 20.175 247.182 20.175ZM268.266 2.55V5.375H263.616V20H260.116V5.375H255.466V2.55H268.266ZM274.32 2.55V20H270.82V2.55H274.32ZM289.653 2.55V5.375H285.003V20H281.503V5.375H276.853V2.55H289.653ZM295.656 2.55V13.35C295.656 14.5333 295.965 15.4417 296.581 16.075C297.198 16.6917 298.065 17 299.181 17C300.315 17 301.19 16.6917 301.806 16.075C302.423 15.4417 302.731 14.5333 302.731 13.35V2.55H306.256V13.325C306.256 14.8083 305.931 16.0667 305.281 17.1C304.648 18.1167 303.79 18.8833 302.706 19.4C301.64 19.9167 300.448 20.175 299.131 20.175C297.831 20.175 296.648 19.9167 295.581 19.4C294.531 18.8833 293.698 18.1167 293.081 17.1C292.465 16.0667 292.156 14.8083 292.156 13.325V2.55H295.656ZM321.513 2.55V5.375H316.863V20H313.363V5.375H308.713V2.55H321.513ZM327.567 5.375V9.75H333.442V12.525H327.567V17.15H334.192V20H324.067V2.525H334.192V5.375H327.567ZM106.825 43.175C105.192 43.175 103.692 42.7917 102.325 42.025C100.958 41.2583 99.875 40.2 99.075 38.85C98.275 37.4833 97.875 35.9417 97.875 34.225C97.875 32.525 98.275 31 99.075 29.65C99.875 28.2833 100.958 27.2167 102.325 26.45C103.692 25.6833 105.192 25.3 106.825 25.3C108.475 25.3 109.975 25.6833 111.325 26.45C112.692 27.2167 113.767 28.2833 114.55 29.65C115.35 31 115.75 32.525 115.75 34.225C115.75 35.9417 115.35 37.4833 114.55 38.85C113.767 40.2 112.692 41.2583 111.325 42.025C109.958 42.7917 108.458 43.175 106.825 43.175ZM106.825 40.05C107.875 40.05 108.8 39.8167 109.6 39.35C110.4 38.8667 111.025 38.1833 111.475 37.3C111.925 36.4167 112.15 35.3917 112.15 34.225C112.15 33.0583 111.925 32.0417 111.475 31.175C111.025 30.2917 110.4 29.6167 109.6 29.15C108.8 28.6833 107.875 28.45 106.825 28.45C105.775 28.45 104.842 28.6833 104.025 29.15C103.225 29.6167 102.6 30.2917 102.15 31.175C101.7 32.0417 101.475 33.0583 101.475 34.225C101.475 35.3917 101.7 36.4167 102.15 37.3C102.6 38.1833 103.225 38.8667 104.025 39.35C104.842 39.8167 105.775 40.05 106.825 40.05ZM129.129 25.55V28.375H121.854V32.85H127.429V35.625H121.854V43H118.354V25.55H129.129ZM141.068 28.375V32.75H146.943V35.525H141.068V40.15H147.693V43H137.568V25.525H147.693V28.375H141.068ZM156.973 25.55C158.807 25.55 160.415 25.9083 161.798 26.625C163.198 27.3417 164.273 28.3667 165.023 29.7C165.79 31.0167 166.173 32.55 166.173 34.3C166.173 36.05 165.79 37.5833 165.023 38.9C164.273 40.2 163.198 41.2083 161.798 41.925C160.415 42.6417 158.807 43 156.973 43H150.873V25.55H156.973ZM156.848 40.025C158.682 40.025 160.098 39.525 161.098 38.525C162.098 37.525 162.598 36.1167 162.598 34.3C162.598 32.4833 162.098 31.0667 161.098 30.05C160.098 29.0167 158.682 28.5 156.848 28.5H154.373V40.025H156.848ZM172.243 25.55V36.35C172.243 37.5333 172.552 38.4417 173.168 39.075C173.785 39.6917 174.652 40 175.768 40C176.902 40 177.777 39.6917 178.393 39.075C179.01 38.4417 179.318 37.5333 179.318 36.35V25.55H182.843V36.325C182.843 37.8083 182.518 39.0667 181.868 40.1C181.235 41.1167 180.377 41.8833 179.293 42.4C178.227 42.9167 177.035 43.175 175.718 43.175C174.418 43.175 173.235 42.9167 172.168 42.4C171.118 41.8833 170.285 41.1167 169.668 40.1C169.052 39.0667 168.743 37.8083 168.743 36.325V25.55H172.243ZM185.375 34.25C185.375 32.5333 185.758 31 186.525 29.65C187.308 28.2833 188.367 27.225 189.7 26.475C191.05 25.7083 192.558 25.325 194.225 25.325C196.175 25.325 197.883 25.825 199.35 26.825C200.817 27.825 201.842 29.2083 202.425 30.975H198.4C198 30.1417 197.433 29.5167 196.7 29.1C195.983 28.6833 195.15 28.475 194.2 28.475C193.183 28.475 192.275 28.7167 191.475 29.2C190.692 29.6667 190.075 30.3333 189.625 31.2C189.192 32.0667 188.975 33.0833 188.975 34.25C188.975 35.4 189.192 36.4167 189.625 37.3C190.075 38.1667 190.692 38.8417 191.475 39.325C192.275 39.7917 193.183 40.025 194.2 40.025C195.15 40.025 195.983 39.8167 196.7 39.4C197.433 38.9667 198 38.3333 198.4 37.5H202.425C201.842 39.2833 200.817 40.675 199.35 41.675C197.9 42.6583 196.192 43.15 194.225 43.15C192.558 43.15 191.05 42.775 189.7 42.025C188.367 41.2583 187.308 40.2 186.525 38.85C185.758 37.5 185.375 35.9667 185.375 34.25ZM216.114 39.675H209.164L208.014 43H204.339L210.614 25.525H214.689L220.964 43H217.264L216.114 39.675ZM215.164 36.875L212.639 29.575L210.114 36.875H215.164ZM235.185 25.55V28.375H230.535V43H227.035V28.375H222.385V25.55H235.185ZM241.239 25.55V43H237.739V25.55H241.239ZM252.797 43.175C251.163 43.175 249.663 42.7917 248.297 42.025C246.93 41.2583 245.847 40.2 245.047 38.85C244.247 37.4833 243.847 35.9417 243.847 34.225C243.847 32.525 244.247 31 245.047 29.65C245.847 28.2833 246.93 27.2167 248.297 26.45C249.663 25.6833 251.163 25.3 252.797 25.3C254.447 25.3 255.947 25.6833 257.297 26.45C258.663 27.2167 259.738 28.2833 260.522 29.65C261.322 31 261.722 32.525 261.722 34.225C261.722 35.9417 261.322 37.4833 260.522 38.85C259.738 40.2 258.663 41.2583 257.297 42.025C255.93 42.7917 254.43 43.175 252.797 43.175ZM252.797 40.05C253.847 40.05 254.772 39.8167 255.572 39.35C256.372 38.8667 256.997 38.1833 257.447 37.3C257.897 36.4167 258.122 35.3917 258.122 34.225C258.122 33.0583 257.897 32.0417 257.447 31.175C256.997 30.2917 256.372 29.6167 255.572 29.15C254.772 28.6833 253.847 28.45 252.797 28.45C251.747 28.45 250.813 28.6833 249.997 29.15C249.197 29.6167 248.572 30.2917 248.122 31.175C247.672 32.0417 247.447 33.0583 247.447 34.225C247.447 35.3917 247.672 36.4167 248.122 37.3C248.572 38.1833 249.197 38.8667 249.997 39.35C250.813 39.8167 251.747 40.05 252.797 40.05ZM279.251 43H275.751L267.826 31.025V43H264.326V25.525H267.826L275.751 37.525V25.525H279.251V43ZM302.091 43L300.191 41.125C298.575 42.575 296.6 43.3 294.266 43.3C292.983 43.3 291.85 43.0833 290.866 42.65C289.9 42.2 289.15 41.575 288.616 40.775C288.083 39.9583 287.816 39.0167 287.816 37.95C287.816 36.8 288.141 35.7667 288.791 34.85C289.441 33.9333 290.4 33.1917 291.666 32.625C291.216 32.075 290.891 31.55 290.691 31.05C290.491 30.5333 290.391 29.9833 290.391 29.4C290.391 28.6 290.6 27.8833 291.016 27.25C291.433 26.6 292.025 26.0917 292.791 25.725C293.575 25.3583 294.483 25.175 295.516 25.175C296.566 25.175 297.466 25.375 298.216 25.775C298.966 26.175 299.525 26.7083 299.891 27.375C300.258 28.0417 300.416 28.7833 300.366 29.6H296.966C296.983 29.05 296.85 28.6333 296.566 28.35C296.283 28.05 295.9 27.9 295.416 27.9C294.95 27.9 294.558 28.0417 294.241 28.325C293.941 28.5917 293.791 28.9417 293.791 29.375C293.791 29.7917 293.916 30.2083 294.166 30.625C294.416 31.025 294.825 31.525 295.391 32.125L299.791 36.475C299.825 36.4417 299.85 36.4083 299.866 36.375C299.883 36.3417 299.9 36.3083 299.916 36.275L301.341 33.9H304.991L303.241 36.975C302.908 37.625 302.55 38.2417 302.166 38.825L306.391 43H302.091ZM294.366 40.4C295.733 40.4 296.941 39.9167 297.991 38.95L293.691 34.7C292.075 35.4167 291.266 36.4333 291.266 37.75C291.266 38.5 291.55 39.1333 292.116 39.65C292.683 40.15 293.433 40.4 294.366 40.4ZM325.956 25.55V28.375H321.306V43H317.806V28.375H313.156V25.55H325.956ZM337.51 43L333.66 36.2H332.01V43H328.51V25.55H335.06C336.41 25.55 337.56 25.7917 338.51 26.275C339.46 26.7417 340.168 27.3833 340.635 28.2C341.118 29 341.36 29.9 341.36 30.9C341.36 32.05 341.027 33.0917 340.36 34.025C339.693 34.9417 338.702 35.575 337.385 35.925L341.56 43H337.51ZM332.01 33.575H334.935C335.885 33.575 336.593 33.35 337.06 32.9C337.527 32.4333 337.76 31.7917 337.76 30.975C337.76 30.175 337.527 29.5583 337.06 29.125C336.593 28.675 335.885 28.45 334.935 28.45H332.01V33.575ZM355.226 39.675H348.276L347.126 43H343.451L349.726 25.525H353.801L360.076 43H356.376L355.226 39.675ZM354.276 36.875L351.751 29.575L349.226 36.875H354.276ZM365.921 25.55V43H362.421V25.55H365.921ZM384.304 43H380.804L372.879 31.025V43H369.379V25.525H372.879L380.804 37.525V25.525H384.304V43ZM391.263 25.55V43H387.763V25.55H391.263ZM409.646 43H406.146L398.221 31.025V43H394.721V25.525H398.221L406.146 37.525V25.525H409.646V43ZM425.255 30.8C424.855 30.0667 424.305 29.5083 423.605 29.125C422.905 28.7417 422.088 28.55 421.155 28.55C420.122 28.55 419.205 28.7833 418.405 29.25C417.605 29.7167 416.98 30.3833 416.53 31.25C416.08 32.1167 415.855 33.1167 415.855 34.25C415.855 35.4167 416.08 36.4333 416.53 37.3C416.997 38.1667 417.638 38.8333 418.455 39.3C419.272 39.7667 420.222 40 421.305 40C422.638 40 423.73 39.65 424.58 38.95C425.43 38.2333 425.988 37.2417 426.255 35.975H420.255V33.3H429.705V36.35C429.472 37.5667 428.972 38.6917 428.205 39.725C427.438 40.7583 426.447 41.5917 425.23 42.225C424.03 42.8417 422.68 43.15 421.18 43.15C419.497 43.15 417.972 42.775 416.605 42.025C415.255 41.2583 414.188 40.2 413.405 38.85C412.638 37.5 412.255 35.9667 412.255 34.25C412.255 32.5333 412.638 31 413.405 29.65C414.188 28.2833 415.255 27.225 416.605 26.475C417.972 25.7083 419.488 25.325 421.155 25.325C423.122 25.325 424.83 25.8083 426.28 26.775C427.73 27.725 428.73 29.0667 429.28 30.8H425.255Z" fill="black"/>
<path d="M102.232 69.976C101.187 68.9733 100.381 67.6987 99.816 66.152C99.2613 64.6053 98.984 62.9467 98.984 61.176C98.984 59.3627 99.2827 57.6507 99.88 56.04C100.488 54.4293 101.379 53.1013 102.552 52.056H104.44V52.232C103.213 53.3627 102.291 54.7173 101.672 56.296C101.053 57.8747 100.744 59.5013 100.744 61.176C100.744 62.7867 101.032 64.344 101.608 65.848C102.184 67.352 103.021 68.6693 104.12 69.8V69.976H102.232ZM112.187 55.88C113.371 55.88 114.406 56.1093 115.291 56.568C116.187 57.016 116.875 57.6667 117.355 58.52C117.846 59.3627 118.091 60.3493 118.091 61.48C118.091 62.6107 117.846 63.592 117.355 64.424C116.875 65.256 116.187 65.896 115.291 66.344C114.406 66.7813 113.371 67 112.187 67H108.555V55.88H112.187ZM112.187 65.512C113.488 65.512 114.486 65.16 115.179 64.456C115.872 63.752 116.219 62.76 116.219 61.48C116.219 60.1893 115.872 59.1813 115.179 58.456C114.486 57.7307 113.488 57.368 112.187 57.368H110.379V65.512H112.187ZM124.203 55.88V67H122.379V55.88H124.203ZM130.902 57.352V60.616H134.742V62.104H130.902V65.512H135.222V67H129.078V55.864H135.222V57.352H130.902ZM147.132 55.88V57.368H144.172V67H142.348V57.368H139.372V55.88H147.132ZM164.864 60.44V61.976H158.288V60.44H164.864ZM182.699 67L178.395 62.024V67H176.571V55.88H178.395V60.952L182.715 55.88H185.003L180.171 61.448L185.083 67H182.699ZM195.88 64.728H191.224L190.424 67H188.52L192.504 55.864H194.616L198.6 67H196.68L195.88 64.728ZM195.368 63.24L193.56 58.072L191.736 63.24H195.368ZM214.525 55.88V67H212.701V59.384L209.309 67H208.045L204.637 59.384V67H202.813V55.88H204.781L208.685 64.6L212.573 55.88H214.525ZM225.53 67L221.226 62.024V67H219.402V55.88H221.226V60.952L225.546 55.88H227.834L223.002 61.448L227.914 67H225.53ZM233.831 55.88V67H232.007V55.88H233.831ZM240.706 64.808L238.77 69.224H237.586L238.722 64.808H240.706ZM265.896 55.88L262.6 67H260.536L258.2 58.584L255.72 67L253.672 67.016L250.52 55.88H252.456L254.76 64.936L257.256 55.88H259.304L261.624 64.888L263.944 55.88H265.896ZM271.704 57.352V60.616H275.544V62.104H271.704V65.512H276.024V67H269.88V55.864H276.024V57.352H271.704ZM284.415 67.112C283.668 67.112 282.996 66.984 282.399 66.728C281.801 66.4613 281.332 66.088 280.991 65.608C280.649 65.128 280.479 64.568 280.479 63.928H282.431C282.473 64.408 282.66 64.8027 282.991 65.112C283.332 65.4213 283.807 65.576 284.415 65.576C285.044 65.576 285.535 65.4267 285.887 65.128C286.239 64.8187 286.415 64.424 286.415 63.944C286.415 63.5707 286.303 63.2667 286.079 63.032C285.865 62.7973 285.593 62.616 285.263 62.488C284.943 62.36 284.495 62.2213 283.919 62.072C283.193 61.88 282.601 61.688 282.143 61.496C281.695 61.2933 281.311 60.984 280.991 60.568C280.671 60.152 280.511 59.5973 280.511 58.904C280.511 58.264 280.671 57.704 280.991 57.224C281.311 56.744 281.759 56.376 282.335 56.12C282.911 55.864 283.577 55.736 284.335 55.736C285.412 55.736 286.292 56.008 286.975 56.552C287.668 57.0853 288.052 57.8213 288.127 58.76H286.111C286.079 58.3547 285.887 58.008 285.535 57.72C285.183 57.432 284.719 57.288 284.143 57.288C283.62 57.288 283.193 57.4213 282.863 57.688C282.532 57.9547 282.367 58.3387 282.367 58.84C282.367 59.1813 282.468 59.464 282.671 59.688C282.884 59.9013 283.151 60.072 283.471 60.2C283.791 60.328 284.228 60.4667 284.783 60.616C285.519 60.8187 286.116 61.0213 286.575 61.224C287.044 61.4267 287.439 61.7413 287.759 62.168C288.089 62.584 288.255 63.144 288.255 63.848C288.255 64.4133 288.1 64.9467 287.791 65.448C287.492 65.9493 287.049 66.3547 286.463 66.664C285.887 66.9627 285.204 67.112 284.415 67.112ZM300.071 55.88V57.368H297.111V67H295.287V57.368H292.311V55.88H300.071ZM314.698 67.112C313.952 67.112 313.28 66.984 312.682 66.728C312.085 66.4613 311.616 66.088 311.274 65.608C310.933 65.128 310.762 64.568 310.762 63.928H312.714C312.757 64.408 312.944 64.8027 313.274 65.112C313.616 65.4213 314.09 65.576 314.698 65.576C315.328 65.576 315.818 65.4267 316.17 65.128C316.522 64.8187 316.698 64.424 316.698 63.944C316.698 63.5707 316.586 63.2667 316.362 63.032C316.149 62.7973 315.877 62.616 315.546 62.488C315.226 62.36 314.778 62.2213 314.202 62.072C313.477 61.88 312.885 61.688 312.426 61.496C311.978 61.2933 311.594 60.984 311.274 60.568C310.954 60.152 310.794 59.5973 310.794 58.904C310.794 58.264 310.954 57.704 311.274 57.224C311.594 56.744 312.042 56.376 312.618 56.12C313.194 55.864 313.861 55.736 314.618 55.736C315.696 55.736 316.576 56.008 317.258 56.552C317.952 57.0853 318.336 57.8213 318.41 58.76H316.394C316.362 58.3547 316.17 58.008 315.818 57.72C315.466 57.432 315.002 57.288 314.426 57.288C313.904 57.288 313.477 57.4213 313.146 57.688C312.816 57.9547 312.65 58.3387 312.65 58.84C312.65 59.1813 312.752 59.464 312.954 59.688C313.168 59.9013 313.434 60.072 313.754 60.2C314.074 60.328 314.512 60.4667 315.066 60.616C315.802 60.8187 316.4 61.0213 316.858 61.224C317.328 61.4267 317.722 61.7413 318.042 62.168C318.373 62.584 318.538 63.144 318.538 63.848C318.538 64.4133 318.384 64.9467 318.074 65.448C317.776 65.9493 317.333 66.3547 316.746 66.664C316.17 66.9627 315.488 67.112 314.698 67.112ZM324.995 55.88V67H323.171V55.88H324.995ZM336.573 64.728H331.917L331.117 67H329.213L333.197 55.864H335.309L339.293 67H337.373L336.573 64.728ZM336.061 63.24L334.253 58.072L332.429 63.24H336.061ZM352.642 67H350.818L345.33 58.696V67H343.506V55.864H345.33L350.818 64.152V55.864H352.642V67ZM365.565 59.08C365.277 58.5253 364.877 58.1093 364.365 57.832C363.853 57.544 363.261 57.4 362.589 57.4C361.853 57.4 361.197 57.5653 360.621 57.896C360.045 58.2267 359.592 58.696 359.261 59.304C358.941 59.912 358.781 60.616 358.781 61.416C358.781 62.216 358.941 62.9253 359.261 63.544C359.592 64.152 360.045 64.6213 360.621 64.952C361.197 65.2827 361.853 65.448 362.589 65.448C363.581 65.448 364.386 65.1707 365.005 64.616C365.624 64.0613 366.002 63.3093 366.141 62.36H361.965V60.904H368.093V62.328C367.976 63.192 367.666 63.9867 367.165 64.712C366.674 65.4373 366.029 66.0187 365.229 66.456C364.44 66.8827 363.56 67.096 362.589 67.096C361.544 67.096 360.589 66.856 359.725 66.376C358.861 65.8853 358.173 65.208 357.661 64.344C357.16 63.48 356.909 62.504 356.909 61.416C356.909 60.328 357.16 59.352 357.661 58.488C358.173 57.624 358.861 56.952 359.725 56.472C360.6 55.9813 361.554 55.736 362.589 55.736C363.773 55.736 364.824 56.0293 365.741 56.616C366.669 57.192 367.341 58.0133 367.757 59.08H365.565ZM382.64 55.88C383.824 55.88 384.859 56.1093 385.744 56.568C386.64 57.016 387.328 57.6667 387.808 58.52C388.299 59.3627 388.544 60.3493 388.544 61.48C388.544 62.6107 388.299 63.592 387.808 64.424C387.328 65.256 386.64 65.896 385.744 66.344C384.859 66.7813 383.824 67 382.64 67H379.008V55.88H382.64ZM382.64 65.512C383.941 65.512 384.939 65.16 385.632 64.456C386.325 63.752 386.672 62.76 386.672 61.48C386.672 60.1893 386.325 59.1813 385.632 58.456C384.939 57.7307 383.941 57.368 382.64 57.368H380.832V65.512H382.64ZM394.656 55.88V67H392.832V55.88H394.656ZM403.195 67.112C402.448 67.112 401.776 66.984 401.179 66.728C400.581 66.4613 400.112 66.088 399.771 65.608C399.429 65.128 399.259 64.568 399.259 63.928H401.211C401.253 64.408 401.44 64.8027 401.771 65.112C402.112 65.4213 402.587 65.576 403.195 65.576C403.824 65.576 404.315 65.4267 404.667 65.128C405.019 64.8187 405.195 64.424 405.195 63.944C405.195 63.5707 405.083 63.2667 404.859 63.032C404.645 62.7973 404.373 62.616 404.043 62.488C403.723 62.36 403.275 62.2213 402.699 62.072C401.973 61.88 401.381 61.688 400.923 61.496C400.475 61.2933 400.091 60.984 399.771 60.568C399.451 60.152 399.291 59.5973 399.291 58.904C399.291 58.264 399.451 57.704 399.771 57.224C400.091 56.744 400.539 56.376 401.115 56.12C401.691 55.864 402.357 55.736 403.115 55.736C404.192 55.736 405.072 56.008 405.755 56.552C406.448 57.0853 406.832 57.8213 406.907 58.76H404.891C404.859 58.3547 404.667 58.008 404.315 57.72C403.963 57.432 403.499 57.288 402.923 57.288C402.4 57.288 401.973 57.4213 401.643 57.688C401.312 57.9547 401.147 58.3387 401.147 58.84C401.147 59.1813 401.248 59.464 401.451 59.688C401.664 59.9013 401.931 60.072 402.251 60.2C402.571 60.328 403.008 60.4667 403.563 60.616C404.299 60.8187 404.896 61.0213 405.355 61.224C405.824 61.4267 406.219 61.7413 406.539 62.168C406.869 62.584 407.035 63.144 407.035 63.848C407.035 64.4133 406.88 64.9467 406.571 65.448C406.272 65.9493 405.829 66.3547 405.243 66.664C404.667 66.9627 403.984 67.112 403.195 67.112ZM418.851 55.88V57.368H415.891V67H414.067V57.368H411.091V55.88H418.851ZM428.954 67L426.394 62.552H425.002V67H423.178V55.88H427.018C427.871 55.88 428.591 56.0293 429.178 56.328C429.775 56.6267 430.218 57.0267 430.506 57.528C430.805 58.0293 430.954 58.5893 430.954 59.208C430.954 59.9333 430.741 60.5947 430.314 61.192C429.898 61.7787 429.253 62.1787 428.378 62.392L431.13 67H428.954ZM425.002 61.096H427.018C427.701 61.096 428.213 60.9253 428.554 60.584C428.906 60.2427 429.082 59.784 429.082 59.208C429.082 58.632 428.911 58.184 428.57 57.864C428.229 57.5333 427.711 57.368 427.018 57.368H425.002V61.096ZM437.592 55.88V67H435.768V55.88H437.592ZM441.858 61.416C441.858 60.328 442.109 59.352 442.61 58.488C443.122 57.624 443.81 56.952 444.674 56.472C445.549 55.9813 446.504 55.736 447.538 55.736C448.722 55.736 449.773 56.0293 450.69 56.616C451.618 57.192 452.29 58.0133 452.706 59.08H450.514C450.226 58.4933 449.826 58.056 449.314 57.768C448.802 57.48 448.21 57.336 447.538 57.336C446.802 57.336 446.146 57.5013 445.57 57.832C444.994 58.1627 444.541 58.6373 444.21 59.256C443.89 59.8747 443.73 60.5947 443.73 61.416C443.73 62.2373 443.89 62.9573 444.21 63.576C444.541 64.1947 444.994 64.6747 445.57 65.016C446.146 65.3467 446.802 65.512 447.538 65.512C448.21 65.512 448.802 65.368 449.314 65.08C449.826 64.792 450.226 64.3547 450.514 63.768H452.706C452.29 64.8347 451.618 65.656 450.69 66.232C449.773 66.808 448.722 67.096 447.538 67.096C446.493 67.096 445.538 66.856 444.674 66.376C443.81 65.8853 443.122 65.208 442.61 64.344C442.109 63.48 441.858 62.504 441.858 61.416ZM464.505 55.88V57.368H461.545V67H459.721V57.368H456.745V55.88H464.505ZM468.385 69.976V69.8C469.483 68.6693 470.321 67.352 470.897 65.848C471.473 64.344 471.761 62.7867 471.761 61.176C471.761 59.5013 471.451 57.8747 470.833 56.296C470.214 54.7173 469.291 53.3627 468.065 52.232V52.056H469.953C471.126 53.1013 472.011 54.4293 472.609 56.04C473.217 57.6507 473.521 59.3627 473.521 61.176C473.521 62.9467 473.238 64.6053 472.673 66.152C472.118 67.6987 471.318 68.9733 470.273 69.976H468.385Z" fill="black"/>
<circle cx="37.5" cy="37.5" r="37" fill="#FAFFFB" stroke="black"/>
</svg>
