<svg width="750" height="589" viewBox="0 0 750 589" fill="none" xmlns="http://www.w3.org/2000/svg">
<path d="M309.638 124.643C308.313 126.697 307.39 128.985 306.92 131.383C306.691 132.57 306.571 133.776 306.561 134.985C306.555 136.19 306.666 137.393 306.892 138.576L306.803 138.392C307.186 138.967 307.38 139.647 307.357 140.337C307.358 140.99 307.219 141.636 306.95 142.231C306.672 142.792 306.318 143.314 305.899 143.78C305.537 144.239 305.185 144.704 304.853 145.179C304.522 145.645 304.22 146.13 303.949 146.633C303.822 146.869 303.714 147.115 303.628 147.369C303.568 147.52 303.551 147.685 303.578 147.846C303.902 148.184 304.322 148.415 304.782 148.506C305.309 148.635 305.85 148.692 306.392 148.677C306.527 148.673 306.657 148.723 306.754 148.815C306.852 148.908 306.909 149.035 306.912 149.169L306.912 149.215C306.881 149.681 306.891 150.149 306.941 150.613C306.965 150.824 307.009 151.032 307.074 151.233C307.105 151.322 307.151 151.405 307.211 151.478L307.555 151.865C307.668 152.375 307.814 152.877 307.993 153.368C308.079 153.603 308.182 153.832 308.302 154.052C308.395 154.239 308.522 154.407 308.675 154.548L308.696 154.564C308.711 154.575 308.724 154.588 308.735 154.603C309.56 155.695 309.949 157.054 309.826 158.416C309.792 158.689 309.785 158.964 309.804 159.237C309.834 159.472 309.919 159.696 310.052 159.891C310.363 160.315 310.783 160.645 311.267 160.848C312.351 161.275 313.506 161.49 314.671 161.484C315.869 161.515 317.068 161.438 318.253 161.253C318.893 161.125 319.55 161.114 320.194 161.22C320.819 161.369 321.423 161.594 321.993 161.891C323.119 162.468 324.105 163.285 324.883 164.283C326.344 166.296 327.181 168.693 327.29 171.177C327.004 168.763 326.046 166.477 324.524 164.579C323.746 163.683 322.792 162.956 321.721 162.443C321.197 162.193 320.644 162.007 320.075 161.889C319.507 161.818 318.93 161.851 318.373 161.987C315.9 162.585 313.309 162.481 310.892 161.685C310.243 161.417 309.68 160.975 309.267 160.407C309.055 160.097 308.917 159.742 308.864 159.371C308.831 159.037 308.832 158.7 308.866 158.366C308.954 157.27 308.647 156.179 308.003 155.288L308.062 155.342C307.798 155.122 307.579 154.853 307.42 154.549C307.272 154.287 307.145 154.015 307.039 153.734C306.829 153.194 306.664 152.638 306.544 152.071L306.889 152.457C306.7 152.378 306.533 152.258 306.398 152.105C306.263 151.952 306.165 151.771 306.11 151.574C306.022 151.3 305.963 151.017 305.934 150.73C305.881 150.199 305.876 149.665 305.918 149.133L306.437 149.671C305.795 149.685 305.153 149.61 304.531 149.448C303.823 149.299 303.192 148.901 302.753 148.326C302.665 148.132 302.617 147.921 302.613 147.707C302.608 147.493 302.647 147.281 302.727 147.083C302.834 146.777 302.966 146.481 303.122 146.198C303.417 145.663 303.746 145.146 304.106 144.652C304.458 144.162 304.825 143.688 305.201 143.223C305.58 142.814 305.903 142.357 306.162 141.864C306.4 141.386 306.532 140.862 306.55 140.328C306.578 139.83 306.474 139.333 306.248 138.888L306.204 138.82C306.181 138.784 306.165 138.745 306.159 138.703C305.77 136.233 305.874 133.711 306.466 131.283C307.064 128.878 308.143 126.62 309.638 124.643Z" fill="#020202"/>
<path d="M318.573 184.079C319.259 182.272 319.561 180.341 319.459 178.411C319.395 177.496 319.122 176.609 318.66 175.816C318.214 175.097 317.48 174.315 316.936 173.466C316.367 172.606 315.924 171.667 315.621 170.681C315.328 169.663 315.292 168.588 315.518 167.553C315.64 167.059 315.808 166.577 316.022 166.115C316.191 165.682 316.298 165.229 316.341 164.767C316.436 163.801 316.373 162.825 316.156 161.879C316.573 162.794 316.809 163.782 316.849 164.786C316.863 165.307 316.801 165.827 316.667 166.33C316.51 166.777 316.392 167.237 316.312 167.705C316.147 169.562 316.679 171.415 317.805 172.902C318.302 173.721 318.945 174.372 319.513 175.336C320.011 176.269 320.269 177.311 320.264 178.369C320.239 180.392 319.654 182.368 318.573 184.079ZM308.908 123.765C308.997 124.394 309.716 124.684 310.274 125.011C310.877 125.327 311.451 125.695 311.99 126.11C313.058 126.972 313.939 128.043 314.577 129.259C315.162 130.488 315.642 131.764 316.009 133.075C316.433 134.37 316.771 135.691 317.021 137.031C317.098 137.669 317.227 138.299 317.406 138.916C317.656 139.46 318.016 139.946 318.463 140.345C319.464 141.165 320.565 141.856 321.738 142.402L323.525 143.31L325.369 144.161C326.037 144.605 326.602 145.187 327.026 145.868C327.45 146.549 327.722 147.313 327.825 148.108C328.029 149.502 328.093 150.914 328.017 152.321C328.002 153.031 327.94 153.738 327.832 154.44C327.728 155.147 327.538 155.861 327.409 156.461C327.283 157.045 327.236 157.642 327.267 158.238C327.29 158.873 327.35 159.505 327.447 160.132C327.632 161.346 328.072 162.507 328.737 163.538C329.444 164.564 330.369 165.421 331.446 166.048C332.522 166.675 333.725 167.056 334.967 167.164C335.575 167.233 336.191 167.206 336.791 167.084C337.412 166.885 338.02 166.65 338.612 166.378C339.963 165.906 341.409 165.769 342.825 165.981C344.179 166.259 345.488 166.719 346.719 167.347C347.913 167.899 349.192 168.245 350.502 168.371C351.808 168.463 353.118 168.253 354.329 167.756C355.577 167.309 356.805 166.759 358.036 166.217C360.501 165.134 362.959 164.021 365.28 162.723C366.43 162.105 367.507 161.361 368.493 160.505C368.938 160.112 369.304 159.638 369.572 159.108C369.679 158.908 369.739 158.687 369.747 158.461C369.755 158.235 369.711 158.01 369.618 157.803C369.226 157.369 368.777 156.99 368.281 156.678L366.632 155.506C365.535 154.705 364.456 153.88 363.394 153.031C361.195 151.386 359.141 149.556 357.255 147.562C356.341 146.515 355.491 145.415 354.71 144.266C353.898 143.091 353.231 141.823 352.723 140.488C352.2 139.128 351.892 137.695 351.811 136.24C351.762 134.772 351.836 133.543 351.67 132.285L351.663 132.169C351.661 132.194 351.662 132.219 351.665 132.244L351.659 132.201L351.646 132.107L351.616 131.911L351.547 131.514L351.382 130.716C351.257 130.185 351.124 129.653 350.961 129.131C350.647 128.087 350.255 127.068 349.787 126.082C348.917 124.134 347.61 122.412 345.967 121.05C344.255 119.717 342.311 118.711 340.234 118.085C338.107 117.414 335.919 116.957 333.702 116.72C331.462 116.439 329.203 116.334 326.946 116.407C324.679 116.501 322.426 116.801 320.214 117.302C317.984 117.779 315.816 118.504 313.748 119.464C312.711 119.933 311.725 120.509 310.806 121.181C310.347 121.511 309.926 121.89 309.551 122.312C309.158 122.696 308.929 123.216 308.908 123.765ZM308.702 123.789C308.705 123.18 308.946 122.596 309.373 122.161C309.753 121.72 310.181 121.323 310.649 120.975C311.577 120.286 312.562 119.675 313.592 119.149C315.656 118.107 317.812 117.254 320.031 116.603C324.51 115.284 329.185 114.759 333.844 115.051C336.205 115.161 338.545 115.541 340.819 116.184C343.167 116.811 345.369 117.896 347.296 119.375C349.229 120.912 350.769 122.884 351.791 125.131C352.304 126.218 352.735 127.342 353.078 128.494C353.256 129.066 353.4 129.647 353.536 130.232L353.717 131.116L353.793 131.566L353.828 131.795L353.844 131.914L353.853 131.978L353.867 132.159L353.86 132.044C353.958 133.412 353.986 134.785 353.943 136.156C353.991 137.395 354.233 138.619 354.66 139.784C355.089 140.977 355.661 142.113 356.364 143.167C357.078 144.259 357.857 145.307 358.696 146.306C360.48 148.258 362.41 150.071 364.469 151.73C365.487 152.596 366.521 153.44 367.572 154.263L369.162 155.506C369.788 155.942 370.338 156.479 370.789 157.094C371.032 157.504 371.128 157.984 371.061 158.456C371.029 158.876 370.912 159.285 370.717 159.658C370.352 160.32 369.861 160.905 369.273 161.38C368.184 162.246 367.003 162.99 365.753 163.6C363.316 164.836 360.798 165.813 358.328 166.888C357.085 167.412 355.843 167.947 354.547 168.388C353.242 168.882 351.845 169.092 350.452 169.002C349.072 168.885 347.722 168.537 346.458 167.972C345.27 167.405 344.011 167.002 342.715 166.774C341.447 166.635 340.163 166.817 338.983 167.302C338.367 167.626 337.731 167.908 337.077 168.147C336.365 168.337 335.626 168.412 334.889 168.369C333.431 168.313 332.004 167.933 330.71 167.259C329.417 166.584 328.29 165.631 327.411 164.468C326.543 163.274 325.959 161.898 325.704 160.445C325.574 159.745 325.487 159.038 325.442 158.328C325.392 157.579 325.445 156.826 325.6 156.091C325.751 155.375 325.907 154.785 325.996 154.16C326.084 153.529 326.139 152.894 326.161 152.258C326.256 150.977 326.226 149.69 326.07 148.415C325.984 147.842 325.815 147.284 325.566 146.759C325.342 146.294 325.007 145.891 324.592 145.585C324.1 145.325 323.382 144.994 322.811 144.65L321.06 143.606C319.831 142.927 318.693 142.094 317.677 141.127C317.151 140.588 316.745 139.944 316.486 139.237C316.326 138.551 316.225 137.853 316.186 137.15C316.028 135.828 315.781 134.517 315.448 133.228C315.185 131.92 314.782 130.645 314.246 129.424C313.682 128.219 312.858 127.154 311.833 126.306C311.309 125.893 310.75 125.527 310.162 125.211C309.861 125.05 309.569 124.872 309.288 124.677C309.134 124.578 309.002 124.448 308.901 124.295C308.8 124.142 308.733 123.97 308.702 123.789ZM338.889 219.565C339.663 220.829 340.549 222.021 341.536 223.126C342.483 224.198 343.576 225.132 344.782 225.9C345.978 226.664 347.255 227.294 348.59 227.779C349.928 228.308 351.327 228.666 352.755 228.844L352.876 228.856C352.929 228.862 352.981 228.878 353.028 228.904C353.075 228.93 353.116 228.965 353.148 229.008C355.029 231.416 357.124 233.65 359.406 235.683L358.984 235.518C361.315 235.159 363.602 234.629 365.882 234.126C368.161 233.603 370.396 232.92 372.631 232.243C377.12 230.93 381.531 229.337 386.059 227.787C386.083 227.779 386.109 227.78 386.132 227.789C386.156 227.799 386.175 227.816 386.186 227.839C386.198 227.861 386.201 227.887 386.195 227.911C386.189 227.936 386.174 227.957 386.154 227.972C382.203 230.719 377.87 232.872 373.293 234.361C370.99 235.075 368.639 235.627 366.258 236.01C363.881 236.41 361.472 236.595 359.062 236.565L358.979 236.564C358.913 236.564 358.849 236.549 358.79 236.521C358.731 236.492 358.679 236.451 358.639 236.4C356.762 233.988 354.671 231.751 352.392 229.714L352.785 229.878C351.196 229.997 349.598 229.853 348.056 229.453C346.507 229.034 345.053 228.324 343.772 227.359C342.479 226.424 341.372 225.255 340.509 223.914C339.661 222.606 339.048 221.161 338.696 219.642C338.69 219.618 338.693 219.593 338.704 219.571C338.714 219.549 338.733 219.532 338.755 219.522C338.778 219.512 338.803 219.51 338.827 219.517C338.85 219.523 338.871 219.538 338.884 219.559L338.889 219.565Z" fill="#020202"/>
<path d="M369.697 160.076C371.585 161.083 373.345 162.312 374.94 163.737C376.558 165.105 378.069 166.594 379.46 168.191C380.83 169.806 382.021 171.576 383.387 173.18C384.766 174.776 386.225 176.301 387.759 177.748C389.295 179.205 390.792 180.699 392.185 182.282C393.602 183.844 395.019 185.409 396.335 187.055C398.984 190.354 401.373 193.852 403.481 197.519C403.494 197.541 403.498 197.566 403.493 197.591C403.488 197.615 403.474 197.637 403.455 197.653C403.435 197.668 403.411 197.676 403.386 197.675C403.361 197.674 403.337 197.664 403.319 197.647C400.247 194.754 397.345 191.686 394.627 188.458C393.273 186.855 391.996 185.187 390.695 183.539C389.379 181.903 388.131 180.209 386.903 178.494C385.684 176.778 384.342 175.153 382.889 173.631C381.431 172.116 379.754 170.807 378.214 169.384C375.173 166.492 372.43 163.36 369.58 160.246L369.574 160.24C369.557 160.222 369.548 160.199 369.547 160.174C369.545 160.15 369.553 160.126 369.567 160.107C369.582 160.087 369.603 160.073 369.627 160.068C369.651 160.062 369.676 160.065 369.697 160.076Z" fill="#020202"/>
<path d="M379.599 222.75C375.328 224.641 370.935 226.248 366.451 227.561C369.307 226.119 372.173 224.712 375.05 223.339L378.382 221.73L379.599 222.75Z" fill="white"/>
<path d="M361.533 235.801C362.097 237.08 362.48 238.431 362.671 239.815C362.905 241.193 362.943 242.597 362.784 243.985C362.218 242.707 361.835 241.356 361.647 239.971C361.415 238.593 361.377 237.19 361.533 235.801Z" fill="#020202"/>
<path d="M429.488 254.271C417.691 248.33 406.261 241.689 395.26 234.384C378.669 239.149 360.296 243.996 360.296 243.996C360.644 246.191 360.139 248.436 358.884 250.271C357.629 252.107 355.719 253.393 353.545 253.867C327.395 259.605 315.73 265.229 311.364 267.829C309.975 268.647 308.565 269.434 307.103 270.139C302.551 272.335 292.151 279.688 294.587 300.207C296.91 319.742 304.459 354.316 308.098 370.453L308.109 370.391C313.747 370.779 319.407 370.748 325.041 370.298C327.867 370.151 330.68 369.812 333.461 369.282C336.233 368.719 338.947 367.901 341.569 366.838C344.185 365.793 346.719 364.554 349.149 363.13C350.383 362.457 351.523 361.649 352.695 360.872C353.805 360.023 354.966 359.236 356.013 358.303C360.336 354.682 364.032 350.375 366.952 345.553L366.994 345.574L351.596 305.572C385.43 303.439 395.623 298.778 395.623 298.778C425.485 291.186 430.97 271.351 429.488 254.271ZM356.729 359.142C355.634 360.074 354.492 360.949 353.307 361.763C352.094 362.529 350.901 363.327 349.626 363.979C347.124 365.367 344.491 366.505 341.766 367.377C336.344 369.133 330.774 370.398 325.124 371.157C319.451 371.792 313.715 371.569 308.109 370.494C309.332 375.88 310.11 379.195 310.11 379.195C346.339 389.739 370.457 354.574 370.457 354.574L367.015 345.636C364.594 350.822 361.086 355.428 356.729 359.142ZM314.869 377.558C314.466 377.545 314.084 377.377 313.803 377.088C313.522 376.799 313.364 376.412 313.363 376.01C313.362 375.607 313.517 375.219 313.796 374.929C314.075 374.638 314.456 374.467 314.859 374.451C315.262 374.464 315.644 374.633 315.925 374.921C316.206 375.21 316.364 375.597 316.365 376C316.366 376.402 316.211 376.79 315.932 377.081C315.653 377.371 315.272 377.543 314.869 377.558ZM321.588 378.397C321.185 378.384 320.803 378.215 320.522 377.927C320.241 377.638 320.083 377.251 320.082 376.849C320.081 376.446 320.236 376.058 320.515 375.767C320.794 375.477 321.175 375.305 321.578 375.29C321.981 375.303 322.363 375.471 322.644 375.76C322.925 376.049 323.083 376.436 323.084 376.839C323.086 377.241 322.93 377.629 322.651 377.92C322.372 378.21 321.991 378.382 321.588 378.397ZM328.929 378.117C328.526 378.104 328.144 377.936 327.863 377.647C327.582 377.358 327.425 376.972 327.423 376.569C327.422 376.166 327.577 375.779 327.856 375.488C328.135 375.197 328.516 375.026 328.919 375.01C329.322 375.023 329.704 375.192 329.985 375.481C330.266 375.77 330.424 376.156 330.425 376.559C330.427 376.962 330.271 377.349 329.992 377.64C329.713 377.931 329.332 378.102 328.929 378.117ZM336.768 376.471C336.365 376.46 335.981 376.293 335.698 376.005C335.416 375.717 335.256 375.33 335.253 374.927C335.251 374.524 335.405 374.135 335.684 373.843C335.963 373.551 336.344 373.379 336.748 373.363C337.151 373.374 337.535 373.541 337.818 373.829C338.101 374.117 338.26 374.504 338.263 374.907C338.266 375.31 338.111 375.699 337.832 375.991C337.553 376.283 337.172 376.455 336.768 376.471ZM344.711 373.695C344.308 373.682 343.926 373.513 343.645 373.224C343.364 372.935 343.206 372.549 343.205 372.146C343.203 371.743 343.359 371.356 343.638 371.065C343.917 370.774 344.298 370.603 344.701 370.587C345.104 370.6 345.486 370.769 345.767 371.058C346.048 371.347 346.206 371.733 346.207 372.136C346.208 372.539 346.053 372.926 345.774 373.217C345.495 373.508 345.114 373.679 344.711 373.695ZM352.903 368.816C352.5 368.803 352.117 368.635 351.836 368.346C351.556 368.057 351.398 367.67 351.396 367.268C351.395 366.865 351.55 366.477 351.829 366.187C352.108 365.896 352.489 365.725 352.892 365.709C353.295 365.722 353.677 365.891 353.958 366.18C354.239 366.468 354.397 366.855 354.398 367.258C354.4 367.66 354.245 368.048 353.965 368.339C353.686 368.629 353.305 368.801 352.903 368.816ZM359.85 363.316C359.447 363.303 359.065 363.135 358.784 362.846C358.503 362.557 358.345 362.171 358.344 361.768C358.342 361.365 358.497 360.978 358.776 360.687C359.055 360.396 359.436 360.225 359.839 360.209C360.242 360.222 360.625 360.391 360.906 360.68C361.186 360.969 361.344 361.355 361.346 361.758C361.347 362.161 361.192 362.548 360.913 362.839C360.634 363.13 360.253 363.301 359.85 363.316ZM366.164 356.201C365.761 356.188 365.379 356.019 365.098 355.73C364.817 355.441 364.66 355.055 364.658 354.652C364.657 354.249 364.812 353.862 365.091 353.571C365.37 353.28 365.751 353.109 366.154 353.093C366.557 353.106 366.939 353.275 367.22 353.564C367.501 353.853 367.659 354.239 367.66 354.642C367.662 355.045 367.507 355.432 367.228 355.723C366.948 356.014 366.567 356.185 366.164 356.201ZM310.071 204.856C308.392 208.027 306.522 211.092 304.47 214.036C303.437 215.504 302.36 216.943 301.239 218.353C300.687 219.063 300.099 219.748 299.527 220.442C298.99 221.133 298.422 221.791 297.934 222.522C295.906 225.409 294.123 228.459 292.603 231.641C291.045 234.813 289.684 238.111 288.426 241.39L288.417 241.414C288.381 241.507 288.329 241.594 288.265 241.67L283.453 247.345L282.948 248.036C282.735 248.336 282.495 248.617 282.231 248.874C281.688 249.392 281.03 249.774 280.311 249.99C278.949 250.335 277.514 250.258 276.196 249.77C275.104 249.339 273.941 249.112 272.767 249.1C271.594 249.14 270.438 249.392 269.354 249.842C268.271 250.329 267.296 251.026 266.486 251.893C265.675 252.76 265.046 253.78 264.633 254.892L264.627 254.91C264.591 255.004 264.52 255.08 264.429 255.122L263.282 255.641C262.915 255.84 262.541 256.032 262.182 256.246C261.466 256.675 260.791 257.168 260.164 257.718C259.539 258.263 258.985 258.884 258.515 259.565C258.057 260.229 257.729 260.973 257.549 261.758L257.547 261.767C257.534 261.839 257.499 261.905 257.448 261.956C256.926 262.478 256.403 262.998 255.936 263.563C255.466 264.117 255.044 264.71 254.676 265.336C254.325 265.944 254.086 266.61 253.97 267.302C253.91 267.61 253.914 267.928 253.982 268.234C254.05 268.541 254.182 268.83 254.368 269.084C254.437 269.158 254.479 269.253 254.487 269.353L254.488 269.371C254.492 269.581 254.547 269.787 254.647 269.971C254.748 270.155 254.891 270.313 255.065 270.43C255.483 270.594 255.947 270.599 256.368 270.443C257.378 270.078 258.326 269.562 259.179 268.912L261.945 266.924C262.904 266.215 263.951 265.635 265.061 265.199C266.293 264.783 267.63 264.807 268.846 265.267C269.971 265.677 271.042 266.221 272.035 266.888C273.969 268.185 275.71 269.568 277.616 270.588C279.368 271.668 281.445 272.097 283.482 271.801C285.477 271.251 287.256 270.104 288.58 268.515C291.648 265.255 294.659 261.87 297.696 258.533L306.801 248.495L315.966 238.504C322.079 231.845 328.252 225.238 334.485 218.682C334.503 218.663 334.528 218.651 334.555 218.65C334.582 218.649 334.608 218.658 334.628 218.676C334.649 218.693 334.661 218.718 334.663 218.745C334.666 218.771 334.657 218.798 334.64 218.819C328.935 225.839 323.13 232.773 317.226 239.62C311.332 246.478 305.415 253.314 299.339 260.017C296.303 263.375 293.255 266.7 290.064 269.963C288.427 271.823 286.258 273.137 283.849 273.725C283.537 273.796 283.219 273.833 282.9 273.835C282.582 273.865 282.264 273.874 281.945 273.863C281.317 273.827 280.694 273.731 280.085 273.574C278.907 273.272 277.777 272.806 276.729 272.189C274.675 271.007 272.906 269.507 271.121 268.239C270.252 267.621 269.316 267.105 268.33 266.699C267.433 266.297 266.421 266.229 265.477 266.505C264.465 266.859 263.504 267.342 262.617 267.942C261.674 268.536 260.736 269.168 259.795 269.796C258.82 270.479 257.744 271.006 256.606 271.358C255.945 271.56 255.232 271.499 254.616 271.186C254.32 270.987 254.078 270.717 253.914 270.4C253.749 270.084 253.667 269.731 253.673 269.375L253.794 269.662C253.529 269.316 253.341 268.917 253.242 268.493C253.143 268.068 253.135 267.628 253.219 267.2C253.357 266.415 253.637 265.662 254.045 264.977C254.444 264.318 254.9 263.695 255.407 263.114C255.903 262.532 256.45 262.004 256.994 261.475L256.893 261.672C257.094 260.789 257.469 259.955 257.996 259.217C258.493 258.491 259.077 257.826 259.733 257.239C260.384 256.655 261.087 256.131 261.833 255.674L262.966 255.025L264.138 254.452L263.934 254.681C264.781 252.183 266.569 250.113 268.92 248.912C270.103 248.32 271.394 247.974 272.715 247.895C274.035 247.815 275.359 248.004 276.604 248.449C277.652 248.791 278.777 248.812 279.836 248.509C280.307 248.343 280.731 248.068 281.074 247.706C281.246 247.52 281.402 247.319 281.54 247.106L282.108 246.272C283.674 244.291 285.246 242.4 286.844 240.483L286.684 240.763C287.948 237.383 289.41 234.08 291.064 230.873C292.67 227.626 294.571 224.533 296.742 221.632C297.281 220.9 297.911 220.229 298.504 219.536C299.098 218.876 299.704 218.232 300.28 217.556C301.449 216.222 302.576 214.849 303.661 213.438C305.873 210.652 307.938 207.741 309.89 204.754C309.897 204.743 309.907 204.733 309.918 204.725C309.929 204.717 309.941 204.711 309.955 204.708C309.968 204.705 309.982 204.704 309.995 204.706C310.008 204.709 310.021 204.713 310.033 204.72C310.055 204.735 310.07 204.756 310.077 204.781C310.084 204.806 310.082 204.833 310.071 204.856Z" fill="#020202"/>
<path d="M257.221 261.716C257.78 260.856 258.496 260.11 259.333 259.517C260.145 258.892 261.071 258.429 262.059 258.152C261.502 259.013 260.786 259.759 259.948 260.35C259.133 260.974 258.208 261.437 257.221 261.716ZM254.081 269.373C255.202 267.733 256.522 266.238 258.01 264.921C258.748 264.257 259.526 263.638 260.339 263.068C261.149 262.469 262.05 262.004 263.007 261.691C262.248 262.346 261.563 263.026 260.849 263.696C260.147 264.375 259.425 265.03 258.704 265.69C257.256 267.03 255.711 268.26 254.081 269.373Z" fill="#020202"/>
<path d="M264.283 254.787C267.82 254.775 271.337 255.315 274.706 256.389C275.869 256.797 277.139 256.783 278.293 256.347C279.446 255.911 280.408 255.083 281.009 254.008C282.383 251.511 284.458 247.502 287.555 241.077" stroke="#020202" stroke-width="0.968" stroke-linecap="round" stroke-linejoin="round"/>
<path d="M368.055 348.347C370.123 345.617 371.981 342.735 373.613 339.724C375.214 336.721 376.64 333.628 377.884 330.46C379.112 327.289 380.202 324.069 381.153 320.8C382.1 317.543 382.884 314.241 383.501 310.906L384.452 312.035L378.183 311.781C376.087 311.638 374.028 311.653 371.888 311.328C370.828 311.177 369.778 310.965 368.743 310.693C367.677 310.438 366.661 310.006 365.738 309.415C365.496 309.265 365.274 309.085 365.079 308.879L364.78 308.568C364.696 308.448 364.623 308.316 364.547 308.19C364.399 307.937 364.303 307.657 364.264 307.366C364.225 307.075 364.244 306.78 364.321 306.497C364.652 305.465 365.319 304.573 366.215 303.962C365.473 304.664 364.961 305.576 364.749 306.575C364.713 307.04 364.831 307.504 365.085 307.896C365.338 308.287 365.712 308.585 366.151 308.744C367.051 309.171 368.009 309.463 368.994 309.611C369.998 309.789 371.011 309.909 372.029 309.97C374.042 310.134 376.169 310.024 378.244 310.036L384.497 310.067C384.754 310.069 385.001 310.172 385.182 310.355C385.363 310.537 385.464 310.784 385.462 311.041C385.461 311.093 385.457 311.145 385.449 311.196C384.893 314.635 384.115 318.034 383.118 321.371C382.137 324.704 380.947 327.972 379.554 331.155C378.161 334.34 376.514 337.407 374.628 340.328L373.15 342.472C372.659 343.185 372.074 343.836 371.543 344.518C370.459 345.864 369.294 347.143 368.055 348.347ZM369.55 355.799C369.826 355.391 370.055 354.954 370.232 354.494L370.272 354.441L370.289 354.406C370.31 354.362 370.346 354.327 370.39 354.306C370.435 354.285 370.485 354.281 370.532 354.292C370.58 354.304 370.622 354.332 370.651 354.371C370.681 354.41 370.696 354.458 370.694 354.507L370.69 354.612C370.584 357.016 370.346 359.412 369.977 361.79C369.598 364.161 369.131 366.518 368.541 368.851C367.965 371.197 367.23 373.501 366.341 375.748C365.896 376.883 365.373 377.987 364.775 379.05C364.218 380.154 363.413 381.115 362.424 381.858C363.083 380.877 363.576 379.795 363.885 378.655C364.253 377.539 364.545 376.394 364.852 375.255L366.546 368.359L368.258 361.436C368.873 359.133 369.496 356.826 370.223 354.533L370.625 354.739L370.601 354.766L370.64 354.713C370.334 355.128 369.966 355.494 369.55 355.799ZM405.246 295.51C406.779 296.089 408.175 296.98 409.344 298.127C409.966 298.733 410.439 299.476 410.724 300.296C410.996 301.172 410.98 302.113 410.68 302.98C410.013 304.579 408.893 305.948 407.456 306.918C406.132 307.892 404.722 308.742 403.242 309.458C403.199 309.48 403.153 309.497 403.106 309.509L403.064 309.519C401.41 309.92 399.755 310.255 398.089 310.581C396.424 310.904 394.75 311.195 393.046 311.393L393.834 310.686C393.018 314.169 392.065 317.621 391.126 321.076L390.974 320.488C396.031 326.561 401.263 332.474 406.771 338.137C412.266 343.812 417.775 349.474 423.121 355.283C428.537 361.03 433.838 366.881 439.024 372.836C444.218 378.784 449.369 384.772 454.328 390.933C454.344 390.954 454.352 390.98 454.35 391.006C454.348 391.033 454.336 391.057 454.317 391.075C454.297 391.093 454.271 391.103 454.245 391.102C454.218 391.102 454.193 391.091 454.174 391.073C448.506 385.555 443.03 379.863 437.597 374.132C432.154 368.41 426.828 362.582 421.62 356.647C416.34 350.777 411.221 344.76 406.089 338.756C400.971 332.739 395.576 326.973 390.007 321.366C389.938 321.297 389.887 321.213 389.859 321.12C389.83 321.027 389.825 320.928 389.843 320.833L389.854 320.779C390.545 317.266 391.22 313.75 392.033 310.266C392.076 310.084 392.173 309.919 392.311 309.793C392.45 309.667 392.623 309.586 392.809 309.561L392.822 309.56C396.103 309.121 399.419 308.518 402.697 307.867L402.518 307.928C403.93 307.3 405.289 306.559 406.581 305.711C407.847 304.958 408.879 303.869 409.562 302.565C409.815 301.901 409.874 301.18 409.734 300.484C409.594 299.788 409.26 299.146 408.77 298.631C407.757 297.442 406.534 296.448 405.162 295.699L405.156 295.696C405.133 295.683 405.116 295.661 405.109 295.636C405.101 295.611 405.103 295.584 405.115 295.561C405.126 295.537 405.146 295.519 405.17 295.51C405.195 295.5 405.222 295.5 405.246 295.51ZM371.59 381.822L375.696 368.488L379.839 355.17L383.978 341.858C385.328 337.432 386.758 332.957 387.821 328.547L387.825 328.528C387.867 328.355 387.956 328.196 388.081 328.068C388.207 327.941 388.365 327.85 388.538 327.806C388.711 327.762 388.893 327.765 389.064 327.816C389.236 327.868 389.39 327.964 389.51 328.096L404.918 345.002C410.037 350.653 415.134 356.324 420.208 362.014C425.283 367.706 430.331 373.42 435.354 379.158L442.849 387.8C445.343 390.684 447.835 393.571 450.293 396.489C447.624 393.762 444.99 391.004 442.358 388.245L434.476 379.954C429.24 374.409 424.036 368.835 418.866 363.231C413.685 357.637 408.53 352.019 403.401 346.377L388.053 329.417L389.743 328.966C388.552 333.579 387.074 337.945 385.639 342.387C384.164 346.802 382.662 351.206 381.134 355.597C379.593 359.986 378.048 364.373 376.441 368.738C374.843 373.106 373.258 377.479 371.59 381.822Z" fill="#020202"/>
<path d="M365.234 382.089C366.272 381.875 367.324 381.739 368.382 381.68C369.447 381.649 370.513 381.69 371.572 381.801C373.715 382.006 375.811 382.55 377.783 383.412C378.776 383.843 379.737 384.343 380.659 384.908C381.569 385.5 382.438 386.152 383.261 386.86C386.592 389.744 388.965 393.572 390.064 397.836C390.617 399.968 390.84 402.172 390.725 404.371C390.636 406.579 390.193 408.758 389.412 410.825C388.663 412.906 387.594 414.858 386.243 416.611C383.554 420.141 379.854 422.771 375.634 424.152C371.414 425.533 366.873 425.6 362.614 424.343C358.414 423.092 354.695 420.591 351.953 417.175C349.263 413.817 347.667 409.717 347.382 405.425C348.037 409.521 349.865 413.339 352.644 416.42C355.424 419.5 359.037 421.711 363.047 422.786C366.988 423.777 371.132 423.609 374.98 422.302C378.804 420.988 382.152 418.57 384.597 415.353C387.049 412.131 388.5 408.261 388.768 404.223C389.036 400.185 388.11 396.157 386.105 392.64C385.106 390.865 383.84 389.253 382.352 387.861C381.613 387.154 380.828 386.496 380.001 385.893C379.153 385.315 378.268 384.791 377.353 384.326C375.518 383.358 373.541 382.688 371.495 382.342C369.431 381.962 367.322 381.876 365.234 382.089Z" fill="#020202"/>
<path d="M465.409 419.791C474.274 419.753 481.428 412.265 481.388 403.067C481.349 393.868 474.13 386.443 465.266 386.481C456.401 386.519 449.247 394.007 449.287 403.205C449.326 412.403 456.545 419.829 465.409 419.791Z" fill="#020202"/>
<path d="M389.698 405.243C399.573 403.759 409.49 402.901 419.418 402.197C424.384 401.879 429.352 401.587 434.328 401.416C439.302 401.216 444.285 401.149 449.277 401.216C444.339 401.953 439.393 402.557 434.437 403.029C429.483 403.529 424.521 403.908 419.558 404.262C409.626 404.9 399.683 405.384 389.698 405.243ZM386.418 414.593C396.908 412.628 407.467 411.287 418.042 410.099C423.334 409.539 428.628 409.006 433.936 408.592C439.24 408.149 444.559 407.839 449.892 407.663C444.646 408.641 439.386 409.486 434.111 410.199C428.84 410.94 423.555 411.561 418.268 412.157C407.685 413.279 397.086 414.247 386.418 414.593ZM348.953 411.425C347.517 412.617 346.006 413.674 344.485 414.713C342.951 415.73 341.395 416.706 339.815 417.639C338.23 418.563 336.631 419.463 335.006 420.315C333.381 421.169 331.733 421.98 330.061 422.748L329.953 422.797C329.792 422.871 329.609 422.878 329.442 422.816C329.276 422.755 329.142 422.63 329.068 422.469L329.04 422.399C328.44 420.568 327.866 418.727 327.445 416.821C328.533 418.443 329.468 420.13 330.376 421.829L329.355 421.479C330.89 420.465 332.449 419.495 334.033 418.568C335.615 417.639 337.224 416.757 338.847 415.9C340.476 415.055 342.127 414.25 343.799 413.482C345.485 412.739 347.182 412.015 348.953 411.425ZM374.067 423.613L384.56 445.991L377.6 448.009L379.398 454.465L401.264 453.128L401.232 445.67L391.024 444.72L381.213 420.152L374.067 423.613ZM332.355 380.173C332.941 382.052 333.147 384.028 332.963 385.987C332.778 387.945 332.205 389.848 331.278 391.584C330.313 393.334 329.052 394.904 327.551 396.225C326.055 397.536 324.403 398.657 322.631 399.563L323.079 398.726C323.142 398.942 323.235 399.148 323.355 399.339C323.494 399.557 323.66 399.757 323.849 399.933C324.261 400.298 324.741 400.578 325.261 400.758C326.421 401.124 327.643 401.256 328.854 401.147C330.133 401.051 331.4 400.846 332.643 400.533C333.914 400.233 335.167 399.867 336.399 399.434C338.881 398.579 341.309 397.527 343.717 396.425C346.123 395.31 348.497 394.114 350.787 392.813C353.084 391.555 355.258 390.083 357.28 388.419C359.222 386.766 361.073 384.776 361.553 382.412C361.788 381.23 361.573 380.003 360.95 378.97C360.184 377.857 359.513 376.681 358.942 375.456C358.375 374.216 357.955 372.914 357.692 371.575C357.468 370.246 357.376 368.897 357.418 367.549L357.682 369.538C357.791 370.191 357.934 370.838 358.111 371.476C358.476 372.741 358.988 373.96 359.638 375.105C360.31 376.249 361.06 377.346 361.884 378.386C362.731 379.626 363.089 381.134 362.89 382.621C362.66 384.061 362.085 385.425 361.216 386.596C360.4 387.733 359.465 388.779 358.427 389.717C356.368 391.521 354.14 393.124 351.774 394.503C349.438 395.899 347.024 397.112 344.587 398.277C342.139 399.455 339.621 400.482 337.048 401.353C334.44 402.294 331.711 402.862 328.944 403.04C327.477 403.128 326.008 402.919 324.624 402.428C323.839 402.168 323.135 401.71 322.58 401.098C322.025 400.486 321.637 399.741 321.456 398.935C321.425 398.771 321.448 398.602 321.524 398.453C321.599 398.304 321.722 398.185 321.873 398.113L321.904 398.098C325.345 396.612 328.288 394.172 330.383 391.066C331.394 389.48 332.083 387.712 332.41 385.861C332.748 383.978 332.729 382.049 332.355 380.173Z" fill="#020202"/>
<path d="M322.807 397.833C322.807 397.833 291.372 412.826 297.633 418.837C303.894 424.848 314.673 426.253 337.655 411.656C337.655 411.656 349.318 402.69 351.819 405.559C354.32 408.428 353.283 410.219 353.283 410.219C353.283 410.219 371.823 408.899 369.077 399.922C369.077 399.922 366.459 381.505 362.132 380.327C362.132 380.327 365.499 386.727 346.517 396.213C327.536 405.7 324.343 401.37 322.807 397.833ZM511.08 317.985L488.347 318.246L465.369 318.418C457.695 318.497 449.976 318.506 442.253 318.491L419.081 318.46C418.948 318.46 418.818 318.434 418.695 318.383C418.573 318.332 418.462 318.258 418.369 318.164C418.275 318.071 418.201 317.96 418.151 317.837C418.1 317.715 418.074 317.584 418.075 317.452V317.443L418.087 311.229C418.087 311.093 418.114 310.959 418.166 310.834C418.218 310.709 418.295 310.596 418.391 310.5C418.487 310.405 418.6 310.329 418.726 310.277C418.851 310.226 418.985 310.199 419.121 310.2L419.129 310.2L442.127 310.42L465.124 310.67L488.121 311.071C495.787 311.2 503.452 311.434 511.117 311.612L511.124 311.612C511.165 311.613 511.204 311.63 511.232 311.66C511.261 311.69 511.276 311.729 511.275 311.77V311.772L511.08 317.985ZM511.08 317.985L510.957 311.77L511.115 311.929C503.448 312.018 495.781 312.162 488.114 312.202L465.115 312.335L442.116 312.317L419.117 312.269L420.158 311.24L420.098 317.455L419.093 316.438L441.917 316.675C449.527 316.75 457.139 316.848 464.797 317.016L487.817 317.456L511.08 317.985Z" fill="#020202"/>
<path d="M428.803 317.506C431.307 323.409 433.704 329.353 436.085 335.304C438.469 341.253 440.765 347.236 443.109 353.2C445.376 359.195 447.683 365.173 449.91 371.183C452.136 377.193 454.347 383.209 456.449 389.266C453.945 383.363 451.548 377.419 449.166 371.469C446.785 365.519 444.485 359.537 442.143 353.572C439.879 347.576 437.568 341.599 435.344 335.589C433.118 329.579 430.907 323.563 428.803 317.506ZM496.18 318.05C494.478 324.002 492.667 329.919 490.839 335.83C489.014 341.743 487.1 347.627 485.235 353.526C483.29 359.4 481.388 365.287 479.403 371.148C477.417 377.009 475.416 382.864 473.305 388.684C475.006 382.732 476.817 376.815 478.644 370.903C480.472 364.991 482.382 359.106 484.25 353.208C486.197 347.335 488.096 341.446 490.084 335.586C492.069 329.726 494.071 323.87 496.18 318.05ZM478.006 392.921C482.473 391.825 486.962 390.84 491.454 389.872C495.946 388.901 500.456 388.022 504.956 387.093C509.472 386.246 513.98 385.355 518.504 384.549C523.029 383.744 527.556 382.955 532.106 382.279C527.639 383.377 523.15 384.362 518.658 385.33C514.166 386.298 509.657 387.181 505.156 388.108C500.64 388.952 496.133 389.847 491.608 390.65C487.084 391.455 482.556 392.244 478.006 392.921Z" fill="#020202"/>
<path d="M220.304 411.979C228.041 411.979 234.313 405.714 234.313 397.985C234.313 390.257 228.041 383.992 220.304 383.992C212.567 383.992 206.295 390.257 206.295 397.985C206.295 405.714 212.567 411.979 220.304 411.979Z" fill="#020202"/>
<path d="M256.525 270.894C255.905 272.222 255.731 273.715 256.031 275.149C256.22 275.825 256.59 276.438 257.101 276.92C257.611 277.403 258.244 277.738 258.93 277.889C259.607 278.047 260.311 278.052 260.99 277.904C261.676 277.74 262.33 277.463 262.925 277.084C264.262 276.35 265.703 275.827 267.199 275.531C267.966 275.387 268.748 275.34 269.527 275.393C269.922 275.418 270.315 275.474 270.701 275.559C270.897 275.596 271.09 275.645 271.28 275.708L271.566 275.796L271.637 275.819L271.673 275.83C271.856 275.915 271.744 275.866 271.794 275.89L271.935 275.977C272.502 276.336 272.959 276.844 273.255 277.446C273.551 278.048 273.674 278.72 273.612 279.388C273.564 279.813 273.455 280.228 273.288 280.622L270.165 288.892C265.973 299.909 261.636 310.869 257.152 321.772C252.652 332.667 248.058 343.526 243.174 354.263C240.74 359.634 238.213 364.964 235.592 370.252C234.242 372.877 232.897 375.504 231.451 378.079C230.075 380.694 228.468 383.181 226.648 385.51C227.502 384.311 228.269 383.053 228.944 381.745C229.661 380.463 230.311 379.142 230.964 377.825C232.267 375.188 233.468 372.5 234.673 369.817C237.081 364.447 239.39 359.032 241.692 353.614C246.265 342.765 250.779 331.889 255.235 320.986L268.666 288.3L272.029 280.129C272.165 279.85 272.26 279.553 272.308 279.246C272.347 278.959 272.332 278.666 272.263 278.384C272.124 277.808 271.776 277.304 271.286 276.968L271.194 276.905C271.224 276.919 271.094 276.854 271.255 276.931L271.226 276.921L271.166 276.9L270.927 276.817C270.768 276.756 270.606 276.708 270.44 276.672C270.11 276.585 269.773 276.524 269.434 276.49C268.741 276.419 268.043 276.433 267.354 276.529C265.939 276.735 264.563 277.156 263.276 277.778C262.609 278.179 261.867 278.443 261.096 278.552C260.325 278.662 259.54 278.616 258.787 278.417C258.035 278.211 257.353 277.805 256.814 277.242C256.275 276.679 255.9 275.98 255.728 275.22C255.516 273.73 255.796 272.211 256.525 270.894ZM231.901 390.134C234.183 385.994 236.427 381.843 238.547 377.627C240.705 373.433 242.79 369.204 244.838 364.96C246.845 360.696 248.863 356.439 250.749 352.123L253.564 345.646L254.922 342.387C255.163 341.831 255.342 341.328 255.634 340.729L256.056 339.857L256.568 339.033C258.029 336.87 260.171 335.256 262.655 334.447C263.888 334.054 265.177 333.859 266.471 333.869C267.766 333.902 269.047 334.144 270.265 334.584C271.43 335.061 272.533 335.676 273.55 336.417L276.482 338.407L282.333 342.407C290.132 347.744 297.857 353.192 305.508 358.752C297.411 353.864 289.387 348.864 281.438 343.754L275.477 339.919L272.504 337.99C271.6 337.353 270.622 336.828 269.591 336.427C268.576 336.085 267.515 335.896 266.444 335.869C265.372 335.87 264.307 336.039 263.288 336.369C261.244 337.052 259.486 338.394 258.291 340.184L257.862 340.86L257.511 341.58C257.275 342.038 257.046 342.646 256.814 343.171L255.426 346.441C254.476 348.61 253.532 350.782 252.533 352.928C250.535 357.221 248.468 361.481 246.281 365.679C241.95 374.093 237.149 382.257 231.901 390.134Z" fill="#020202"/>
<path d="M273.679 269.289L273.852 271.712L273.76 271.567L275.82 272.445C276.54 272.719 277.231 273.064 277.881 273.476C279.21 274.396 280.186 275.739 280.651 277.286C281.121 278.869 281.045 280.565 280.435 282.101L278.781 286.254L275.387 294.526C274.774 295.809 274.302 297.155 273.98 298.539C273.717 299.891 273.674 301.276 273.854 302.641C274.22 305.396 275.493 307.952 277.472 309.905C277.969 310.39 278.5 310.839 279.061 311.248L280.881 312.547L284.504 315.172C289.332 318.674 294.09 322.277 298.778 325.983C293.648 322.918 288.589 319.749 283.602 316.476L279.862 314.021L278.002 312.78C277.343 312.332 276.718 311.836 276.131 311.298C273.777 309.078 272.253 306.121 271.811 302.918C271.59 301.325 271.648 299.706 271.983 298.133C272.143 297.347 272.373 296.578 272.671 295.833C272.956 295.067 273.262 294.444 273.557 293.742L277.212 285.583L279.081 281.521C279.648 280.29 279.801 278.909 279.518 277.584C279.204 276.227 278.467 275.004 277.413 274.092C276.841 273.648 276.227 273.262 275.579 272.939L273.618 271.859L273.601 271.85C273.577 271.837 273.557 271.817 273.544 271.793C273.53 271.769 273.524 271.741 273.526 271.714L273.679 269.289ZM303.152 347.774C299.762 345.678 296.447 343.475 293.093 341.328C289.767 339.143 286.452 336.939 283.15 334.719C276.541 330.284 270 325.752 263.474 321.199C263.3 321.077 263.168 320.905 263.096 320.705C263.023 320.505 263.014 320.289 263.07 320.084L264.806 313.743L264.807 313.738C264.842 313.61 264.902 313.49 264.983 313.385C265.065 313.281 265.166 313.193 265.281 313.127C265.397 313.061 265.524 313.019 265.656 313.002C265.787 312.986 265.921 312.995 266.049 313.03C266.152 313.059 266.25 313.103 266.339 313.161C272.192 317.019 278.004 320.938 283.775 324.919C286.664 326.906 289.539 328.911 292.402 330.936C295.253 332.98 298.129 334.986 300.947 337.079C297.905 335.327 294.92 333.487 291.91 331.686C288.908 329.872 285.923 328.032 282.955 326.167C277.012 322.446 271.103 318.674 265.227 314.852L266.761 314.27L265.067 320.622L264.663 319.508C271.165 324.095 277.652 328.703 284.071 333.408C287.288 335.75 290.488 338.117 293.669 340.509C296.829 342.933 300.028 345.3 303.152 347.774ZM291.89 397.668C291.869 407.367 290.122 416.984 286.73 426.072C283.341 435.192 278.291 443.606 271.835 450.89C265.341 458.25 257.423 464.223 248.559 468.448C239.578 472.683 229.795 474.955 219.864 475.113C209.934 475.271 200.084 473.31 190.973 469.361C181.819 465.403 173.556 459.645 166.676 452.43C159.781 445.209 154.328 436.74 150.612 427.476C144.995 413.441 143.394 398.123 145.988 383.232C148.582 368.341 155.269 354.463 165.303 343.149C172.133 335.618 180.42 329.547 189.664 325.305C194.304 323.215 199.156 321.628 204.135 320.571C214.1 318.448 224.409 318.521 234.343 320.788C239.267 321.92 244.054 323.583 248.619 325.748C257.636 330.108 265.672 336.254 272.237 343.813C278.678 351.263 283.682 359.84 286.993 369.111C288.646 373.688 289.884 378.404 290.693 383.202C291.528 387.978 291.929 392.82 291.89 397.668ZM291.164 397.671C291.072 392.88 290.545 388.106 289.591 383.41C288.609 378.735 287.178 374.166 285.316 369.767C281.598 361.032 276.192 353.115 269.407 346.47C262.815 339.95 254.99 334.807 246.386 331.341C237.783 327.876 228.575 326.156 219.3 326.284C210.135 326.458 201.099 328.472 192.729 332.206C184.36 335.94 176.828 341.318 170.581 348.019C164.23 354.721 159.221 362.575 155.826 371.158C148.957 388.623 148.845 408.018 155.513 425.561C158.829 434.298 163.785 442.322 170.114 449.202C176.454 456.105 184.119 461.664 192.654 465.546C201.263 469.39 210.575 471.413 220.004 471.487C229.433 471.561 238.776 469.685 247.444 465.976C256.202 462.21 264.114 456.729 270.715 449.857C277.362 442.929 282.578 434.761 286.066 425.819C287.803 421.344 289.108 416.714 289.963 411.991C290.795 407.263 291.197 402.471 291.164 397.671ZM535.02 396.623C534.998 406.322 533.251 415.939 529.86 425.027C526.47 434.147 521.42 442.561 514.965 449.845C508.47 457.205 500.553 463.177 491.688 467.402C482.707 471.638 472.924 473.91 462.994 474.068C453.063 474.225 443.213 472.265 434.102 468.316C424.948 464.358 416.685 458.6 409.806 451.385C402.91 444.164 397.458 435.695 393.742 426.431C388.124 412.396 386.523 397.078 389.117 382.187C391.712 367.296 398.399 353.418 408.432 342.104C415.262 334.572 423.549 328.502 432.793 324.26C437.434 322.17 442.285 320.583 447.264 319.526C457.23 317.402 467.539 317.476 477.472 319.743C482.397 320.875 487.183 322.538 491.748 324.703C500.766 329.063 508.801 335.209 515.366 342.768C521.808 350.218 526.812 358.795 530.123 368.066C531.776 372.643 533.014 377.359 533.823 382.157C534.658 386.933 535.058 391.775 535.02 396.623ZM534.294 396.626C534.201 391.835 533.675 387.061 532.721 382.365C531.739 377.69 530.307 373.121 528.445 368.722C524.727 359.987 519.321 352.07 512.536 345.425C505.945 338.905 498.119 333.762 489.516 330.296C480.913 326.83 471.705 325.111 462.429 325.239C453.264 325.413 444.228 327.427 435.859 331.161C427.489 334.895 419.957 340.273 413.711 346.974C407.36 353.676 402.351 361.53 398.955 370.113C392.086 387.578 391.975 406.973 398.642 424.516C401.959 433.253 406.915 441.277 413.244 448.157C419.583 455.06 427.249 460.618 435.784 464.501C444.392 468.345 453.704 470.368 463.133 470.442C472.563 470.516 481.906 468.64 490.574 464.931C499.331 461.165 507.244 455.684 513.845 448.812C520.492 441.884 525.708 433.715 529.195 424.774C530.933 420.299 532.238 415.668 533.093 410.945C533.925 406.218 534.327 401.426 534.294 396.626ZM345.441 167.062L346.941 168.23L346.913 168.212C349.173 169.232 351.222 170.664 352.958 172.433C353.808 173.346 354.556 174.349 355.19 175.424C355.807 176.514 356.297 177.671 356.652 178.872C357.341 181.284 357.557 183.806 357.285 186.3C357.051 188.797 356.453 191.246 355.511 193.57L355.512 193.064C357.414 197.011 359.737 200.741 362.44 204.191C365.123 207.667 368.046 210.951 371.189 214.019C377.54 220.126 384.368 225.718 391.608 230.74C406.134 240.821 421.389 249.811 437.247 257.636C445.172 261.575 453.208 265.286 461.353 268.77C469.512 272.209 477.725 275.52 486.039 278.569C488.101 279.341 490.224 280.091 492.246 280.904C492.638 281.112 493.091 281.179 493.527 281.093C493.964 281.006 494.357 280.772 494.64 280.429C495.156 279.571 495.435 278.591 495.449 277.59C495.506 276.545 495.402 275.498 495.141 274.485C495.011 273.977 494.847 273.478 494.651 272.991L493.979 271.481L491.277 265.43L488.586 259.378C487.583 257.267 487.008 254.979 486.892 252.646C486.869 250.185 487.807 247.811 489.507 246.03C490.333 245.16 491.29 244.425 492.343 243.85C493.384 243.257 494.499 242.804 495.658 242.501L495.878 244.354C489.127 244.336 482.389 243.751 475.737 242.605C469.059 241.492 462.526 239.645 456.256 237.095L453.917 236.088C453.144 235.736 452.403 235.312 451.645 234.927L449.384 233.744L447.224 232.371C446.509 231.906 445.779 231.463 445.078 230.978L443.066 229.383C441.696 228.324 440.435 227.247 439.183 226.169C434.117 221.879 428.841 217.786 423.531 213.748C412.957 205.604 402.173 197.717 391.393 189.825L358.952 166.275C358.941 166.267 358.931 166.257 358.924 166.246C358.917 166.234 358.912 166.221 358.91 166.208C358.907 166.195 358.908 166.181 358.911 166.167C358.914 166.154 358.92 166.142 358.927 166.131C358.943 166.109 358.967 166.094 358.993 166.089C359.02 166.084 359.047 166.09 359.07 166.105L375.711 177.29L392.214 188.68C403.182 196.323 414.037 204.132 424.779 212.106C430.127 216.127 435.421 220.219 440.569 224.545C441.852 225.643 443.135 226.731 444.415 227.708L446.333 229.222C447.005 229.684 447.709 230.104 448.394 230.548L450.467 231.858L452.651 232.99C453.383 233.359 454.096 233.766 454.844 234.104L457.112 235.071C469.256 240.154 482.671 242.26 495.843 242.479C496.07 242.483 496.288 242.569 496.457 242.72C496.626 242.872 496.735 243.079 496.763 243.305C496.791 243.53 496.736 243.757 496.61 243.946C496.483 244.134 496.293 244.27 496.073 244.33L496.063 244.332C494.078 244.827 492.261 245.84 490.798 247.267C489.381 248.704 488.586 250.64 488.584 252.657C488.671 254.754 489.165 256.815 490.04 258.724L492.629 264.853L495.207 270.986L495.85 272.522C496.055 273.067 496.225 273.625 496.356 274.193C496.623 275.333 496.713 276.507 496.623 277.674C496.574 278.896 496.192 280.081 495.518 281.102C495.311 281.38 495.052 281.614 494.754 281.792C494.456 281.97 494.127 282.087 493.784 282.137C493.144 282.208 492.496 282.122 491.897 281.886C489.823 281.009 487.783 280.244 485.712 279.423C477.47 276.163 469.233 272.884 461.102 269.357C452.951 265.876 444.859 262.255 436.858 258.432C420.843 250.847 405.105 242.482 390.545 232.242C383.233 227.148 376.367 221.445 370.02 215.192C363.731 208.901 358.072 201.775 354.401 193.569C354.366 193.491 354.348 193.406 354.347 193.321C354.347 193.235 354.364 193.151 354.398 193.072L354.402 193.063C355.341 190.872 355.958 188.557 356.234 186.19C356.54 183.821 356.407 181.416 355.841 179.096C355.543 177.942 355.115 176.826 354.565 175.768C353.993 174.718 353.309 173.732 352.525 172.828C350.883 171.05 348.939 169.577 346.783 168.476L346.777 168.473L346.755 168.458L345.31 167.223C345.29 167.205 345.277 167.18 345.274 167.153C345.272 167.126 345.28 167.1 345.297 167.079C345.314 167.058 345.339 167.044 345.366 167.041C345.393 167.038 345.42 167.046 345.441 167.062ZM310.936 142.821C311.339 142.807 311.721 142.637 312.001 142.347C312.281 142.057 312.438 141.67 312.438 141.267C312.438 140.864 312.281 140.477 312.001 140.187C311.721 139.897 311.339 139.727 310.936 139.713C310.532 139.727 310.15 139.897 309.87 140.187C309.59 140.477 309.433 140.864 309.433 141.267C309.433 141.67 309.59 142.057 309.87 142.347C310.15 142.637 310.532 142.807 310.936 142.821ZM306.041 148.066C306.242 148.059 306.433 147.974 306.574 147.83C306.714 147.685 306.792 147.491 306.792 147.289C306.792 147.088 306.714 146.894 306.574 146.749C306.433 146.604 306.242 146.52 306.041 146.513C305.839 146.52 305.648 146.604 305.508 146.749C305.368 146.894 305.289 147.088 305.289 147.289C305.289 147.491 305.368 147.685 305.508 147.83C305.648 147.974 305.839 148.059 306.041 148.066ZM307.785 138.3C308.148 137.948 308.582 137.676 309.058 137.503C309.526 137.319 310.02 137.21 310.522 137.177C311.036 137.148 311.552 137.216 312.042 137.375C312.542 137.537 312.978 137.853 313.287 138.277C312.766 138.215 312.33 138.183 311.891 138.169C311.451 138.173 311.02 138.181 310.58 138.21C309.651 138.289 308.717 138.319 307.785 138.3ZM308.362 153.546C308.926 153.339 309.435 153.141 309.938 152.936C310.435 152.722 310.926 152.523 311.398 152.278C311.874 152.044 312.348 151.801 312.821 151.532C313.303 151.273 313.771 150.981 314.323 150.724C313.817 151.816 312.942 152.696 311.852 153.208C311.312 153.47 310.732 153.642 310.137 153.717C309.54 153.808 308.93 153.749 308.362 153.546ZM458.83 197.97C482.716 196.329 506.622 195.316 530.535 194.456C542.492 194.061 554.45 193.692 566.412 193.444C578.374 193.166 590.34 193.022 602.31 193.012C590.368 193.827 578.42 194.51 566.468 195.059C554.517 195.637 542.562 196.094 530.606 196.525C506.692 197.318 482.772 197.957 458.83 197.97ZM525.646 216.006C535.487 214.903 545.347 214.427 555.211 214.104C560.144 213.977 565.079 213.877 570.016 213.897C574.953 213.888 579.893 214.012 584.838 214.271C579.917 214.818 574.992 215.232 570.063 215.513C565.136 215.822 560.204 216.011 555.272 216.173C545.406 216.429 535.535 216.531 525.646 216.006ZM488.532 171.051C498.911 170.142 509.295 169.86 519.682 169.732C524.875 169.702 530.069 169.699 535.263 169.817C540.458 169.904 545.654 170.126 550.85 170.483C545.661 170.933 540.47 171.249 535.278 171.433C530.086 171.645 524.894 171.736 519.701 171.802C509.314 171.863 498.926 171.771 488.532 171.051Z" fill="#020202"/>
<path d="M308.099 370.475C308.109 370.485 308.109 370.485 308.109 370.495H308.099V370.475ZM367.036 345.595C367.026 345.606 367.026 345.627 367.015 345.637L366.995 345.575L367.036 345.595Z" fill="white"/>
<path d="M485.648 247.805C486.051 247.789 486.433 247.618 486.712 247.327C486.991 247.036 487.146 246.648 487.144 246.245C487.142 245.842 486.984 245.455 486.702 245.167C486.421 244.878 486.038 244.71 485.635 244.698C485.232 244.713 484.851 244.885 484.572 245.176C484.293 245.467 484.138 245.855 484.139 246.258C484.141 246.661 484.299 247.047 484.581 247.336C484.862 247.625 485.245 247.793 485.648 247.805ZM483.938 255.146C484.341 255.13 484.722 254.959 485.001 254.667C485.28 254.376 485.435 253.989 485.434 253.586C485.432 253.183 485.274 252.796 484.992 252.507C484.711 252.219 484.328 252.051 483.925 252.038C483.521 252.054 483.14 252.226 482.861 252.517C482.582 252.808 482.427 253.196 482.429 253.598C482.431 254.001 482.589 254.388 482.871 254.677C483.152 254.965 483.535 255.133 483.938 255.146ZM486.208 262.221C486.611 262.205 486.993 262.033 487.272 261.742C487.551 261.451 487.706 261.064 487.704 260.661C487.702 260.258 487.544 259.871 487.262 259.582C486.981 259.294 486.598 259.126 486.195 259.113C485.792 259.129 485.41 259.3 485.131 259.592C484.852 259.883 484.697 260.27 484.699 260.673C484.701 261.076 484.859 261.463 485.141 261.752C485.422 262.04 485.805 262.208 486.208 262.221ZM490.349 270.282C490.752 270.266 491.134 270.095 491.413 269.804C491.692 269.513 491.847 269.125 491.845 268.722C491.843 268.319 491.685 267.932 491.403 267.644C491.122 267.355 490.739 267.187 490.336 267.175C489.933 267.19 489.551 267.362 489.272 267.653C488.993 267.944 488.838 268.332 488.84 268.735C488.842 269.138 489 269.524 489.282 269.813C489.563 270.102 489.946 270.27 490.349 270.282ZM491.879 278.727C492.282 278.712 492.663 278.54 492.942 278.249C493.221 277.958 493.376 277.57 493.374 277.167C493.373 276.764 493.214 276.378 492.933 276.089C492.651 275.8 492.268 275.632 491.865 275.62C491.462 275.636 491.081 275.807 490.802 276.098C490.523 276.389 490.368 276.777 490.37 277.18C490.371 277.583 490.53 277.97 490.811 278.258C491.093 278.547 491.475 278.715 491.879 278.727Z" fill="#020202"/>
<path d="M486.768 279.342C484.911 276.566 483.317 273.623 482.007 270.551C480.643 267.478 479.586 264.277 478.849 260.997C478.499 259.328 478.277 257.635 478.185 255.932L478.16 254.641C478.162 254.211 478.218 253.773 478.246 253.34C478.306 252.488 478.428 251.641 478.61 250.806C478.921 249.126 479.439 247.49 480.153 245.937C480.52 245.149 481.01 244.423 481.605 243.788C481.88 243.451 482.229 243.181 482.624 242.999C483.019 242.816 483.451 242.725 483.886 242.734C483.497 242.826 483.132 243 482.816 243.244C482.499 243.489 482.239 243.797 482.051 244.15C481.63 244.823 481.308 245.553 481.097 246.319C480.655 247.865 480.357 249.449 480.209 251.05C480.147 251.859 480.052 252.671 480.06 253.448C480.059 253.842 480.028 254.23 480.05 254.625L480.145 255.813C480.28 257.412 480.524 258.999 480.876 260.565C481.583 263.748 482.464 266.891 483.513 269.978C484.546 273.096 485.655 276.2 486.768 279.342ZM352.924 173.067C352.458 172.59 352.012 172.156 351.566 171.751C352.062 172.143 352.517 172.584 352.924 173.067ZM353.526 173.678C355.558 175.977 356.695 178.929 356.73 181.995C356.428 178.733 355.124 175.643 352.997 173.15C353.173 173.315 353.349 173.492 353.526 173.678Z" fill="#020202"/>
<path d="M354.957 193.316C356.225 189.68 356.825 185.845 356.73 181.996C357.059 185.857 356.451 189.74 354.957 193.316Z" fill="#020202"/>
<path d="M385.389 227.341C383.761 226.13 382.216 224.907 380.743 223.695C380.453 223.457 380.152 223.219 379.872 222.981C379.779 222.898 379.686 222.825 379.603 222.753C363.355 209.102 356.625 196.703 355.236 193.907C355.049 193.524 354.956 193.317 354.956 193.317C354.385 194.477 353.753 195.595 353.151 196.735L351.254 200.101C349.989 202.338 348.651 204.534 347.314 206.73C345.955 208.915 344.597 211.101 343.166 213.245C341.756 215.389 340.315 217.522 338.79 219.604C339.879 222.438 341.792 224.882 344.283 226.621C346.774 228.36 349.729 229.314 352.768 229.361C354.236 229.088 355.723 228.928 357.216 228.885L359.404 228.76C360.13 228.749 360.849 228.612 361.53 228.356C361.028 228.973 360.328 229.398 359.549 229.558C358.806 229.754 358.045 229.876 357.278 229.92C355.753 230.009 354.225 229.82 352.768 229.361L359.02 236.042C359.041 236.041 359.062 236.037 359.083 236.031C360.285 235.804 379.706 232.096 385.876 227.714C385.71 227.59 385.555 227.476 385.389 227.341ZM346.432 206.191C347.791 204.006 349.149 201.82 350.57 199.676L352.716 196.465C353.463 195.419 354.178 194.352 354.956 193.317C354.966 193.296 354.966 193.285 354.976 193.265V193.244C354.987 193.234 354.987 193.234 354.987 193.223C355.028 193.089 355.07 192.954 355.111 192.819C355.205 192.529 355.288 192.239 355.37 191.939C355.526 191.431 355.661 190.924 355.785 190.416C355.847 190.178 355.899 189.95 355.961 189.712C356.076 189.173 356.19 188.645 356.283 188.117C356.335 187.848 356.376 187.578 356.418 187.309C356.449 187.169 356.469 187.027 356.48 186.884C356.499 186.803 356.513 186.72 356.521 186.636C356.542 186.46 356.563 186.284 356.584 186.097C356.594 185.973 356.615 185.838 356.625 185.714C356.635 185.641 356.635 185.579 356.646 185.507C356.677 185.217 356.698 184.937 356.708 184.657C356.718 184.502 356.729 184.347 356.729 184.191C356.75 183.85 356.76 183.518 356.76 183.187C356.76 182.814 356.75 182.431 356.729 182.058C356.734 182.027 356.734 181.995 356.729 181.965C356.73 181.943 356.727 181.922 356.718 181.902C356.72 181.868 356.717 181.833 356.708 181.799C356.71 181.726 356.706 181.653 356.698 181.581C356.687 181.374 356.667 181.177 356.646 180.97C356.635 180.908 356.635 180.846 356.625 180.784C356.604 180.597 356.573 180.411 356.542 180.224C356.542 180.204 356.532 180.183 356.532 180.162C356.521 180.1 356.511 180.028 356.501 179.965C356.49 179.903 356.48 179.852 356.47 179.8C356.47 179.789 356.47 179.789 356.459 179.779C356.438 179.603 356.397 179.448 356.366 179.282C356.355 179.251 356.355 179.209 356.345 179.178C356.326 179.084 356.302 178.99 356.273 178.899C356.2 178.588 356.117 178.288 356.024 177.997C355.981 177.843 355.929 177.69 355.868 177.542C355.836 177.439 355.798 177.339 355.754 177.241C355.723 177.148 355.681 177.055 355.64 176.962C355.567 176.786 355.495 176.62 355.412 176.465C355.402 176.444 355.402 176.423 355.391 176.402V176.392C355.378 176.38 355.368 176.366 355.36 176.351C355.335 176.282 355.304 176.216 355.267 176.154C355.236 176.081 355.194 176.019 355.163 175.957C355.153 175.917 355.131 175.881 355.101 175.853C355.059 175.771 355.008 175.688 354.966 175.605C354.894 175.481 354.811 175.346 354.728 175.222C354.612 175.027 354.484 174.84 354.344 174.662C354.309 174.606 354.267 174.553 354.219 174.507L354.188 174.476C354.172 174.453 354.158 174.429 354.147 174.403C354.146 174.403 354.144 174.403 354.143 174.403C354.142 174.402 354.14 174.401 354.14 174.4C354.139 174.399 354.138 174.398 354.137 174.397C354.137 174.396 354.137 174.394 354.137 174.393C354.129 174.372 354.114 174.353 354.095 174.341C354.033 174.258 353.971 174.175 353.898 174.093C353.774 173.948 353.649 173.813 353.525 173.678C353.348 173.492 353.172 173.316 352.996 173.15C352.986 173.129 352.986 173.119 352.975 173.119C352.955 173.098 352.944 173.077 352.923 173.067C352.905 173.035 352.88 173.007 352.851 172.984L352.84 172.974C352.726 172.86 352.623 172.767 352.519 172.663C352.353 172.487 352.177 172.332 352.011 172.166C351.909 172.075 351.812 171.978 351.721 171.876L351.689 171.845C351.648 171.814 351.617 171.783 351.596 171.772C351.586 171.762 351.565 171.752 351.555 171.741C350.251 170.501 348.798 169.426 347.231 168.541C347.106 168.468 346.982 168.406 346.847 168.344C341.497 165.662 337.888 168.313 331.854 168.81C323.641 169.473 309.146 203.881 309.146 203.881C309.425 204.192 309.705 204.503 309.985 204.803C318.187 213.586 328.784 217.294 334.56 218.755C335.953 219.117 337.365 219.401 338.79 219.604C339.952 217.305 341.217 215.057 342.492 212.82C343.757 210.583 345.095 208.387 346.432 206.191ZM327.685 204.316C330.257 205.7 332.734 207.254 335.099 208.967C329.674 206.784 324.526 203.968 319.763 200.577C322.483 201.649 325.129 202.898 327.685 204.316ZM314.371 204.42C313.968 204.407 313.586 204.238 313.305 203.949C313.024 203.661 312.867 203.274 312.865 202.871C312.864 202.468 313.019 202.081 313.298 201.79C313.577 201.499 313.958 201.328 314.361 201.313C314.764 201.326 315.146 201.494 315.427 201.783C315.708 202.072 315.866 202.458 315.867 202.861C315.869 203.264 315.714 203.652 315.434 203.942C315.155 204.233 314.774 204.404 314.371 204.42ZM320.614 208.615C320.209 208.604 319.825 208.436 319.542 208.147C319.26 207.858 319.101 207.47 319.1 207.066C319.098 206.662 319.255 206.273 319.535 205.982C319.816 205.691 320.199 205.521 320.603 205.508C321.008 205.518 321.392 205.686 321.674 205.975C321.957 206.264 322.116 206.652 322.117 207.056C322.119 207.46 321.962 207.849 321.682 208.14C321.401 208.431 321.018 208.601 320.614 208.615ZM328.09 212.312C327.687 212.299 327.304 212.131 327.024 211.842C326.743 211.553 326.585 211.166 326.584 210.764C326.582 210.361 326.737 209.974 327.016 209.683C327.295 209.392 327.676 209.221 328.079 209.205C328.482 209.218 328.864 209.387 329.145 209.676C329.426 209.965 329.584 210.351 329.585 210.754C329.587 211.156 329.432 211.544 329.153 211.835C328.874 212.125 328.492 212.297 328.09 212.312ZM334.819 215.016C334.416 215.003 334.034 214.834 333.753 214.545C333.472 214.256 333.314 213.87 333.313 213.467C333.312 213.064 333.467 212.677 333.746 212.386C334.025 212.095 334.406 211.924 334.809 211.908C335.212 211.921 335.594 212.09 335.875 212.379C336.156 212.668 336.313 213.054 336.315 213.457C336.316 213.86 336.161 214.247 335.882 214.538C335.603 214.829 335.222 215 334.819 215.016ZM403.875 197.934C399.975 195.099 368.448 172.76 368.448 172.76C371.487 171.057 373.914 168.444 375.386 165.289C381.81 171.702 385.627 173.943 403.875 197.934Z" fill="#020202"/>
</svg>
