<svg width="458" height="361" viewBox="0 0 458 361" fill="none" xmlns="http://www.w3.org/2000/svg">
<path d="M164.859 10.0962C163.533 12.1503 162.611 14.4375 162.14 16.836C161.911 18.0231 161.791 19.2287 161.782 20.4376C161.776 21.6427 161.887 22.8455 162.113 24.0291L162.024 23.8446C162.406 24.4197 162.6 25.0997 162.578 25.79C162.579 26.443 162.44 27.0886 162.17 27.6836C161.892 28.2453 161.539 28.7666 161.12 29.2332C160.757 29.6915 160.406 30.1572 160.074 30.6321C159.742 31.0977 159.44 31.5834 159.169 32.0864C159.042 32.3223 158.935 32.5683 158.849 32.8219C158.788 32.9732 158.771 33.1382 158.799 33.2986C159.122 33.6372 159.543 33.8679 160.002 33.9593C160.529 34.0874 161.071 34.1447 161.613 34.1295C161.747 34.126 161.878 34.1759 161.975 34.2682C162.073 34.3606 162.129 34.4879 162.133 34.6221L162.132 34.6675C162.102 35.1337 162.112 35.6017 162.162 36.0661C162.185 36.2767 162.23 36.4845 162.295 36.6862C162.325 36.7753 162.371 36.8583 162.431 36.9311L162.776 37.3176C162.889 37.8276 163.035 38.3297 163.214 38.8205C163.3 39.0559 163.403 39.2846 163.523 39.5047C163.616 39.6915 163.742 39.8598 163.896 40.0011L163.917 40.0171C163.931 40.0283 163.945 40.0412 163.956 40.0555C164.781 41.1474 165.17 42.5069 165.046 43.8692C165.013 44.1416 165.005 44.4166 165.025 44.6903C165.055 44.9248 165.14 45.1488 165.273 45.3444C165.583 45.7676 166.003 46.0983 166.488 46.3007C167.571 46.7275 168.726 46.9433 169.891 46.9364C171.09 46.9682 172.289 46.8909 173.473 46.7056C174.113 46.5778 174.771 46.5667 175.415 46.6729C176.04 46.8214 176.644 47.0468 177.213 47.3439C178.34 47.9213 179.326 48.7377 180.103 49.7359C181.564 51.7488 182.402 54.1461 182.51 56.6301C182.225 54.2155 181.266 51.9295 179.744 50.0323C178.966 49.1359 178.013 48.4087 176.942 47.8959C176.417 47.6459 175.865 47.4601 175.296 47.3424C174.727 47.271 174.15 47.3042 173.593 47.4404C171.12 48.0384 168.529 47.9334 166.113 47.1375C165.463 46.8703 164.901 46.428 164.488 45.8599C164.276 45.5499 164.138 45.1953 164.084 44.8235C164.052 44.4894 164.053 44.153 164.087 43.8192C164.174 42.7231 163.868 41.6318 163.223 40.7406L163.283 40.7948C163.019 40.5753 162.8 40.3057 162.64 40.0016C162.493 39.7398 162.366 39.4674 162.259 39.1867C162.049 38.6468 161.884 38.0907 161.765 37.524L162.109 37.91C161.921 37.8311 161.753 37.7107 161.619 37.5578C161.484 37.4049 161.385 37.2235 161.331 37.0273C161.242 36.7528 161.183 36.4698 161.154 36.1829C161.102 35.6522 161.097 35.1179 161.139 34.5863L161.658 35.1241C161.015 35.1376 160.374 35.0626 159.751 34.9014C159.043 34.7523 158.412 34.3541 157.973 33.7793C157.885 33.5844 157.838 33.3738 157.833 33.16C157.829 32.9463 157.868 32.7339 157.948 32.5356C158.054 32.23 158.186 31.934 158.342 31.6506C158.638 31.1154 158.967 30.5993 159.327 30.1052C159.678 29.6148 160.045 29.1406 160.422 28.6755C160.8 28.2666 161.123 27.8098 161.383 27.3168C161.62 26.8385 161.753 26.3149 161.771 25.7813C161.799 25.2828 161.695 24.7858 161.469 24.3404L161.425 24.2727C161.401 24.2373 161.386 24.1974 161.38 24.1556C160.991 21.6862 161.095 19.1643 161.687 16.7354C162.285 14.3313 163.364 12.0728 164.859 10.0962Z" fill="#020202"/>
<path d="M173.794 69.5322C174.48 67.7247 174.781 65.7943 174.679 63.8641C174.615 62.9493 174.342 62.0614 173.881 61.2687C173.435 60.5503 172.701 59.7677 172.157 58.9193C171.587 58.0584 171.144 57.1203 170.841 56.1338C170.548 55.1158 170.513 54.0412 170.738 53.0062C170.86 52.5118 171.029 52.0301 171.243 51.5677C171.411 51.1352 171.519 50.6815 171.562 50.2195C171.657 49.2534 171.594 48.2784 171.377 47.3322C171.794 48.2473 172.029 49.2346 172.07 50.2394C172.083 50.7599 172.022 51.2796 171.887 51.7826C171.731 52.2303 171.612 52.6903 171.533 53.1577C171.367 55.015 171.899 56.8675 173.025 58.3546C173.523 59.174 174.165 59.8247 174.734 60.7887C175.232 61.722 175.49 62.7642 175.484 63.8217C175.46 65.8446 174.875 67.8211 173.794 69.5322ZM164.129 9.21755C164.217 9.84662 164.937 10.1369 165.494 10.4642C166.097 10.7798 166.671 11.1476 167.21 11.5632C168.279 12.4248 169.16 13.4964 169.797 14.7115C170.383 15.9404 170.862 17.2173 171.229 18.528C171.654 19.8227 171.992 21.1442 172.241 22.4837C172.318 23.1215 172.447 23.752 172.626 24.369C172.877 24.9127 173.237 25.399 173.684 25.7974C174.685 26.6178 175.785 27.309 176.959 27.8548L178.745 28.7631L180.59 29.6138C181.258 30.0581 181.823 30.6402 182.246 31.321C182.67 32.0019 182.943 32.7656 183.046 33.5606C183.25 34.9552 183.314 36.3667 183.237 37.7741C183.222 38.4835 183.161 39.1912 183.053 39.8925C182.948 40.5999 182.758 41.3141 182.629 41.9142C182.504 42.4977 182.456 43.0951 182.488 43.691C182.51 44.3254 182.57 44.958 182.668 45.5853C182.853 46.7988 183.292 47.9595 183.958 48.9914C184.664 50.0172 185.589 50.8741 186.666 51.5009C187.743 52.1276 188.946 52.5086 190.187 52.6164C190.796 52.6863 191.412 52.6593 192.012 52.5365C192.633 52.3384 193.241 52.1026 193.833 51.8305C195.184 51.3585 196.63 51.2222 198.045 51.4334C199.399 51.7122 200.709 52.172 201.94 52.8003C203.134 53.3521 204.413 53.6982 205.723 53.8241C207.029 53.9161 208.338 53.7054 209.549 53.2085C210.798 52.7623 212.026 52.2119 213.257 51.6704C215.722 50.5871 218.18 49.4739 220.501 48.1756C221.65 47.5574 222.728 46.8137 223.713 45.9582C224.159 45.5649 224.525 45.0906 224.793 44.5605C224.9 44.3611 224.96 44.1398 224.968 43.9137C224.976 43.6876 224.932 43.4626 224.839 43.2562C224.447 42.8216 223.997 42.4429 223.502 42.1308L221.853 40.9588C220.756 40.1578 219.676 39.3327 218.614 38.4834C216.416 36.8385 214.362 35.0091 212.475 33.0151C211.562 31.9684 210.712 30.8677 209.931 29.7191C209.118 28.5442 208.451 27.2754 207.944 25.9404C207.42 24.5806 207.112 23.1476 207.031 21.693C206.982 20.2253 207.056 18.9955 206.89 17.7375L206.884 17.6219C206.882 17.6468 206.882 17.6718 206.885 17.6966L206.879 17.654L206.867 17.5598L206.836 17.364L206.768 16.9671L206.603 16.1684C206.477 15.6375 206.345 15.1062 206.181 14.5843C205.868 13.5398 205.475 12.5206 205.007 11.5353C204.138 9.58682 202.831 7.86463 201.187 6.5024C199.476 5.16953 197.532 4.16432 195.454 3.53749C193.328 2.86711 191.14 2.41011 188.923 2.17327C186.682 1.89163 184.423 1.7867 182.166 1.85946C179.9 1.95406 177.647 2.25386 175.434 2.75518C173.205 3.23229 171.036 3.95723 168.968 4.91647C167.931 5.38598 166.945 5.96164 166.027 6.63423C165.568 6.96381 165.147 7.34294 164.771 7.76472C164.379 8.14914 164.149 8.66903 164.129 9.21755ZM163.923 9.24216C163.926 8.63312 164.166 8.04923 164.593 7.6143C164.974 7.17327 165.402 6.77549 165.87 6.42817C166.798 5.73842 167.782 5.12768 168.812 4.60238C170.877 3.55956 173.032 2.70713 175.252 2.05568C179.73 0.73728 184.405 0.211944 189.065 0.503451C191.426 0.613472 193.766 0.993617 196.04 1.63643C198.388 2.26405 200.589 3.34855 202.517 4.82774C204.449 6.36441 205.99 8.33697 207.011 10.5835C207.525 11.6705 207.955 12.7947 208.299 13.9466C208.476 14.5189 208.621 15.1004 208.756 15.6846L208.937 16.5694L209.014 17.0193L209.049 17.2482L209.065 17.367L209.073 17.4308L209.088 17.6121L209.081 17.4969C209.179 18.8652 209.206 20.2376 209.164 21.6088C209.212 22.8481 209.454 24.0723 209.88 25.2371C210.31 26.4296 210.882 27.5656 211.585 28.6204C212.299 29.712 213.078 30.7601 213.916 31.7592C215.701 33.7105 217.631 35.5236 219.69 37.1828C220.707 38.0486 221.742 38.8929 222.793 39.7157L224.383 40.9591C225.009 41.395 225.559 41.9316 226.009 42.5471C226.253 42.9567 226.349 43.437 226.282 43.9087C226.249 44.3285 226.132 44.7375 225.938 45.1113C225.572 45.773 225.082 46.3577 224.493 46.8328C223.404 47.6988 222.224 48.4433 220.973 49.053C218.536 50.2889 216.019 51.2662 213.548 52.3411C212.305 52.8649 211.064 53.3995 209.768 53.8406C208.462 54.3353 207.066 54.5447 205.673 54.4546C204.293 54.3376 202.942 53.9894 201.678 53.4245C200.491 52.858 199.232 52.4552 197.936 52.2272C196.667 52.0883 195.384 52.2697 194.204 52.7549C193.588 53.0785 192.951 53.3609 192.298 53.6004C191.585 53.7904 190.846 53.865 190.11 53.8215C188.652 53.7654 187.224 53.3863 185.931 52.7117C184.638 52.037 183.511 51.0837 182.631 49.9206C181.763 48.7269 181.179 47.351 180.924 45.8978C180.795 45.1981 180.707 44.4913 180.663 43.7811C180.612 43.0316 180.666 42.2787 180.821 41.5437C180.972 40.8278 181.127 40.2383 181.216 39.6124C181.304 38.9818 181.359 38.347 181.381 37.7107C181.477 36.43 181.446 35.143 181.291 33.8682C181.205 33.2944 181.035 32.7364 180.787 32.2122C180.562 31.7473 180.228 31.3442 179.812 31.0378C179.32 30.7778 178.603 30.4466 178.032 30.103L176.28 29.0586C175.051 28.3804 173.914 27.5472 172.897 26.5796C172.371 26.0405 171.966 25.3965 171.707 24.6896C171.546 24.0041 171.446 23.3057 171.407 22.6026C171.248 21.2804 171.002 19.9702 170.669 18.6806C170.406 17.3733 170.003 16.098 169.467 14.8767C168.903 13.6721 168.079 12.6073 167.054 11.7587C166.53 11.3457 165.971 10.9794 165.383 10.664C165.081 10.5033 164.789 10.325 164.509 10.1299C164.355 10.031 164.223 9.90089 164.122 9.74799C164.021 9.59508 163.953 9.42281 163.923 9.24216ZM194.109 105.018C194.884 106.282 195.77 107.474 196.757 108.579C197.703 109.651 198.796 110.584 200.003 111.352C201.199 112.117 202.476 112.747 203.811 113.232C205.148 113.761 206.548 114.119 207.975 114.297L208.097 114.309C208.15 114.314 208.202 114.331 208.248 114.357C208.295 114.383 208.336 114.418 208.369 114.461C210.25 116.869 212.344 119.103 214.627 121.136L214.204 120.971C216.535 120.612 218.822 120.082 221.103 119.579C223.382 119.056 225.617 118.373 227.852 117.695C232.341 116.382 236.751 114.79 241.28 113.24C241.303 113.232 241.329 113.233 241.353 113.242C241.376 113.252 241.395 113.269 241.407 113.292C241.418 113.314 241.421 113.34 241.415 113.364C241.409 113.389 241.395 113.41 241.374 113.425C237.424 116.172 233.091 118.325 228.514 119.814C226.211 120.528 223.86 121.08 221.479 121.463C219.101 121.863 216.693 122.048 214.282 122.018L214.199 122.017C214.134 122.017 214.069 122.002 214.011 121.973C213.952 121.945 213.9 121.904 213.859 121.853C211.982 119.441 209.892 117.203 207.612 115.167L208.005 115.331C206.416 115.45 204.819 115.306 203.276 114.905C201.728 114.487 200.274 113.776 198.993 112.812C197.7 111.877 196.593 110.708 195.73 109.367C194.882 108.059 194.268 106.613 193.917 105.095C193.911 105.071 193.913 105.046 193.924 105.024C193.935 105.002 193.953 104.984 193.976 104.974C193.998 104.964 194.023 104.963 194.047 104.97C194.071 104.976 194.091 104.991 194.105 105.012L194.109 105.018Z" fill="#020202"/>
<path d="M224.918 45.5288C226.806 46.5356 228.566 47.7649 230.161 49.1903C231.778 50.5582 233.289 52.0472 234.681 53.6443C236.051 55.2588 237.242 57.029 238.608 58.6325C239.986 60.2287 241.446 61.7535 242.98 63.2012C244.515 64.6576 246.013 66.1521 247.406 67.7345C248.823 69.2973 250.239 70.8615 251.556 72.5079C254.204 75.8069 256.593 79.3053 258.702 82.972C258.714 82.9938 258.718 83.0193 258.713 83.0437C258.708 83.0682 258.695 83.0902 258.675 83.1057C258.656 83.1211 258.631 83.1291 258.606 83.1281C258.581 83.1271 258.557 83.1173 258.539 83.1003C255.468 80.2068 252.566 77.1387 249.848 73.9113C248.493 72.3076 247.217 70.6398 245.916 68.9916C244.599 67.3559 243.352 65.6622 242.124 63.9464C240.905 62.2313 239.563 60.6062 238.11 59.0838C236.652 57.5687 234.975 56.2597 233.434 54.8371C230.394 51.9452 227.651 48.8127 224.8 45.6992L224.794 45.6927C224.778 45.6747 224.768 45.6515 224.767 45.6272C224.766 45.6028 224.773 45.5789 224.788 45.5594C224.803 45.5399 224.824 45.5262 224.847 45.5206C224.871 45.515 224.896 45.5179 224.918 45.5288Z" fill="#020202"/>
<path d="M234.82 108.203C230.548 110.094 226.156 111.701 221.672 113.014C224.528 111.572 227.394 110.165 230.27 108.792L233.602 107.183L234.82 108.203Z" fill="white"/>
<path d="M216.754 121.254C217.318 122.532 217.701 123.883 217.891 125.268C218.125 126.646 218.164 128.049 218.005 129.438C217.439 128.16 217.056 126.809 216.867 125.424C216.635 124.046 216.597 122.642 216.754 121.254Z" fill="#020202"/>
<path d="M284.708 139.724C272.912 133.783 261.482 127.142 250.48 119.837C233.89 124.601 215.516 129.449 215.516 129.449C215.865 131.644 215.36 133.889 214.105 135.724C212.85 137.559 210.94 138.846 208.766 139.32C182.615 145.058 170.95 150.682 166.585 153.282C165.196 154.1 163.785 154.887 162.323 155.592C157.771 157.788 147.371 165.141 149.808 185.66C152.131 205.195 159.679 239.768 163.319 255.906L163.329 255.844C168.968 256.232 174.628 256.201 180.262 255.75C183.088 255.604 185.901 255.265 188.681 254.735C191.454 254.172 194.168 253.353 196.79 252.291C199.406 251.246 201.939 250.006 204.369 248.583C205.603 247.91 206.744 247.102 207.916 246.325C209.025 245.476 210.186 244.688 211.234 243.756C215.557 240.135 219.252 235.827 222.173 231.006L222.214 231.027L206.817 191.025C240.65 188.892 250.843 184.231 250.843 184.231C280.706 176.638 286.191 156.803 284.708 139.724ZM211.949 244.595C210.855 245.527 209.713 246.402 208.527 247.216C207.314 247.982 206.122 248.78 204.847 249.432C202.345 250.82 199.712 251.958 196.987 252.83C191.564 254.586 185.994 255.851 180.345 256.61C174.672 257.245 168.935 257.022 163.329 255.947C164.553 261.333 165.33 264.648 165.33 264.648C201.56 275.192 225.678 240.027 225.678 240.027L222.235 231.089C219.815 236.275 216.307 240.881 211.949 244.595ZM170.09 263.011C169.687 262.998 169.305 262.829 169.024 262.541C168.743 262.252 168.585 261.865 168.584 261.462C168.582 261.06 168.737 260.672 169.016 260.382C169.295 260.091 169.676 259.92 170.079 259.904C170.482 259.917 170.865 260.085 171.145 260.374C171.426 260.663 171.584 261.05 171.586 261.452C171.587 261.855 171.432 262.243 171.153 262.534C170.874 262.824 170.493 262.995 170.09 263.011ZM176.809 263.85C176.406 263.837 176.024 263.668 175.743 263.38C175.462 263.091 175.304 262.704 175.303 262.301C175.301 261.899 175.456 261.511 175.735 261.22C176.014 260.93 176.396 260.758 176.798 260.743C177.201 260.756 177.584 260.924 177.865 261.213C178.146 261.502 178.303 261.889 178.305 262.291C178.306 262.694 178.151 263.082 177.872 263.372C177.593 263.663 177.212 263.834 176.809 263.85ZM184.15 263.57C183.747 263.557 183.365 263.389 183.084 263.1C182.803 262.811 182.645 262.424 182.644 262.022C182.643 261.619 182.798 261.231 183.077 260.941C183.356 260.65 183.737 260.479 184.14 260.463C184.543 260.476 184.925 260.645 185.206 260.934C185.487 261.222 185.645 261.609 185.646 262.012C185.647 262.414 185.492 262.802 185.213 263.093C184.934 263.383 184.553 263.555 184.15 263.57ZM191.989 261.924C191.585 261.913 191.202 261.746 190.919 261.458C190.636 261.17 190.477 260.783 190.474 260.38C190.471 259.976 190.626 259.588 190.904 259.296C191.183 259.004 191.565 258.832 191.968 258.816C192.372 258.827 192.756 258.994 193.039 259.282C193.321 259.57 193.481 259.956 193.484 260.36C193.486 260.763 193.332 261.152 193.053 261.444C192.774 261.736 192.393 261.908 191.989 261.924ZM199.932 259.148C199.529 259.135 199.146 258.966 198.865 258.677C198.585 258.388 198.427 258.002 198.425 257.599C198.424 257.196 198.579 256.809 198.858 256.518C199.137 256.227 199.518 256.056 199.921 256.04C200.324 256.053 200.707 256.222 200.987 256.511C201.268 256.8 201.426 257.186 201.428 257.589C201.429 257.992 201.274 258.379 200.995 258.67C200.716 258.961 200.335 259.132 199.932 259.148ZM208.123 254.269C207.72 254.256 207.338 254.087 207.057 253.799C206.776 253.51 206.618 253.123 206.617 252.721C206.616 252.318 206.771 251.93 207.05 251.64C207.329 251.349 207.71 251.178 208.113 251.162C208.516 251.175 208.898 251.344 209.179 251.632C209.46 251.921 209.618 252.308 209.619 252.711C209.62 253.113 209.465 253.501 209.186 253.792C208.907 254.082 208.526 254.254 208.123 254.269ZM215.07 248.769C214.667 248.756 214.285 248.588 214.004 248.299C213.723 248.01 213.566 247.623 213.564 247.221C213.563 246.818 213.718 246.43 213.997 246.14C214.276 245.849 214.657 245.678 215.06 245.662C215.463 245.675 215.845 245.844 216.126 246.133C216.407 246.421 216.565 246.808 216.566 247.211C216.567 247.613 216.412 248.001 216.133 248.292C215.854 248.582 215.473 248.754 215.07 248.769ZM221.385 241.654C220.982 241.641 220.6 241.472 220.319 241.183C220.038 240.894 219.88 240.508 219.879 240.105C219.877 239.702 220.033 239.315 220.312 239.024C220.591 238.733 220.972 238.562 221.375 238.546C221.778 238.559 222.16 238.728 222.441 239.017C222.722 239.306 222.88 239.692 222.881 240.095C222.882 240.498 222.727 240.885 222.448 241.176C222.169 241.467 221.788 241.638 221.385 241.654ZM165.291 90.3091C163.613 93.4798 161.743 96.5454 159.691 99.4887C158.657 100.957 157.58 102.396 156.459 103.806C155.907 104.516 155.319 105.2 154.748 105.895C154.211 106.586 153.643 107.244 153.154 107.975C151.127 110.862 149.344 113.912 147.824 117.094C146.266 120.266 144.905 123.564 143.647 126.843L143.637 126.867C143.601 126.96 143.55 127.046 143.486 127.123L138.673 132.797L138.169 133.489C137.955 133.789 137.715 134.07 137.451 134.326C136.909 134.845 136.251 135.227 135.532 135.443C134.169 135.787 132.735 135.711 131.417 135.223C130.324 134.792 129.162 134.565 127.987 134.553C126.814 134.593 125.658 134.845 124.575 135.295C123.492 135.782 122.517 136.479 121.706 137.346C120.896 138.213 120.266 139.233 119.854 140.345L119.847 140.363C119.812 140.457 119.741 140.533 119.649 140.575L118.503 141.094C118.135 141.293 117.762 141.485 117.403 141.699C116.687 142.128 116.011 142.621 115.384 143.171C114.76 143.716 114.206 144.336 113.735 145.018C113.277 145.682 112.95 146.426 112.77 147.211L112.768 147.22C112.755 147.292 112.72 147.358 112.668 147.409C112.147 147.931 111.624 148.451 111.157 149.016C110.686 149.57 110.265 150.163 109.897 150.789C109.545 151.397 109.306 152.063 109.191 152.755C109.13 153.063 109.134 153.381 109.203 153.687C109.271 153.994 109.402 154.283 109.588 154.537C109.657 154.611 109.699 154.705 109.707 154.806L109.709 154.824C109.713 155.034 109.767 155.24 109.868 155.424C109.968 155.608 110.112 155.766 110.286 155.883C110.704 156.047 111.168 156.052 111.589 155.896C112.598 155.531 113.546 155.015 114.4 154.365L117.166 152.377C118.124 151.668 119.172 151.088 120.282 150.652C121.513 150.236 122.851 150.26 124.066 150.72C125.191 151.129 126.262 151.674 127.256 152.341C129.19 153.638 130.931 155.021 132.837 156.041C134.589 157.121 136.665 157.55 138.703 157.254C140.698 156.704 142.476 155.557 143.8 153.968C146.869 150.708 149.879 147.322 152.916 143.986L162.022 133.948L171.187 123.957C177.3 117.298 183.473 110.691 189.705 104.135C189.724 104.115 189.749 104.104 189.776 104.103C189.803 104.101 189.829 104.111 189.849 104.128C189.869 104.146 189.882 104.171 189.884 104.198C189.886 104.224 189.878 104.251 189.861 104.272C184.156 111.292 178.351 118.226 172.446 125.073C166.553 131.93 160.635 138.767 154.56 145.47C151.524 148.828 148.475 152.153 145.285 155.415C143.648 157.276 141.478 158.59 139.069 159.178C138.758 159.248 138.44 159.285 138.12 159.288C137.803 159.318 137.484 159.327 137.166 159.315C136.538 159.28 135.915 159.184 135.306 159.027C134.127 158.725 132.998 158.259 131.95 157.642C129.896 156.46 128.126 154.96 126.342 153.691C125.473 153.074 124.537 152.558 123.551 152.152C122.653 151.75 121.641 151.681 120.697 151.958C119.686 152.312 118.725 152.795 117.838 153.395C116.894 153.989 115.957 154.621 115.015 155.249C114.04 155.932 112.965 156.459 111.827 156.811C111.166 157.013 110.452 156.952 109.836 156.639C109.54 156.44 109.299 156.17 109.134 155.853C108.97 155.537 108.887 155.184 108.894 154.828L109.014 155.115C108.749 154.768 108.561 154.37 108.462 153.946C108.363 153.521 108.355 153.081 108.44 152.653C108.578 151.868 108.858 151.115 109.266 150.43C109.665 149.771 110.12 149.148 110.627 148.567C111.124 147.985 111.67 147.457 112.214 146.928L112.113 147.125C112.315 146.242 112.69 145.407 113.216 144.67C113.714 143.943 114.297 143.279 114.953 142.691C115.604 142.108 116.307 141.584 117.053 141.127L118.187 140.478L119.358 139.905L119.154 140.134C120.001 137.636 121.79 135.566 124.14 134.364C125.323 133.773 126.614 133.427 127.935 133.348C129.256 133.268 130.579 133.457 131.825 133.902C132.872 134.244 133.998 134.265 135.057 133.962C135.527 133.796 135.951 133.521 136.295 133.159C136.467 132.973 136.623 132.772 136.761 132.559L137.329 131.725C138.895 129.744 140.467 127.852 142.065 125.936L141.904 126.216C143.168 122.836 144.631 119.533 146.284 116.325C147.891 113.079 149.792 109.986 151.963 107.085C152.501 106.353 153.132 105.682 153.725 104.989C154.318 104.329 154.925 103.685 155.5 103.009C156.669 101.675 157.796 100.302 158.881 98.8913C161.093 96.1052 163.158 93.1935 165.111 90.2073C165.118 90.1957 165.127 90.1856 165.138 90.1777C165.149 90.1697 165.162 90.1639 165.175 90.1608C165.188 90.1576 165.202 90.1571 165.216 90.1593C165.229 90.1614 165.242 90.1662 165.253 90.1733C165.275 90.1875 165.291 90.2091 165.298 90.2341C165.305 90.2591 165.303 90.2858 165.291 90.3091Z" fill="#020202"/>
<path d="M112.442 147.168C113 146.309 113.716 145.563 114.553 144.97C115.366 144.345 116.291 143.882 117.279 143.605C116.723 144.466 116.006 145.212 115.168 145.803C114.354 146.427 113.429 146.89 112.442 147.168ZM109.302 154.826C110.423 153.186 111.742 151.691 113.231 150.374C113.969 149.71 114.746 149.091 115.56 148.521C116.369 147.922 117.27 147.457 118.228 147.143C117.468 147.799 116.783 148.479 116.069 149.148C115.367 149.828 114.645 150.483 113.924 151.143C112.476 152.482 110.931 153.713 109.302 154.826Z" fill="#020202"/>
<path d="M119.504 140.24C123.041 140.228 126.557 140.768 129.927 141.841C131.09 142.25 132.36 142.236 133.513 141.8C134.666 141.364 135.628 140.536 136.229 139.461C137.603 136.964 139.679 132.955 142.775 126.53" stroke="#020202" stroke-width="0.968" stroke-linecap="round" stroke-linejoin="round"/>
<path d="M223.276 233.8C225.344 231.07 227.202 228.188 228.833 225.177C230.435 222.174 231.861 219.081 233.104 215.913C234.332 212.742 235.422 209.522 236.373 206.253C237.321 202.996 238.104 199.694 238.721 196.359L239.673 197.488L233.403 197.233C231.307 197.09 229.248 197.105 227.108 196.781C226.049 196.63 224.999 196.418 223.964 196.146C222.898 195.891 221.882 195.459 220.958 194.868C220.716 194.718 220.495 194.538 220.299 194.332L220.001 194.021C219.916 193.901 219.844 193.769 219.768 193.643C219.62 193.39 219.524 193.11 219.485 192.819C219.446 192.528 219.465 192.233 219.541 191.95C219.873 190.918 220.54 190.026 221.436 189.415C220.693 190.117 220.182 191.029 219.969 192.028C219.934 192.493 220.052 192.957 220.305 193.348C220.558 193.74 220.933 194.038 221.372 194.197C222.272 194.624 223.23 194.916 224.215 195.064C225.219 195.242 226.232 195.362 227.249 195.423C229.262 195.587 231.389 195.476 233.464 195.489L239.718 195.52C239.975 195.522 240.221 195.625 240.402 195.808C240.583 195.99 240.684 196.237 240.683 196.494C240.682 196.546 240.678 196.598 240.67 196.649C240.114 200.088 239.335 203.487 238.338 206.824C237.358 210.157 236.167 213.425 234.774 216.608C233.382 219.793 231.735 222.86 229.849 225.781L228.371 227.925C227.879 228.638 227.295 229.288 226.763 229.97C225.68 231.316 224.515 232.595 223.276 233.8ZM224.77 241.251C225.046 240.844 225.275 240.406 225.452 239.947L225.492 239.893L225.509 239.859C225.531 239.815 225.566 239.78 225.611 239.759C225.655 239.738 225.705 239.734 225.753 239.745C225.8 239.757 225.842 239.785 225.872 239.824C225.901 239.863 225.916 239.911 225.915 239.96L225.911 240.065C225.805 242.469 225.567 244.865 225.197 247.243C224.818 249.613 224.352 251.971 223.762 254.304C223.185 256.65 222.45 258.954 221.562 261.201C221.117 262.336 220.594 263.44 219.996 264.503C219.438 265.607 218.634 266.568 217.645 267.311C218.303 266.33 218.797 265.248 219.105 264.107C219.474 262.992 219.766 261.847 220.072 260.707L221.766 253.812L223.478 246.889C224.094 244.586 224.717 242.279 225.444 239.986L225.845 240.192L225.821 240.219L225.861 240.166C225.554 240.581 225.187 240.947 224.77 241.251ZM260.467 180.963C262 181.542 263.395 182.433 264.565 183.58C265.187 184.186 265.659 184.929 265.944 185.749C266.216 186.625 266.201 187.565 265.9 188.433C265.234 190.032 264.113 191.401 262.677 192.371C261.353 193.344 259.942 194.194 258.463 194.911C258.42 194.933 258.374 194.95 258.326 194.962L258.284 194.972C256.63 195.373 254.976 195.708 253.31 196.033C251.645 196.357 249.971 196.648 248.266 196.846L249.054 196.139C248.238 199.622 247.285 203.074 246.347 206.528L246.194 205.941C251.251 212.013 256.484 217.927 261.992 223.59C267.486 229.265 272.995 234.927 278.342 240.736C283.758 246.483 289.059 252.334 294.245 258.289C299.439 264.237 304.589 270.225 309.548 276.386C309.565 276.407 309.573 276.433 309.571 276.459C309.569 276.486 309.557 276.51 309.537 276.528C309.517 276.546 309.492 276.556 309.465 276.555C309.439 276.555 309.414 276.544 309.395 276.526C303.727 271.008 298.251 265.316 292.818 259.585C287.374 253.863 282.049 248.035 276.84 242.1C271.56 236.23 266.442 230.213 261.31 224.209C256.191 218.192 250.797 212.426 245.227 206.819C245.158 206.75 245.108 206.666 245.079 206.573C245.051 206.48 245.045 206.381 245.064 206.286L245.074 206.231C245.765 202.719 246.441 199.203 247.254 195.719C247.296 195.537 247.393 195.372 247.532 195.246C247.67 195.12 247.844 195.039 248.029 195.014L248.042 195.012C251.323 194.574 254.64 193.971 257.917 193.32L257.739 193.381C259.151 192.753 260.51 192.012 261.802 191.164C263.068 190.411 264.1 189.322 264.783 188.018C265.035 187.354 265.095 186.633 264.955 185.937C264.815 185.241 264.481 184.599 263.991 184.084C262.978 182.894 261.755 181.901 260.382 181.152L260.376 181.149C260.354 181.136 260.337 181.114 260.329 181.089C260.322 181.064 260.324 181.037 260.335 181.014C260.347 180.99 260.367 180.972 260.391 180.963C260.415 180.953 260.442 180.953 260.467 180.963ZM226.811 267.275L230.916 253.941L235.06 240.623L239.198 227.311C240.549 222.885 241.978 218.41 243.041 214L243.046 213.981C243.088 213.807 243.176 213.649 243.302 213.521C243.427 213.394 243.585 213.303 243.758 213.259C243.932 213.215 244.114 213.218 244.285 213.269C244.456 213.32 244.61 213.417 244.731 213.549L260.139 230.455C265.258 236.106 270.354 241.777 275.429 247.467C280.503 253.158 285.552 258.873 290.575 264.611L298.07 273.253C300.564 276.137 303.056 279.024 305.513 281.942C302.845 279.215 300.211 276.457 297.579 273.698L289.696 265.406C284.46 259.862 279.257 254.288 274.087 248.684C268.905 243.09 263.75 237.472 258.622 231.83L243.274 214.87L244.963 214.419C243.773 219.032 242.295 223.398 240.86 227.84C239.385 232.255 237.883 236.658 236.354 241.05C234.813 245.439 233.268 249.826 231.661 254.191C230.064 258.559 228.479 262.931 226.811 267.275Z" fill="#020202"/>
<path d="M220.454 267.542C221.492 267.328 222.545 267.192 223.603 267.133C224.667 267.102 225.733 267.143 226.793 267.254C228.935 267.459 231.032 268.003 233.004 268.865C233.996 269.296 234.957 269.796 235.88 270.361C236.79 270.953 237.659 271.605 238.481 272.313C241.812 275.197 244.185 279.025 245.284 283.288C245.838 285.42 246.061 287.625 245.945 289.824C245.857 292.032 245.413 294.211 244.632 296.278C243.884 298.359 242.815 300.311 241.464 302.064C238.775 305.594 235.075 308.224 230.855 309.605C226.635 310.986 222.094 311.052 217.835 309.796C213.634 308.545 209.915 306.044 207.174 302.628C204.484 299.27 202.888 295.17 202.602 290.878C203.257 294.974 205.085 298.792 207.865 301.873C210.645 304.953 214.258 307.164 218.268 308.239C222.209 309.23 226.353 309.062 230.201 307.755C234.025 306.441 237.372 304.023 239.818 300.806C242.27 297.584 243.72 293.714 243.988 289.676C244.256 285.637 243.331 281.61 241.326 278.093C240.327 276.318 239.061 274.706 237.573 273.314C236.834 272.607 236.048 271.949 235.222 271.346C234.374 270.768 233.489 270.244 232.574 269.779C230.739 268.811 228.762 268.141 226.716 267.795C224.651 267.414 222.543 267.329 220.454 267.542Z" fill="#020202"/>
<path d="M320.63 305.244C329.495 305.206 336.649 297.718 336.609 288.52C336.569 279.321 329.351 271.895 320.486 271.934C311.622 271.972 304.467 279.459 304.507 288.658C304.547 297.856 311.765 305.282 320.63 305.244Z" fill="#020202"/>
<path d="M244.919 290.696C254.794 289.212 264.711 288.354 274.638 287.649C279.605 287.332 284.572 287.04 289.548 286.869C294.522 286.668 299.506 286.602 304.498 286.669C299.56 287.406 294.613 288.01 289.658 288.482C284.704 288.982 279.742 289.361 274.778 289.715C264.846 290.353 254.904 290.837 244.919 290.696ZM241.639 300.045C252.129 298.081 262.688 296.74 273.263 295.552C278.554 294.992 283.849 294.459 289.156 294.045C294.46 293.602 299.779 293.292 305.113 293.116C299.867 294.094 294.607 294.939 289.332 295.652C284.06 296.393 278.776 297.014 273.488 297.61C262.906 298.731 252.306 299.7 241.639 300.045ZM204.174 296.878C202.738 298.07 201.227 299.127 199.705 300.166C198.172 301.183 196.615 302.158 195.035 303.092C193.45 304.016 191.851 304.916 190.226 305.768C188.602 306.622 186.954 307.433 185.282 308.201L185.174 308.25C185.013 308.324 184.829 308.331 184.663 308.269C184.497 308.208 184.362 308.083 184.288 307.922L184.26 307.851C183.66 306.021 183.087 304.18 182.666 302.274C183.754 303.896 184.688 305.583 185.596 307.282L184.576 306.932C186.111 305.918 187.67 304.947 189.254 304.021C190.836 303.092 192.445 302.21 194.067 301.353C195.697 300.508 197.348 299.702 199.02 298.935C200.706 298.192 202.403 297.468 204.174 296.878ZM229.288 309.065L239.78 331.444L232.821 333.462L234.619 339.918L256.484 338.581L256.452 331.123L246.245 330.173L236.434 305.605L229.288 309.065ZM187.576 265.626C188.162 267.505 188.368 269.481 188.183 271.439C187.998 273.398 187.426 275.301 186.499 277.037C185.534 278.787 184.273 280.357 182.772 281.677C181.276 282.989 179.623 284.11 177.851 285.016L178.299 284.179C178.363 284.395 178.456 284.601 178.575 284.792C178.714 285.01 178.88 285.21 179.07 285.386C179.482 285.751 179.961 286.031 180.482 286.211C181.642 286.577 182.863 286.709 184.075 286.6C185.353 286.504 186.621 286.298 187.864 285.986C189.134 285.686 190.388 285.319 191.619 284.887C194.102 284.031 196.53 282.98 198.938 281.878C201.344 280.763 203.718 279.567 206.007 278.266C208.305 277.007 210.479 275.536 212.501 273.872C214.442 272.219 216.294 270.229 216.774 267.865C217.009 266.683 216.794 265.456 216.171 264.423C215.405 263.31 214.733 262.134 214.163 260.909C213.595 259.669 213.176 258.366 212.913 257.028C212.688 255.699 212.596 254.35 212.638 253.002L212.903 254.991C213.011 255.644 213.154 256.291 213.332 256.929C213.696 258.194 214.208 259.412 214.858 260.558C215.53 261.702 216.281 262.799 217.105 263.839C217.951 265.079 218.309 266.587 218.111 268.074C217.88 269.514 217.306 270.878 216.437 272.049C215.621 273.186 214.686 274.232 213.647 275.17C211.588 276.974 209.36 278.577 206.994 279.956C204.658 281.352 202.245 282.565 199.807 283.73C197.359 284.908 194.842 285.935 192.269 286.805C189.66 287.746 186.932 288.315 184.164 288.493C182.698 288.58 181.228 288.372 179.844 287.881C179.059 287.621 178.355 287.163 177.8 286.551C177.245 285.939 176.858 285.194 176.677 284.388C176.645 284.224 176.669 284.055 176.744 283.906C176.82 283.757 176.943 283.637 177.094 283.566L177.125 283.551C180.566 282.065 183.509 279.625 185.604 276.519C186.614 274.933 187.303 273.165 187.631 271.314C187.968 269.431 187.949 267.502 187.576 265.626Z" fill="#020202"/>
<path d="M178.027 283.286C178.027 283.286 146.593 298.279 152.854 304.29C159.115 310.301 169.893 311.706 192.876 297.108C192.876 297.108 204.538 288.142 207.04 291.012C209.541 293.881 208.504 295.671 208.504 295.671C208.504 295.671 227.043 294.352 224.297 285.374C224.297 285.374 221.68 266.958 217.353 265.78C217.353 265.78 220.719 272.18 201.738 281.666C182.756 291.152 179.563 286.822 178.027 283.286ZM366.301 203.438L343.568 203.699L320.59 203.871C312.916 203.95 305.196 203.959 297.473 203.944L274.301 203.913C274.169 203.913 274.038 203.886 273.916 203.836C273.794 203.785 273.683 203.711 273.589 203.617C273.496 203.524 273.422 203.413 273.371 203.29C273.321 203.168 273.295 203.037 273.295 202.905V202.896L273.307 196.681C273.308 196.546 273.335 196.412 273.387 196.287C273.439 196.162 273.515 196.049 273.611 195.953C273.707 195.858 273.821 195.782 273.946 195.73C274.072 195.679 274.206 195.652 274.341 195.653L274.349 195.653L297.347 195.873L320.345 196.123L343.342 196.523C351.007 196.653 358.672 196.886 366.338 197.065L366.344 197.065C366.385 197.066 366.424 197.083 366.453 197.113C366.481 197.142 366.497 197.182 366.496 197.223V197.224L366.301 203.438ZM366.301 203.438L366.178 197.223L366.336 197.382C358.669 197.471 351.002 197.615 343.335 197.655L320.335 197.788L297.336 197.77L274.337 197.722L275.379 196.693L275.319 202.908L274.313 201.891L297.138 202.128C304.747 202.202 312.36 202.301 320.018 202.469L343.037 202.909L366.301 203.438Z" fill="#020202"/>
<path d="M284.024 202.959C286.527 208.862 288.924 214.806 291.306 220.757C293.689 226.706 295.986 232.689 298.33 238.653C300.596 244.648 302.904 250.626 305.131 256.636C307.356 262.646 309.567 268.661 311.67 274.719C309.165 268.816 306.768 262.872 304.386 256.922C302.005 250.972 299.705 244.99 297.363 239.025C295.1 233.029 292.789 227.052 290.565 221.041C288.338 215.032 286.128 209.016 284.024 202.959ZM351.401 203.503C349.698 209.455 347.887 215.372 346.06 221.283C344.235 227.196 342.321 233.08 340.456 238.979C338.511 244.853 336.609 250.74 334.624 256.601C332.638 262.461 330.637 268.317 328.525 274.137C330.227 268.185 332.038 262.268 333.865 256.356C335.693 250.444 337.603 244.559 339.47 238.661C341.418 232.788 343.317 226.899 345.304 221.039C347.29 215.179 349.291 209.323 351.401 203.503ZM333.227 278.374C337.694 277.278 342.183 276.293 346.675 275.325C351.167 274.354 355.677 273.475 360.177 272.546C364.693 271.699 369.2 270.808 373.725 270.002C378.249 269.197 382.777 268.408 387.327 267.732C382.86 268.83 378.371 269.815 373.879 270.783C369.386 271.751 364.877 272.634 360.377 273.561C355.86 274.405 351.353 275.3 346.828 276.103C342.304 276.908 337.776 277.697 333.227 278.374Z" fill="#020202"/>
<path d="M75.5249 297.432C83.2618 297.432 89.5338 291.167 89.5338 283.438C89.5338 275.71 83.2618 269.445 75.5249 269.445C67.788 269.445 61.516 275.71 61.516 283.438C61.516 291.167 67.788 297.432 75.5249 297.432Z" fill="#020202"/>
<path d="M111.745 156.346C111.125 157.675 110.952 159.168 111.252 160.602C111.441 161.278 111.811 161.89 112.321 162.373C112.832 162.856 113.464 163.191 114.151 163.342C114.828 163.499 115.531 163.504 116.21 163.357C116.897 163.193 117.551 162.916 118.146 162.536C119.482 161.803 120.923 161.28 122.419 160.984C123.186 160.839 123.969 160.793 124.748 160.846C125.143 160.871 125.535 160.927 125.922 161.012C126.118 161.048 126.311 161.098 126.5 161.161L126.786 161.249L126.858 161.272L126.894 161.283C127.077 161.368 126.965 161.319 127.015 161.343L127.155 161.43C127.722 161.788 128.179 162.297 128.475 162.899C128.771 163.501 128.895 164.173 128.832 164.841C128.784 165.265 128.675 165.681 128.509 166.075L125.385 174.345C121.194 185.362 116.857 196.322 112.373 207.225C107.872 218.119 103.278 228.979 98.3948 239.716C95.961 245.087 93.4335 250.417 90.8123 255.705C89.4624 258.33 88.1176 260.957 86.6714 263.532C85.2956 266.147 83.6882 268.634 81.8686 270.963C82.7224 269.764 83.4898 268.506 84.1648 267.198C84.8812 265.916 85.5318 264.595 86.1844 263.278C87.4871 260.641 88.6886 257.953 89.8937 255.27C92.3019 249.9 94.6109 244.485 96.9124 239.067C101.485 228.218 106 217.341 110.456 206.438L123.886 173.752L127.249 165.582C127.386 165.303 127.48 165.006 127.529 164.699C127.568 164.412 127.553 164.119 127.484 163.837C127.344 163.261 126.996 162.756 126.507 162.421L126.414 162.358C126.444 162.372 126.315 162.306 126.476 162.384L126.446 162.374L126.386 162.353L126.147 162.269C125.989 162.209 125.826 162.161 125.661 162.124C125.33 162.038 124.994 161.977 124.654 161.943C123.962 161.872 123.264 161.885 122.575 161.982C121.159 162.187 119.784 162.609 118.496 163.231C117.829 163.632 117.088 163.895 116.317 164.005C115.546 164.115 114.761 164.069 114.008 163.869C113.256 163.664 112.574 163.258 112.035 162.695C111.496 162.132 111.12 161.433 110.948 160.673C110.737 159.183 111.017 157.664 111.745 156.346ZM87.1212 275.586C89.4035 271.447 91.6476 267.296 93.7673 263.08C95.9256 258.886 98.0109 254.657 100.059 250.413C102.065 246.148 104.083 241.892 105.969 237.576L108.785 231.099L110.143 227.84C110.384 227.284 110.562 226.781 110.855 226.182L111.276 225.31L111.789 224.486C113.25 222.323 115.392 220.709 117.875 219.899C119.109 219.507 120.397 219.312 121.692 219.322C122.987 219.355 124.268 219.597 125.486 220.037C126.651 220.514 127.753 221.129 128.77 221.87L131.703 223.859L137.554 227.86C145.353 233.197 153.078 238.645 160.728 244.205C152.631 239.317 144.608 234.317 136.658 229.207L130.698 225.371L127.725 223.443C126.821 222.806 125.842 222.281 124.811 221.88C123.796 221.537 122.736 221.349 121.665 221.322C120.593 221.323 119.528 221.492 118.508 221.822C116.465 222.504 114.707 223.847 113.511 225.637L113.083 226.313L112.731 227.033C112.495 227.49 112.267 228.099 112.035 228.624L110.646 231.894C109.697 234.063 108.753 236.235 107.754 238.381C105.755 242.674 103.688 246.934 101.502 251.132C97.1701 259.546 92.3691 267.71 87.1212 275.586Z" fill="#020202"/>
<path d="M128.899 154.742L129.073 157.165L128.981 157.02L131.041 157.898C131.761 158.172 132.451 158.517 133.102 158.928C134.43 159.849 135.407 161.192 135.872 162.738C136.341 164.322 136.265 166.018 135.656 167.553L134.001 171.707L130.608 179.979C129.995 181.262 129.523 182.607 129.201 183.992C128.937 185.344 128.895 186.729 129.075 188.094C129.441 190.849 130.713 193.405 132.692 195.358C133.19 195.843 133.721 196.292 134.281 196.701L136.102 198L139.724 200.625C144.553 204.127 149.311 207.73 153.999 211.435C148.868 208.37 143.81 205.202 138.823 201.929L135.083 199.474L133.222 198.233C132.564 197.785 131.938 197.289 131.351 196.751C128.998 194.531 127.474 191.574 127.032 188.371C126.81 186.778 126.869 185.159 127.203 183.586C127.363 182.8 127.594 182.031 127.892 181.286C128.177 180.52 128.483 179.897 128.777 179.195L132.432 171.036L134.301 166.974C134.869 165.743 135.022 164.362 134.739 163.037C134.425 161.679 133.687 160.457 132.633 159.545C132.062 159.101 131.448 158.715 130.8 158.392L128.838 157.312L128.822 157.303C128.798 157.29 128.778 157.27 128.764 157.246C128.751 157.222 128.745 157.194 128.747 157.167L128.899 154.742ZM158.373 233.227C154.983 231.131 151.668 228.928 148.314 226.781C144.987 224.595 141.673 222.392 138.37 220.172C131.761 215.737 125.221 211.205 118.695 206.652C118.521 206.53 118.389 206.357 118.316 206.158C118.244 205.958 118.235 205.741 118.291 205.537L120.026 199.196L120.028 199.191C120.063 199.063 120.122 198.943 120.204 198.838C120.285 198.733 120.386 198.646 120.502 198.58C120.617 198.514 120.744 198.472 120.876 198.455C121.008 198.438 121.142 198.448 121.27 198.483C121.373 198.511 121.471 198.556 121.56 198.614C127.413 202.471 133.225 206.391 138.996 210.372C141.884 212.358 144.76 214.364 147.623 216.389C150.473 218.433 153.349 220.439 156.168 222.532C153.125 220.779 150.14 218.94 147.13 217.138C144.128 215.324 141.144 213.485 138.175 211.62C132.233 207.899 126.324 204.127 120.448 200.305L121.982 199.723L120.288 206.075L119.884 204.96C126.386 209.548 132.873 214.156 139.292 218.861C142.509 221.203 145.708 223.57 148.89 225.962C152.05 228.385 155.249 230.753 158.373 233.227ZM147.111 283.121C147.09 292.82 145.343 302.437 141.951 311.525C138.561 320.645 133.511 329.059 127.056 336.343C120.561 343.703 112.644 349.675 103.779 353.9C94.7982 358.136 85.0156 360.408 75.085 360.566C65.1544 360.723 55.3045 358.763 46.1932 354.814C37.0392 350.856 28.7764 345.098 21.8971 337.882C15.0011 330.662 9.54874 322.192 5.83297 312.929C0.215394 298.894 -1.38575 283.576 1.2084 268.685C3.80255 253.793 10.4898 239.916 20.5234 228.602C27.3532 221.07 35.6404 215 44.8845 210.758C49.5248 208.668 54.3762 207.081 59.3554 206.024C69.3206 203.9 79.6296 203.974 89.5633 206.24C94.4877 207.373 99.2744 209.036 103.839 211.201C112.857 215.561 120.892 221.707 127.457 229.266C133.899 236.716 138.902 245.293 142.214 254.564C143.867 259.141 145.105 263.857 145.914 268.655C146.749 273.431 147.149 278.273 147.111 283.121ZM146.385 283.124C146.292 278.333 145.766 273.559 144.812 268.863C143.83 264.188 142.398 259.619 140.536 255.22C136.818 246.485 131.412 238.568 124.628 231.923C118.036 225.403 110.21 220.26 101.607 216.794C93.0039 213.328 83.7959 211.609 74.5204 211.737C65.3556 211.911 56.3195 213.925 47.9499 217.659C39.5803 221.393 32.0482 226.771 25.8019 233.472C19.4506 240.174 14.442 248.028 11.0462 256.611C4.17735 274.076 4.06583 293.471 10.7334 311.014C14.0498 319.751 19.0058 327.775 25.335 334.655C31.6743 341.558 39.3397 347.117 47.8746 350.999C56.4832 354.843 65.7952 356.866 75.2246 356.94C84.654 357.014 93.9968 355.138 102.665 351.429C111.422 347.663 119.335 342.182 125.936 335.31C132.583 328.382 137.799 320.213 141.286 311.272C143.024 306.797 144.329 302.166 145.184 297.443C146.016 292.716 146.418 287.924 146.385 283.124ZM390.24 282.076C390.219 291.774 388.472 301.392 385.08 310.48C381.691 319.6 376.641 328.014 370.185 335.298C363.691 342.658 355.773 348.63 346.909 352.855C337.928 357.091 328.145 359.363 318.214 359.521C308.284 359.678 298.434 357.717 289.323 353.769C280.169 349.811 271.906 344.052 265.026 336.837C258.13 329.617 252.678 321.147 248.962 311.884C243.345 297.849 241.744 282.531 244.338 267.64C246.932 252.748 253.619 238.871 263.653 227.557C270.483 220.025 278.77 213.955 288.014 209.713C292.654 207.622 297.506 206.035 302.485 204.979C312.45 202.855 322.759 202.929 332.693 205.195C337.617 206.327 342.404 207.991 346.969 210.156C355.986 214.516 364.022 220.662 370.587 228.221C377.029 235.671 382.032 244.248 385.344 253.519C386.996 258.096 388.234 262.812 389.043 267.61C389.878 272.386 390.279 277.228 390.24 282.076ZM389.514 282.079C389.422 277.288 388.895 272.514 387.941 267.818C386.959 263.143 385.528 258.574 383.666 254.175C379.948 245.44 374.542 237.523 367.757 230.878C361.165 224.358 353.34 219.215 344.736 215.749C336.133 212.283 326.925 210.564 317.65 210.692C308.485 210.866 299.449 212.88 291.079 216.614C282.71 220.348 275.178 225.726 268.931 232.427C262.58 239.129 257.571 246.983 254.176 255.565C247.307 273.031 247.195 292.426 253.863 309.969C257.179 318.706 262.135 326.73 268.464 333.61C274.804 340.513 282.469 346.071 291.004 349.953C299.613 353.798 308.925 355.821 318.354 355.895C327.784 355.969 337.126 354.093 345.794 350.384C354.552 346.618 362.465 341.137 369.065 334.265C375.712 327.336 380.928 319.168 384.416 310.227C386.153 305.752 387.458 301.121 388.313 296.398C389.145 291.671 389.547 286.879 389.514 282.079ZM200.662 52.5154L202.162 53.6831L202.133 53.6651C204.393 54.6852 206.443 56.1164 208.178 57.8857C209.028 58.7992 209.777 59.8021 210.411 60.8768C211.027 61.967 211.517 63.1237 211.872 64.3245C212.562 66.7366 212.777 69.2593 212.506 71.7531C212.271 74.2496 211.674 76.6987 210.732 79.023L210.733 78.5172C212.635 82.464 214.957 86.1943 217.66 89.6434C220.343 93.1197 223.267 96.4038 226.41 99.4716C232.76 105.579 239.588 111.171 246.829 116.193C261.354 126.274 276.609 135.264 292.468 143.089C300.393 147.027 308.428 150.739 316.574 154.223C324.732 157.662 332.945 160.973 341.259 164.021C343.321 164.794 345.444 165.544 347.466 166.356C347.859 166.565 348.312 166.632 348.748 166.545C349.184 166.459 349.577 166.224 349.86 165.882C350.377 165.023 350.656 164.044 350.67 163.043C350.726 161.998 350.622 160.951 350.361 159.938C350.231 159.43 350.068 158.931 349.872 158.444L349.2 156.933L346.497 150.883L343.806 144.83C342.804 142.72 342.229 140.432 342.113 138.099C342.089 135.638 343.027 133.264 344.728 131.483C345.553 130.613 346.51 129.878 347.563 129.303C348.605 128.71 349.719 128.257 350.879 127.954L351.098 129.807C344.347 129.789 337.61 129.204 330.957 128.058C324.28 126.945 317.746 125.097 311.476 122.548L309.137 121.541C308.365 121.189 307.624 120.765 306.866 120.38L304.604 119.197L302.445 117.824C301.73 117.359 301 116.916 300.298 116.431L298.287 114.836C296.916 113.776 295.656 112.7 294.403 111.622C289.337 107.332 284.061 103.239 278.751 99.201C268.177 91.0571 257.393 83.1696 246.614 75.2782L214.173 51.7279C214.161 51.7201 214.152 51.7101 214.145 51.6986C214.137 51.6871 214.133 51.6742 214.13 51.6608C214.128 51.6474 214.128 51.6336 214.131 51.6204C214.134 51.6071 214.14 51.5946 214.148 51.5835C214.164 51.5617 214.187 51.5468 214.214 51.542C214.241 51.5371 214.268 51.5427 214.29 51.5575L230.932 62.7425L247.434 74.1325C258.402 81.7762 269.257 89.585 279.999 97.5587C285.347 101.58 290.642 105.672 295.789 109.998C297.072 111.096 298.356 112.184 299.635 113.161L301.554 114.675C302.226 115.136 302.929 115.557 303.615 116.001L305.688 117.311L307.871 118.443C308.604 118.812 309.316 119.219 310.064 119.557L312.333 120.524C324.476 125.607 337.892 127.713 351.064 127.932C351.291 127.936 351.509 128.022 351.678 128.173C351.847 128.325 351.955 128.532 351.983 128.758C352.011 128.983 351.957 129.21 351.83 129.399C351.704 129.587 351.513 129.723 351.294 129.783L351.283 129.785C349.299 130.28 347.481 131.292 346.018 132.72C344.601 134.157 343.806 136.092 343.805 138.109C343.891 140.207 344.386 142.267 345.26 144.176L347.85 150.306L350.427 156.438L351.07 157.975C351.276 158.52 351.445 159.078 351.577 159.646C351.843 160.786 351.933 161.96 351.844 163.127C351.794 164.349 351.412 165.534 350.739 166.555C350.532 166.833 350.272 167.067 349.975 167.245C349.677 167.422 349.347 167.54 349.004 167.59C348.364 167.661 347.716 167.575 347.117 167.339C345.044 166.462 343.003 165.697 340.933 164.876C332.691 161.616 324.454 158.337 316.322 154.81C308.171 151.329 300.079 147.708 292.079 143.885C276.063 136.3 260.326 127.935 245.766 117.694C238.454 112.601 231.587 106.898 225.241 100.645C218.951 94.3539 213.292 87.2279 209.622 79.022C209.587 78.9439 209.568 78.8594 209.568 78.7738C209.567 78.6882 209.585 78.6034 209.619 78.5249L209.622 78.5157C210.561 76.3247 211.178 74.0096 211.455 71.6424C211.761 69.2737 211.627 66.8689 211.061 64.5485C210.763 63.3948 210.335 62.2786 209.786 61.2213C209.213 60.1708 208.529 59.185 207.746 58.2811C206.104 56.5033 204.16 55.0299 202.004 53.9293L201.997 53.9257L201.975 53.911L200.531 52.6758C200.51 52.6582 200.497 52.6333 200.495 52.6063C200.493 52.5794 200.501 52.5525 200.518 52.5316C200.535 52.5106 200.56 52.4972 200.587 52.4942C200.614 52.4911 200.64 52.4987 200.662 52.5154ZM166.156 28.2736C166.559 28.2596 166.941 28.0898 167.222 27.8C167.502 27.5102 167.659 27.1229 167.659 26.7199C167.659 26.3169 167.502 25.9297 167.222 25.6398C166.941 25.35 166.559 25.1802 166.156 25.1663C165.753 25.1802 165.371 25.35 165.091 25.6398C164.81 25.9297 164.654 26.3169 164.654 26.7199C164.654 27.1229 164.81 27.5102 165.091 27.8C165.371 28.0898 165.753 28.2596 166.156 28.2736ZM161.261 33.5192C161.463 33.5122 161.654 33.4273 161.794 33.2824C161.934 33.1375 162.013 32.9438 162.013 32.7423C162.013 32.5408 161.934 32.3472 161.794 32.2022C161.654 32.0573 161.463 31.9724 161.261 31.9655C161.06 31.9724 160.869 32.0573 160.728 32.2022C160.588 32.3472 160.51 32.5408 160.51 32.7423C160.51 32.9438 160.588 33.1375 160.728 33.2824C160.869 33.4273 161.06 33.5122 161.261 33.5192ZM163.005 23.7532C163.369 23.4008 163.803 23.129 164.278 22.9556C164.747 22.7724 165.24 22.6624 165.742 22.6296C166.257 22.6013 166.773 22.6685 167.263 22.8279C167.763 22.9898 168.198 23.3054 168.507 23.7295C167.986 23.668 167.551 23.6361 167.112 23.6219C166.672 23.6263 166.24 23.6335 165.801 23.6632C164.871 23.7422 163.938 23.7723 163.005 23.7532ZM163.583 38.9992C164.146 38.7923 164.656 38.5938 165.159 38.389C165.656 38.1745 166.147 37.9757 166.618 37.7307C167.094 37.4971 167.568 37.2539 168.041 36.9851C168.523 36.7259 168.991 36.4337 169.543 36.177C169.037 37.2691 168.163 38.1484 167.073 38.6609C166.533 38.9229 165.953 39.0947 165.357 39.1695C164.761 39.2607 164.151 39.2022 163.583 38.9992ZM314.051 83.4225C337.936 81.7823 361.843 80.7688 385.755 79.9092C397.712 79.5141 409.671 79.145 421.633 78.8965C433.594 78.6186 445.56 78.4748 457.531 78.4649C445.588 79.2804 433.641 79.9628 421.689 80.5121C409.738 81.0898 397.783 81.547 385.827 81.9782C361.912 82.7711 337.993 83.4102 314.051 83.4225ZM380.866 101.459C390.708 100.356 400.567 99.8794 410.432 99.5568C415.365 99.4302 420.299 99.3297 425.237 99.3497C430.173 99.3404 435.114 99.4651 440.058 99.7237C435.137 100.271 430.213 100.685 425.284 100.966C420.356 101.275 415.425 101.463 410.493 101.626C400.626 101.882 390.756 101.984 380.866 101.459ZM343.752 56.5042C354.131 55.5949 364.516 55.313 374.902 55.1847C380.096 55.1553 385.289 55.1521 390.484 55.2694C395.678 55.3573 400.874 55.5793 406.071 55.9354C400.882 56.3854 395.691 56.7022 390.499 56.8858C385.307 57.0979 380.114 57.1894 374.921 57.2548C364.534 57.3162 354.146 57.2239 343.752 56.5042Z" fill="#020202"/>
<path d="M163.319 255.927C163.33 255.938 163.33 255.938 163.33 255.948H163.319V255.927ZM222.257 231.048C222.246 231.059 222.246 231.079 222.236 231.09L222.215 231.028L222.257 231.048Z" fill="white"/>
<path d="M340.869 133.258C341.272 133.242 341.653 133.071 341.932 132.78C342.211 132.489 342.366 132.101 342.365 131.698C342.363 131.295 342.205 130.908 341.923 130.62C341.642 130.331 341.259 130.163 340.856 130.151C340.452 130.166 340.071 130.338 339.792 130.629C339.513 130.92 339.358 131.308 339.36 131.711C339.362 132.114 339.52 132.5 339.801 132.789C340.083 133.078 340.466 133.246 340.869 133.258ZM339.159 140.599C339.562 140.583 339.943 140.411 340.222 140.12C340.501 139.829 340.656 139.441 340.654 139.038C340.653 138.636 340.494 138.249 340.213 137.96C339.931 137.672 339.548 137.504 339.145 137.491C338.742 137.507 338.361 137.678 338.082 137.969C337.803 138.261 337.648 138.648 337.65 139.051C337.651 139.454 337.81 139.841 338.091 140.13C338.373 140.418 338.755 140.586 339.159 140.599ZM341.429 147.674C341.832 147.658 342.213 147.486 342.492 147.195C342.771 146.904 342.926 146.516 342.924 146.113C342.923 145.71 342.764 145.324 342.483 145.035C342.201 144.747 341.819 144.578 341.415 144.566C341.012 144.582 340.631 144.753 340.352 145.044C340.073 145.335 339.918 145.723 339.92 146.126C339.921 146.529 340.08 146.916 340.361 147.204C340.643 147.493 341.026 147.661 341.429 147.674ZM345.57 155.735C345.973 155.719 346.354 155.548 346.633 155.257C346.912 154.966 347.067 154.578 347.065 154.175C347.064 153.772 346.905 153.385 346.624 153.096C346.342 152.808 345.96 152.64 345.556 152.628C345.153 152.643 344.772 152.815 344.493 153.106C344.214 153.397 344.059 153.785 344.06 154.188C344.062 154.591 344.221 154.977 344.502 155.266C344.784 155.554 345.166 155.723 345.57 155.735ZM347.099 164.18C347.502 164.164 347.884 163.993 348.163 163.702C348.442 163.411 348.597 163.023 348.595 162.62C348.593 162.217 348.435 161.83 348.153 161.542C347.872 161.253 347.489 161.085 347.086 161.073C346.683 161.089 346.301 161.26 346.022 161.551C345.743 161.842 345.588 162.23 345.59 162.633C345.592 163.036 345.75 163.422 346.032 163.711C346.313 164 346.696 164.168 347.099 164.18Z" fill="#020202"/>
<path d="M341.988 164.795C340.131 162.019 338.538 159.076 337.227 156.004C335.864 152.93 334.806 149.73 334.07 146.45C333.72 144.781 333.497 143.088 333.405 141.385L333.38 140.094C333.382 139.663 333.439 139.226 333.467 138.793C333.527 137.941 333.648 137.094 333.83 136.259C334.141 134.579 334.66 132.943 335.373 131.39C335.741 130.602 336.231 129.876 336.826 129.241C337.101 128.904 337.449 128.634 337.844 128.452C338.24 128.269 338.671 128.178 339.106 128.187C338.717 128.279 338.352 128.453 338.036 128.697C337.72 128.941 337.459 129.25 337.272 129.603C336.85 130.276 336.529 131.006 336.318 131.772C335.875 133.318 335.578 134.902 335.43 136.503C335.368 137.312 335.272 138.124 335.28 138.901C335.28 139.295 335.248 139.683 335.271 140.078L335.365 141.266C335.501 142.865 335.745 144.452 336.097 146.018C336.804 149.201 337.684 152.344 338.734 155.431C339.766 158.548 340.876 161.653 341.988 164.795ZM208.145 58.5198C207.678 58.0434 207.232 57.6084 206.786 57.2043C207.283 57.5959 207.738 58.0366 208.145 58.5198ZM208.746 59.131C210.778 61.4297 211.916 64.3816 211.95 67.4482C211.649 64.1857 210.345 61.0962 208.217 58.6027C208.394 58.7684 208.57 58.9444 208.746 59.131Z" fill="#020202"/>
<path d="M210.177 78.7693C211.445 75.1329 212.046 71.2979 211.951 67.4485C212.28 71.3096 211.672 75.1931 210.177 78.7693Z" fill="#020202"/>
<path d="M240.609 112.794C238.981 111.582 237.436 110.36 235.964 109.148C235.674 108.91 235.373 108.672 235.093 108.434C235 108.351 234.906 108.278 234.823 108.206C218.575 94.5545 211.846 82.1564 210.456 79.3599C210.27 78.9765 210.176 78.7694 210.176 78.7694C209.606 79.9294 208.973 81.048 208.372 82.1875L206.474 85.5537C205.209 87.7909 203.872 89.9867 202.534 92.1825C201.176 94.3681 199.818 96.5534 198.387 98.6975C196.976 100.842 195.535 102.975 194.011 105.057C195.1 107.891 197.013 110.335 199.504 112.074C201.995 113.813 204.95 114.767 207.988 114.814C209.457 114.54 210.944 114.381 212.437 114.338L214.625 114.213C215.351 114.201 216.07 114.065 216.75 113.809C216.249 114.426 215.549 114.851 214.77 115.011C214.027 115.207 213.266 115.329 212.499 115.373C210.974 115.462 209.445 115.272 207.988 114.814L214.241 121.495C214.262 121.494 214.283 121.49 214.303 121.484C215.506 121.257 234.927 117.548 241.097 113.167C240.931 113.043 240.775 112.929 240.609 112.794ZM201.653 91.6439C203.011 89.4586 204.37 87.273 205.79 85.1289L207.937 81.9182C208.683 80.872 209.399 79.8052 210.176 78.7694C210.187 78.7487 210.187 78.7383 210.197 78.7176V78.6968C210.207 78.6865 210.207 78.6865 210.207 78.6761C210.249 78.5416 210.29 78.4069 210.332 78.2723C210.425 77.9822 210.508 77.6922 210.591 77.3918C210.747 76.8842 210.881 76.3767 211.006 75.8692C211.068 75.631 211.12 75.4032 211.182 75.165C211.296 74.6264 211.41 74.0981 211.503 73.5699C211.555 73.3006 211.597 73.0312 211.638 72.7619C211.669 72.6221 211.69 72.4802 211.7 72.3374C211.719 72.2554 211.733 72.1724 211.742 72.0888C211.763 71.9127 211.783 71.7365 211.804 71.5502C211.815 71.4257 211.835 71.2912 211.846 71.1668C211.856 71.0944 211.856 71.0323 211.866 70.9597C211.898 70.6697 211.918 70.39 211.929 70.1103C211.939 69.9551 211.949 69.7997 211.949 69.6443C211.97 69.3025 211.98 68.9711 211.98 68.6396C211.98 68.2667 211.97 67.8835 211.949 67.5107C211.955 67.4798 211.955 67.4483 211.949 67.4175C211.951 67.3962 211.947 67.3748 211.939 67.3553C211.941 67.3204 211.937 67.2855 211.929 67.2517C211.93 67.179 211.927 67.1063 211.918 67.0341C211.908 66.827 211.887 66.6303 211.866 66.423C211.856 66.3609 211.856 66.2987 211.846 66.2365C211.825 66.0501 211.794 65.8638 211.763 65.6773C211.763 65.6565 211.752 65.6359 211.752 65.6152C211.742 65.553 211.732 65.4804 211.721 65.4183C211.711 65.3563 211.701 65.3044 211.69 65.2526C211.69 65.2422 211.69 65.2422 211.68 65.2318C211.659 65.0558 211.618 64.9005 211.586 64.7347C211.576 64.7036 211.576 64.6623 211.566 64.6311C211.546 64.5367 211.522 64.4434 211.493 64.3515C211.421 64.0408 211.338 63.7404 211.244 63.4503C211.202 63.2954 211.15 63.1432 211.089 62.9946C211.057 62.8922 211.019 62.7919 210.975 62.6942C210.944 62.6009 210.902 62.5079 210.861 62.4145C210.788 62.2385 210.715 62.0728 210.633 61.9174C210.622 61.8967 210.622 61.8759 210.612 61.8552V61.8448C210.599 61.833 210.588 61.819 210.581 61.8035C210.556 61.7351 210.525 61.6692 210.487 61.6066C210.456 61.5342 210.415 61.4721 210.384 61.4099C210.373 61.3701 210.352 61.3341 210.321 61.3062C210.28 61.2235 210.228 61.1406 210.187 61.0576C210.114 60.9335 210.031 60.7987 209.948 60.6745C209.832 60.4801 209.704 60.2932 209.564 60.1151C209.53 60.0584 209.488 60.0062 209.44 59.9597L209.409 59.9288C209.393 59.9059 209.379 59.8816 209.367 59.8562C209.366 59.8562 209.365 59.856 209.363 59.8555C209.362 59.8549 209.361 59.8542 209.36 59.8532C209.359 59.8522 209.358 59.8511 209.358 59.8498C209.357 59.8485 209.357 59.8472 209.357 59.8458C209.349 59.8245 209.335 59.8062 209.316 59.794C209.253 59.7112 209.191 59.6283 209.119 59.5454C208.994 59.4005 208.87 59.2657 208.745 59.1312C208.569 58.9447 208.393 58.7686 208.217 58.603C208.206 58.5822 208.206 58.5718 208.196 58.5718C208.175 58.5511 208.165 58.5304 208.144 58.52C208.126 58.4878 208.101 58.4597 208.071 58.4372L208.061 58.4268C207.947 58.3129 207.843 58.2196 207.74 58.1162C207.574 57.9399 207.397 57.7847 207.231 57.6189C207.13 57.5275 207.033 57.4307 206.941 57.329L206.91 57.2979C206.869 57.2668 206.837 57.2357 206.817 57.2253C206.806 57.2149 206.786 57.2046 206.775 57.1942C205.471 55.9537 204.019 54.8787 202.451 53.9937C202.327 53.9213 202.203 53.8591 202.068 53.7969C196.717 51.1144 193.109 53.7659 187.074 54.263C178.862 54.9259 164.366 89.334 164.366 89.334C164.646 89.6448 164.926 89.9556 165.206 90.2559C173.408 99.0393 184.005 102.747 189.78 104.208C191.173 104.57 192.586 104.854 194.011 105.057C195.172 102.758 196.437 100.51 197.713 98.2727C198.978 96.0355 200.315 93.8398 201.653 91.6439ZM182.906 89.7692C185.478 91.1531 187.955 92.7068 190.32 94.4198C184.894 92.2372 179.747 89.4211 174.984 86.0301C177.704 87.1017 180.35 88.3508 182.906 89.7692ZM169.592 89.8728C169.189 89.8598 168.807 89.6911 168.526 89.4023C168.245 89.1134 168.087 88.7269 168.086 88.3241C168.084 87.9214 168.24 87.5338 168.519 87.2431C168.798 86.9524 169.179 86.7811 169.582 86.7655C169.985 86.7784 170.367 86.9471 170.648 87.236C170.929 87.5249 171.087 87.9114 171.088 88.3141C171.089 88.7169 170.934 89.1044 170.655 89.3952C170.376 89.6859 169.995 89.8571 169.592 89.8728ZM175.834 94.0677C175.43 94.0567 175.046 93.8889 174.763 93.5999C174.48 93.3108 174.322 92.9231 174.32 92.5191C174.319 92.115 174.475 91.7263 174.756 91.4353C175.036 91.1444 175.42 90.974 175.824 90.9604C176.228 90.9713 176.612 91.1391 176.895 91.4282C177.178 91.7173 177.336 92.1049 177.338 92.509C177.339 92.913 177.183 93.3018 176.902 93.5927C176.622 93.8837 176.238 94.054 175.834 94.0677ZM183.31 97.7653C182.907 97.7523 182.525 97.5836 182.244 97.2947C181.963 97.0059 181.805 96.6194 181.804 96.2166C181.803 95.8139 181.958 95.4264 182.237 95.1357C182.516 94.8449 182.897 94.6737 183.3 94.658C183.703 94.671 184.085 94.8397 184.366 95.1286C184.647 95.4174 184.805 95.8039 184.806 96.2066C184.807 96.6094 184.652 96.9969 184.373 97.2876C184.094 97.5784 183.713 97.7496 183.31 97.7653ZM190.04 100.469C189.637 100.456 189.255 100.287 188.974 99.9981C188.693 99.7092 188.535 99.3227 188.534 98.92C188.532 98.5172 188.687 98.1297 188.966 97.839C189.245 97.5483 189.626 97.377 190.029 97.3613C190.432 97.3743 190.814 97.543 191.095 97.8319C191.376 98.1208 191.534 98.5073 191.535 98.91C191.537 99.3127 191.382 99.7003 191.103 99.991C190.824 100.282 190.442 100.453 190.04 100.469ZM259.095 83.3869C255.195 80.5518 223.669 58.213 223.669 58.213C226.708 56.5101 229.135 53.8966 230.607 50.7415C237.03 57.1551 240.847 59.3961 259.095 83.3869Z" fill="#020202"/>
</svg>
