<svg width="424" height="166" viewBox="0 0 424 166" fill="none" xmlns="http://www.w3.org/2000/svg">
<rect y="25" width="424" height="141" rx="27" fill="#437DD3"/>
<rect width="424" height="141" rx="27" fill="#072654"/>
<g clip-path="url(#clip0_91_142)">
<path d="M101.342 57.7429L97.6646 71.1266L118.695 57.6679L104.942 108.443L118.907 108.458L139.219 33.4579L101.342 57.7429Z" fill="white"/>
<path d="M80.4158 87.1128L75 108.458H101.807L112.777 65.0328L80.4158 87.1128Z" fill="white"/>
</g>
<path d="M181.782 42.3579H167.57V42.5479C169.128 42.7379 170.458 43.1559 170.458 44.5239V66.7919C170.458 68.1599 169.128 68.5779 167.57 68.7679V68.9579H178.552V68.7679C176.994 68.5779 175.664 68.1599 175.664 66.7919V59.4579H180.034C187.558 59.4579 192.46 55.9239 192.46 50.1479C192.46 44.8279 188.546 42.3579 181.782 42.3579ZM181.478 58.8499C179.578 58.8499 177.602 58.5079 175.664 57.9379V42.9659H179.692C186.152 42.9659 187.33 47.5639 187.33 51.9339C187.33 57.7099 185.392 58.8499 181.478 58.8499ZM213.989 65.8419V51.7059C211.557 50.7559 208.935 50.2999 206.503 50.2999C198.447 50.2999 194.571 55.0119 194.571 60.5599C194.571 65.8419 198.181 69.2239 203.729 69.2239C205.515 69.2239 207.035 68.8439 208.251 68.1979C208.251 68.2359 208.213 68.2359 208.213 68.2359L215.471 69.4139V69.2999C214.331 68.5399 213.989 67.8939 213.989 65.8419ZM199.397 58.3559C199.397 53.9479 201.221 51.0219 204.793 51.0219C206.617 51.0219 207.985 51.7819 209.163 53.0739V65.3479C209.163 65.9179 209.125 66.3359 209.087 66.7159C208.327 67.5519 207.377 68.0079 206.123 68.0079C202.285 68.0079 199.397 63.8659 199.397 58.3559ZM230.926 50.5279V50.6799C232.294 51.1359 233.89 51.8199 232.522 55.0879L228.114 65.4999L223.554 55.0879C222.11 51.8199 223.63 50.9079 225.53 50.6799V50.5279H216.6L218.006 53.1119L225.91 70.6299L225.834 70.8199C224.58 73.7459 222.034 74.8859 218.88 74.8859L220.324 76.5579C224.238 76.5579 225.378 73.7839 226.556 71.0099L233.244 55.1259C234.65 51.7819 235.562 51.1359 236.778 50.6799V50.5279H230.926ZM269.5 50.6039V50.7559C270.868 51.2119 272.464 51.8959 271.02 55.1639L267.22 63.9419L263.192 55.1639C261.71 51.8959 263.268 50.9839 265.168 50.7559V50.6039H256.01L257.568 53.1879L259.24 56.7219L256.162 63.8659L252.096 55.0879C250.614 51.8199 252.172 50.9079 254.224 50.6799V50.5279H244.952L246.51 53.1119L254.186 69.4139H254.414L259.62 57.5579L265.244 69.4899H265.51L271.78 55.2019C273.186 51.9339 274.098 51.2119 275.314 50.7559V50.6039H269.5ZM281.004 47.5259C282.562 47.5259 283.778 46.3099 283.778 44.7139C283.778 43.1559 282.562 41.9399 281.004 41.9399C279.446 41.9399 278.23 43.1559 278.23 44.7139C278.23 46.3099 279.446 47.5259 281.004 47.5259ZM278.534 68.9579H285.07C283.93 68.1979 283.588 67.4759 283.588 65.4239V53.1499L283.778 50.3379L276.444 50.9079V51.0599C277.242 51.1359 278.23 51.4019 278.762 51.7439V66.3359L278.534 68.9579ZM293.567 69.5659H294.365L299.609 68.2739V68.1219L294.365 68.2739V51.4399H298.849L299.039 50.5279H294.365V45.4739L294.669 43.7259L286.005 47.7539V47.9819C288.551 47.2599 289.539 47.0319 289.539 48.6279V66.3359L289.425 68.6159L293.567 69.5659ZM316.977 68.9579H323.513C322.373 68.1979 322.031 67.4759 322.031 65.4239V57.2159C322.031 51.4779 318.801 50.2999 316.407 50.2999C313.025 50.2999 310.023 52.4659 308.237 53.6819V40.9139L308.427 39.2039L299.991 43.1559V43.3839C302.423 42.6619 303.411 42.4719 303.411 43.9919V66.6019L303.069 68.9579H310.403V68.8059C308.503 68.3879 308.237 67.3239 308.237 65.2719V54.5939C309.719 53.5679 311.543 52.0479 313.899 52.0479C315.685 52.0479 317.205 53.0359 317.205 57.2919V66.3359L316.977 68.9579ZM189.8 97.9419L185.202 91.6339C189.8 90.3799 192.612 87.3399 192.612 83.5399C192.612 78.5999 188.698 76.3579 181.896 76.3579H167.57V76.5479C169.128 76.7379 170.458 77.1559 170.458 78.5239V100.792C170.458 102.16 169.128 102.578 167.57 102.768V102.958H178.552V102.768C176.994 102.578 175.664 102.16 175.664 100.792V92.2419H180.11L187.254 102.312V102.958H195.462V102.844C193.486 101.856 192.042 101.02 189.8 97.9419ZM175.664 77.0419H179.844C186.342 77.0419 187.482 81.0699 187.482 85.0979C187.482 90.3799 185.544 91.6339 181.706 91.6339C179.73 91.6339 177.64 91.3299 175.664 90.7599V77.0419ZM214.879 99.8419V85.7059C212.447 84.7559 209.825 84.2999 207.393 84.2999C199.337 84.2999 195.461 89.0119 195.461 94.5599C195.461 99.8419 199.071 103.224 204.619 103.224C206.405 103.224 207.925 102.844 209.141 102.198C209.141 102.236 209.103 102.236 209.103 102.236L216.361 103.414V103.3C215.221 102.54 214.879 101.894 214.879 99.8419ZM200.287 92.3559C200.287 87.9479 202.111 85.0219 205.683 85.0219C207.507 85.0219 208.875 85.7819 210.053 87.0739V99.3479C210.053 99.9179 210.015 100.336 209.977 100.716C209.217 101.552 208.267 102.008 207.013 102.008C203.175 102.008 200.287 97.8659 200.287 92.3559ZM236.915 84.6799V84.5279H220.499L219.625 90.1899C221.297 86.2379 223.311 85.0979 227.339 85.0979H230.379L223.387 97.1819C221.335 100.716 219.815 102.464 218.637 102.958H235.015L235.889 97.2959C234.217 101.248 232.203 102.388 228.175 102.388H225.249L232.925 89.2399C234.863 85.9339 235.775 84.9079 236.915 84.6799ZM248.765 84.2999C242.647 84.2999 238.657 88.1759 238.657 93.7619C238.657 99.4619 242.647 103.224 248.765 103.224C254.883 103.224 258.873 99.3479 258.873 93.7619C258.873 88.0619 254.883 84.2999 248.765 84.2999ZM250.247 102.578C245.687 102.578 243.293 95.9279 243.293 90.8739C243.293 87.1879 244.547 84.9459 247.283 84.9459C251.881 84.9459 254.237 91.5959 254.237 96.6879C254.237 100.298 252.983 102.578 250.247 102.578ZM273.675 84.3379C270.977 84.3379 268.925 85.9339 268.051 88.3659H267.557V87.1499L267.747 84.3379L260.413 84.9079V85.0599C261.211 85.1359 262.199 85.4019 262.731 85.7439V100.336L262.541 102.958H269.039C267.899 102.198 267.557 101.476 267.557 99.4239V91.8999C267.861 89.2779 268.811 86.9979 270.559 86.9979C271.965 86.9979 272.687 88.8219 271.813 91.1019H271.965L275.765 84.7939C275.043 84.4519 274.435 84.3379 273.675 84.3379ZM287.99 84.2999C285.71 84.2999 280.732 84.6799 276.704 85.8199V85.9719C277.692 86.0479 278.68 86.3139 279.212 86.6559V106.91C279.212 108.81 278.832 109.456 277.502 109.798V109.912L286.09 111.166V111.052C284.38 110.292 284.038 109.57 284.038 107.518V102.73C284.95 102.996 286.052 103.224 287.458 103.224C293.842 103.224 298.592 99.4619 298.592 93.3819C298.592 88.1759 295.058 84.2999 287.99 84.2999ZM288.94 102.54C287.116 102.54 285.52 101.704 284.038 100.526V85.4019C284.532 85.2499 285.444 84.9079 286.698 84.9079C291.6 84.9079 293.652 90.2279 293.652 95.3959C293.652 100.222 291.98 102.54 288.94 102.54ZM321.049 99.8419V85.7059C318.617 84.7559 315.995 84.2999 313.563 84.2999C305.507 84.2999 301.631 89.0119 301.631 94.5599C301.631 99.8419 305.241 103.224 310.789 103.224C312.575 103.224 314.095 102.844 315.311 102.198C315.311 102.236 315.273 102.236 315.273 102.236L322.531 103.414V103.3C321.391 102.54 321.049 101.894 321.049 99.8419ZM306.457 92.3559C306.457 87.9479 308.281 85.0219 311.853 85.0219C313.677 85.0219 315.045 85.7819 316.223 87.0739V99.3479C316.223 99.9179 316.185 100.336 316.147 100.716C315.387 101.552 314.437 102.008 313.183 102.008C309.345 102.008 306.457 97.8659 306.457 92.3559ZM337.987 84.5279V84.6799C339.355 85.1359 340.951 85.8199 339.583 89.0879L335.175 99.4999L330.615 89.0879C329.171 85.8199 330.691 84.9079 332.591 84.6799V84.5279H323.661L325.067 87.1119L332.971 104.63L332.895 104.82C331.641 107.746 329.095 108.886 325.941 108.886L327.385 110.558C331.299 110.558 332.439 107.784 333.617 105.01L340.305 89.1259C341.711 85.7819 342.623 85.1359 343.839 84.6799V84.5279H337.987Z" fill="white"/>
<defs>
<clipPath id="clip0_91_142">
<rect width="67" height="75" fill="white" transform="translate(75 33.4579)"/>
</clipPath>
</defs>
</svg>
